STARTFONT 2.1
COMMENT
COMMENT Converted from OpenType font "MultiTypeGamerChess-Regular.otf" by "otf2bdf 3.0".
COMMENT
FONT -FreeType-MultiType Gamer Chess-Medium-R-Normal--50-360-100-100-P-294-ISO10646-1
SIZE 36 100 100
FONTBOUNDINGBOX 130 88 -44 -15
STARTPROPERTIES 19
FOUNDRY "FreeType"
FAMILY_NAME "MultiType Gamer Chess"
WEIGHT_NAME "Medium"
SLANT "R"
SETWIDTH_NAME "Normal"
ADD_STYLE_NAME ""
PIXEL_SIZE 50
POINT_SIZE 360
RESOLUTION_X 100
RESOLUTION_Y 100
SPACING "P"
AVERAGE_WIDTH 294
CHARSET_REGISTRY "ISO10646"
CHARSET_ENCODING "1"
FONT_ASCENT 55
FONT_DESCENT 5
COPYRIGHT "-FreeType-MultiType Gamer Chess-Medium-R-Normal--50-360-100-100-P-294-ISO10646-1"
_OTF_FONTFILE "MultiTypeGamerChess-Regular.otf"
_OTF_PSNAME "MultiTypeGamer-Chess"
ENDPROPERTIES
CHARS 758
STARTCHAR 0020
ENCODING 32
SWIDTH 300 0
DWIDTH 15 0
BBX 0 0 0 0
BITMAP
ENDCHAR
STARTCHAR 0021
ENCODING 33
SWIDTH 300 0
DWIDTH 15 0
BBX 7 38 4 0
BITMAP
C6
C6
C6
38
38
FE
C6
C6
38
38
FE
C6
C6
38
38
FE
C6
C6
38
38
FE
C6
C6
38
38
38
00
00
00
00
C6
C6
C6
38
38
FE
C6
C6
ENDCHAR
STARTCHAR 0022
ENCODING 34
SWIDTH 440 0
DWIDTH 22 0
BBX 20 13 1 30
BITMAP
E70630
E70630
E70630
1801C0
1801C0
FF07F0
E70630
E70630
1801C0
1801C0
FF07F0
E70630
E70630
ENDCHAR
STARTCHAR 0023
ENCODING 35
SWIDTH 900 0
DWIDTH 45 0
BBX 37 48 4 -5
BITMAP
01CE039C00
01CE039C00
01CE039C00
0030006000
0030006000
01FE03FC00
01CE039C00
01CE039C00
0030006000
0030006000
01FE03FC00
01CE039C00
01CE039C00
C6318C6318
C6318C6318
FFFFFFFFF8
39CE739CE0
39CE739CE0
C6318C6318
C6318C6318
C7FF8FFF18
01CE039C00
01CE039C00
0030006000
0030006000
01FE03FC00
01CE039C00
01CE039C00
C6318C6318
C6318C6318
FFFFFFFFF8
39CE739CE0
39CE739CE0
C6318C6318
C6318C6318
C7FF8FFF18
01CE039C00
01CE039C00
0030006000
0030006000
01FE03FC00
01CE039C00
01CE039C00
0030006000
0030006000
01FE03FC00
01CE039C00
01CE039C00
ENDCHAR
STARTCHAR 0024
ENCODING 36
SWIDTH 700 0
DWIDTH 35 0
BBX 27 48 4 -5
BITMAP
00318000
00318000
00318000
000E0000
000E0000
063F8C60
06318C60
06318C60
39CE7380
39CE7380
FFFFFFE0
C6318C60
C6318C60
38000000
38000000
FE000000
C6000000
C6000000
38000000
38000000
FE318C00
C6318C00
C6318C00
39CE7380
39CE7380
3FFFFFE0
06318C60
06318C60
00000380
00000380
00000FE0
00000C60
00000C60
00000380
00000380
C6318FE0
C6318C60
C6318C60
39CE7380
39CE7380
FFFFFF80
C6318C00
C6318C00
000E0000
000E0000
003F8000
00318000
00318000
ENDCHAR
STARTCHAR 0025
ENCODING 37
SWIDTH 1300 0
DWIDTH 65 0
BBX 57 38 4 0
BITMAP
0631800318000000
0631800318000000
0631800318000000
39CE7000E0000000
39CE7000E0000000
FFFFFC03F8000000
C6318C0318000000
C6318C0318000000
3800701CE0000000
3800701CE0000000
FE01FC1FE0000000
C6018C0300000000
C6018C0300000000
3800701CE0000000
3800701CE0000000
FE31FC7FE0C63000
C6318C6300C63000
C6318C6300C63000
39CE701C0739CE00
39CE701C0739CE00
3FFFF07F1FFFFF80
0631806318C63180
0631806318C63180
0000039C07000E00
0000039C07000E00
000003FC1FC03F80
0000006018C03180
0000006018C03180
0000039C07000E00
0000039C07000E00
00000FFC1FC63F80
00000C6018C63180
00000C6018C63180
000003800739CE00
000003800739CE00
00000FE007FFFE00
00000C6000C63000
00000C6000C63000
ENDCHAR
STARTCHAR 0026
ENCODING 38
SWIDTH 800 0
DWIDTH 40 0
BBX 32 38 4 0
BITMAP
06318C00
06318C00
06318C00
39CE7000
39CE7000
FFFFFC00
C6318C00
C6318C00
38000000
38000000
FE000C60
C6000C60
C6000C60
39C00380
39C00380
3FF18FE3
06318C63
06318C63
01CE739C
01CE739C
07FFFFFF
06318C63
06318C63
39C00380
39C00380
FFC00FE0
C6000C60
C6000C60
38000380
38000380
FE318FE3
C6318C63
C6318C63
39CE739C
39CE739C
3FFFFFFF
06318C63
06318C63
ENDCHAR
STARTCHAR 0027
ENCODING 39
SWIDTH 200 0
DWIDTH 10 0
BBX 8 13 1 30
BITMAP
E7
E7
E7
18
18
FF
E7
E7
18
18
FF
E7
E7
ENDCHAR
STARTCHAR 0028
ENCODING 40
SWIDTH 300 0
DWIDTH 15 0
BBX 12 58 4 -10
BITMAP
0630
0630
0630
39C0
39C0
FFC0
C600
C600
3800
3800
FE00
C600
C600
3800
3800
FE00
C600
C600
3800
3800
FE00
C600
C600
3800
3800
FE00
C600
C600
3800
3800
FE00
C600
C600
3800
3800
FE00
C600
C600
3800
3800
FE00
C600
C600
3800
3800
FE00
C600
C600
3800
3800
FE00
C600
C600
39C0
39C0
3FF0
0630
0630
ENDCHAR
STARTCHAR 0029
ENCODING 41
SWIDTH 300 0
DWIDTH 15 0
BBX 12 58 -1 -10
BITMAP
C600
C600
C600
39C0
39C0
3FF0
0630
0630
01C0
01C0
07F0
0630
0630
01C0
01C0
07F0
0630
0630
01C0
01C0
07F0
0630
0630
01C0
01C0
07F0
0630
0630
01C0
01C0
07F0
0630
0630
01C0
01C0
07F0
0630
0630
01C0
01C0
07F0
0630
0630
01C0
01C0
07F0
0630
0630
01C0
01C0
07F0
0630
0630
39C0
39C0
FFC0
C600
C600
ENDCHAR
STARTCHAR 002A
ENCODING 42
SWIDTH 900 0
DWIDTH 45 0
BBX 37 33 4 10
BITMAP
C6018C0318
C6018C0318
C6018C0318
38007000E0
38007000E0
FE01FC03F8
C6018C0318
C6018C0318
39C0701CE0
39C0701CE0
3FF1FC7FE0
06318C6300
06318C6300
01CE739C00
01CE739C00
01FFFFFC00
00318C6000
00318C6000
01CE739C00
01CE739C00
07FFFFFF00
06318C6300
06318C6300
39C0701CE0
39C0701CE0
FFC1FC1FF8
C6018C0318
C6018C0318
38007000E0
38007000E0
FE01FC03F8
C6018C0318
C6018C0318
ENDCHAR
STARTCHAR 002B
ENCODING 43
SWIDTH 700 0
DWIDTH 35 0
BBX 27 28 4 5
BITMAP
00318000
00318000
00318000
000E0000
000E0000
003F8000
00318000
00318000
000E0000
000E0000
C63F8C60
C6318C60
C6318C60
39CE7380
39CE7380
FFFFFFE0
C6318C60
C6318C60
000E0000
000E0000
003F8000
00318000
00318000
000E0000
000E0000
003F8000
00318000
00318000
ENDCHAR
STARTCHAR 002C
ENCODING 44
SWIDTH 200 0
DWIDTH 10 0
BBX 8 13 1 -5
BITMAP
E7
E7
E7
18
18
FF
E7
E7
18
18
F8
E0
E0
ENDCHAR
STARTCHAR 002D
ENCODING 45
SWIDTH 500 0
DWIDTH 25 0
BBX 23 8 1 15
BITMAP
E739CE
E739CE
E739CE
18C630
18C630
FFFFFE
E739CE
E739CE
ENDCHAR
STARTCHAR 002E
ENCODING 46
SWIDTH 200 0
DWIDTH 10 0
BBX 8 8 1 0
BITMAP
E7
E7
E7
18
18
FF
E7
E7
ENDCHAR
STARTCHAR 002F
ENCODING 47
SWIDTH 400 0
DWIDTH 20 0
BBX 18 38 1 0
BITMAP
0039C0
0039C0
0039C0
000600
000600
003FC0
0039C0
0039C0
00C600
00C600
00FE00
003800
003800
00C600
00C600
07FE00
073800
073800
00C000
00C000
07F800
073800
073800
18C000
18C000
1FC000
070000
070000
18C000
18C000
FFC000
E70000
E70000
180000
180000
FF0000
E70000
E70000
ENDCHAR
STARTCHAR 0030
ENCODING 48
SWIDTH 700 0
DWIDTH 35 0
BBX 27 38 4 0
BITMAP
00318000
00318000
00318000
01CE7000
01CE7000
07FFFC00
06318C00
06318C00
39C07380
39C07380
FFC07FE0
C6000C60
C6000C60
38000380
38000380
FE000FE0
C6000C60
C6000C60
38000380
38000380
FE000FE0
C6000C60
C6000C60
38000380
38000380
FE000FE0
C6000C60
C6000C60
39C07380
39C07380
3FF1FF80
06318C00
06318C00
01CE7000
01CE7000
01FFF000
00318000
00318000
ENDCHAR
STARTCHAR 0031
ENCODING 49
SWIDTH 400 0
DWIDTH 20 0
BBX 12 38 4 0
BITMAP
C630
C630
C630
39C0
39C0
FFF0
C630
C630
01C0
01C0
07F0
0630
0630
01C0
01C0
07F0
0630
0630
01C0
01C0
07F0
0630
0630
01C0
01C0
07F0
0630
0630
01C0
01C0
07F0
0630
0630
01C0
01C0
07F0
0630
0630
ENDCHAR
STARTCHAR 0032
ENCODING 50
SWIDTH 700 0
DWIDTH 35 0
BBX 27 38 4 0
BITMAP
06318C00
06318C00
06318C00
39CE7380
39CE7380
FFFFFFE0
C6318C60
C6318C60
38000380
38000380
FE000FE0
C6000C60
C6000C60
00007380
00007380
0001FF80
00018C00
00018C00
000E7000
000E7000
003FF000
00318000
00318000
01CE0000
01CE0000
07FE0000
06300000
06300000
39C00000
39C00000
FFF18C60
C6318C60
C6318C60
39CE7380
39CE7380
FFFFFFE0
C6318C60
C6318C60
ENDCHAR
STARTCHAR 0033
ENCODING 51
SWIDTH 700 0
DWIDTH 35 0
BBX 27 38 4 0
BITMAP
06318C00
06318C00
06318C00
39CE7380
39CE7380
FFFFFFE0
C6318C60
C6318C60
38000380
38000380
FE000FE0
C6000C60
C6000C60
00007380
00007380
0031FF80
00318C00
00318C00
000E7380
000E7380
003FFFE0
00318C60
00318C60
00000380
00000380
C6000FE0
C6000C60
C6000C60
38000380
38000380
FE318FE0
C6318C60
C6318C60
39CE7380
39CE7380
3FFFFF80
06318C00
06318C00
ENDCHAR
STARTCHAR 0034
ENCODING 52
SWIDTH 700 0
DWIDTH 35 0
BBX 27 38 4 0
BITMAP
00018C00
00018C00
00018C00
000E7000
000E7000
003FFC00
00318C00
00318C00
01CE7000
01CE7000
07FFFC00
06318C00
06318C00
39C07000
39C07000
FFC1FC00
C6018C00
C6018C00
38007000
38007000
FE31FC60
C6318C60
C6318C60
39CE7380
39CE7380
FFFFFFE0
C6318C60
C6318C60
00007000
00007000
0001FC00
00018C00
00018C00
00007000
00007000
0001FC00
00018C00
00018C00
ENDCHAR
STARTCHAR 0035
ENCODING 53
SWIDTH 700 0
DWIDTH 35 0
BBX 27 38 4 0
BITMAP
C6318C60
C6318C60
C6318C60
39CE7380
39CE7380
FFFFFFE0
C6318C60
C6318C60
38000000
38000000
FE000000
C6000000
C6000000
38000000
38000000
FE318C00
C6318C00
C6318C00
39CE7380
39CE7380
FFFFFFE0
C6318C60
C6318C60
00000380
00000380
00000FE0
00000C60
00000C60
00000380
00000380
C6318FE0
C6318C60
C6318C60
39CE7380
39CE7380
FFFFFF80
C6318C00
C6318C00
ENDCHAR
STARTCHAR 0036
ENCODING 54
SWIDTH 700 0
DWIDTH 35 0
BBX 27 38 4 0
BITMAP
00318C60
00318C60
00318C60
01CE7380
01CE7380
07FFFFE0
06318C60
06318C60
39C00000
39C00000
FFC00000
C6000000
C6000000
38000000
38000000
FE318C00
C6318C00
C6318C00
39CE7380
39CE7380
FFFFFFE0
C6318C60
C6318C60
38000380
38000380
FE000FE0
C6000C60
C6000C60
38000380
38000380
FE318FE0
C6318C60
C6318C60
39CE7380
39CE7380
3FFFFF80
06318C00
06318C00
ENDCHAR
STARTCHAR 0037
ENCODING 55
SWIDTH 700 0
DWIDTH 35 0
BBX 27 38 4 0
BITMAP
C6318C60
C6318C60
C6318C60
39CE7380
39CE7380
FFFFFFE0
C6318C60
C6318C60
00000380
00000380
00000FE0
00000C60
00000C60
00007380
00007380
0001FF80
00018C00
00018C00
000E7000
000E7000
003FF000
00318000
00318000
01CE0000
01CE0000
07FE0000
06300000
06300000
01C00000
01C00000
07F00000
06300000
06300000
01C00000
01C00000
07F00000
06300000
06300000
ENDCHAR
STARTCHAR 0038
ENCODING 56
SWIDTH 700 0
DWIDTH 35 0
BBX 27 38 4 0
BITMAP
06318C00
06318C00
06318C00
39CE7380
39CE7380
FFFFFFE0
C6318C60
C6318C60
38000380
38000380
FE000FE0
C6000C60
C6000C60
39C07380
39C07380
3FF1FF80
06318C00
06318C00
01CE7000
01CE7000
07FFFC00
06318C00
06318C00
39C07380
39C07380
FFC07FE0
C6000C60
C6000C60
38000380
38000380
FE318FE0
C6318C60
C6318C60
39CE7380
39CE7380
3FFFFF80
06318C00
06318C00
ENDCHAR
STARTCHAR 0039
ENCODING 57
SWIDTH 700 0
DWIDTH 35 0
BBX 27 38 4 0
BITMAP
06318C00
06318C00
06318C00
39CE7380
39CE7380
FFFFFFE0
C6318C60
C6318C60
38000380
38000380
FE000FE0
C6000C60
C6000C60
38000380
38000380
FE318FE0
C6318C60
C6318C60
39CE7380
39CE7380
3FFFFFE0
06318C60
06318C60
00000380
00000380
00000FE0
00000C60
00000C60
00007380
00007380
C631FF80
C6318C00
C6318C00
39CE7000
39CE7000
FFFFF000
C6318000
C6318000
ENDCHAR
STARTCHAR 003A
ENCODING 58
SWIDTH 200 0
DWIDTH 10 0
BBX 8 23 1 7
BITMAP
E7
E7
FF
18
18
E7
E7
E7
00
00
00
00
00
00
00
E7
E7
FF
18
18
E7
E7
E7
ENDCHAR
STARTCHAR 003B
ENCODING 59
SWIDTH 200 0
DWIDTH 10 0
BBX 8 28 1 -5
BITMAP
E7
E7
E7
18
18
FF
E7
E7
00
00
00
00
00
00
00
E7
E7
E7
18
18
FF
E7
E7
18
18
F8
E0
E0
ENDCHAR
STARTCHAR 003C
ENCODING 60
SWIDTH 640 0
DWIDTH 32 0
BBX 25 38 1 0
BITMAP
00003180
00003180
00003180
0001CE00
0001CE00
0007FE00
00063000
00063000
0039C000
0039C000
00FFC000
00C60000
00C60000
07380000
07380000
1FF80000
18C00000
18C00000
E7000000
E7000000
FFC00000
18C00000
18C00000
07380000
07380000
07FE0000
00C60000
00C60000
0039C000
0039C000
003FF000
00063000
00063000
0001CE00
0001CE00
0001FF80
00003180
00003180
ENDCHAR
STARTCHAR 003D
ENCODING 61
SWIDTH 700 0
DWIDTH 35 0
BBX 27 23 4 5
BITMAP
C6318C60
C6318C60
C6318C60
39CE7380
39CE7380
FFFFFFE0
C6318C60
C6318C60
00000000
00000000
00000000
00000000
00000000
00000000
00000000
C6318C60
C6318C60
C6318C60
39CE7380
39CE7380
FFFFFFE0
C6318C60
C6318C60
ENDCHAR
STARTCHAR 003E
ENCODING 62
SWIDTH 640 0
DWIDTH 32 0
BBX 25 38 6 0
BITMAP
E7000000
E7000000
E7000000
18C00000
18C00000
1FF80000
07380000
07380000
00C60000
00C60000
00FFC000
0039C000
0039C000
00063000
00063000
0007FE00
0001CE00
0001CE00
00003180
00003180
0001FF80
0001CE00
0001CE00
00063000
00063000
003FF000
0039C000
0039C000
00C60000
00C60000
07FE0000
07380000
07380000
18C00000
18C00000
FFC00000
E7000000
E7000000
ENDCHAR
STARTCHAR 003F
ENCODING 63
SWIDTH 700 0
DWIDTH 35 0
BBX 27 38 4 0
BITMAP
06318C00
06318C00
06318C00
39CE7380
39CE7380
FFFFFFE0
C6318C60
C6318C60
38000380
38000380
FE000FE0
C6000C60
C6000C60
00000380
00000380
00018FE0
00018C60
00018C60
000E7380
000E7380
003FFF80
00318C00
00318C00
000E0000
000E0000
003F8000
00318000
00318000
00000000
00000000
00318000
00318000
00318000
000E0000
000E0000
003F8000
00318000
00318000
ENDCHAR
STARTCHAR 0040
ENCODING 64
SWIDTH 1200 0
DWIDTH 60 0
BBX 52 53 4 -5
BITMAP
00318C6318C000
00318C6318C000
00318C6318C000
01CE739CE73800
01CE739CE73800
07FFFFFFFFFE00
06318C6318C600
06318C6318C600
39C000000039C0
39C000000039C0
FFC00000003FF0
C6000000000630
C6000000000630
380000000001C0
380000000001C0
FE000C631807F0
C6000C63180630
C6000C63180630
3800739CE001C0
3800739CE001C0
FE01FFFFF807F0
C6018C63180630
C6018C63180630
38007000E001C0
38007000E001C0
FE01FC03F807F0
C6018C03180630
C6018C03180630
38007000E001C0
38007000E001C0
FE01FC63F8C7F0
C6018C6318C630
C6018C6318C630
3800739CE739C0
3800739CE739C0
FE007FFFFFFFC0
C6000C6318C600
C6000C6318C600
38000000000000
38000000000000
FE000000000000
C6000000000000
C6000000000000
39C00000000000
39C00000000000
3FF18C6318C630
06318C6318C630
06318C6318C630
01CE739CE739C0
01CE739CE739C0
01FFFFFFFFFFF0
00318C6318C630
00318C6318C630
ENDCHAR
STARTCHAR 0041
ENCODING 65
SWIDTH 700 0
DWIDTH 35 0
BBX 27 38 4 0
BITMAP
00318000
00318000
00318000
01CE7000
01CE7000
07FFFC00
06318C00
06318C00
39C07380
39C07380
FFC07FE0
C6000C60
C6000C60
38000380
38000380
FE000FE0
C6000C60
C6000C60
38000380
38000380
FE318FE0
C6318C60
C6318C60
39CE7380
39CE7380
FFFFFFE0
C6318C60
C6318C60
38000380
38000380
FE000FE0
C6000C60
C6000C60
38000380
38000380
FE000FE0
C6000C60
C6000C60
ENDCHAR
STARTCHAR 0042
ENCODING 66
SWIDTH 700 0
DWIDTH 35 0
BBX 27 38 4 0
BITMAP
C6318C00
C6318C00
C6318C00
39CE7380
39CE7380
FFFFFFE0
C6318C60
C6318C60
38000380
38000380
FE000FE0
C6000C60
C6000C60
38007380
38007380
FE31FF80
C6318C00
C6318C00
39CE7380
39CE7380
FFFFFFE0
C6318C60
C6318C60
38000380
38000380
FE000FE0
C6000C60
C6000C60
38000380
38000380
FE318FE0
C6318C60
C6318C60
39CE7380
39CE7380
FFFFFF80
C6318C00
C6318C00
ENDCHAR
STARTCHAR 0043
ENCODING 67
SWIDTH 800 0
DWIDTH 40 0
BBX 32 38 4 0
BITMAP
00318C00
00318C00
00318C00
01CE7380
01CE7380
07FFFFE0
06318C60
06318C60
39C0039C
39C0039C
FFC003FF
C6000063
C6000063
3800001C
3800001C
FE00007F
C6000063
C6000063
38000000
38000000
FE000000
C6000000
C6000000
38000000
38000000
FE000063
C6000063
C6000063
39C0039C
39C0039C
3FF18FFC
06318C60
06318C60
01CE7380
01CE7380
01FFFF80
00318C00
00318C00
ENDCHAR
STARTCHAR 0044
ENCODING 68
SWIDTH 800 0
DWIDTH 40 0
BBX 32 38 4 0
BITMAP
C6318C00
C6318C00
C6318C00
39CE7380
39CE7380
FFFFFFE0
C6318C60
C6318C60
3800039C
3800039C
FE0003FF
C6000063
C6000063
3800001C
3800001C
FE00007F
C6000063
C6000063
3800001C
3800001C
FE00007F
C6000063
C6000063
3800001C
3800001C
FE00007F
C6000063
C6000063
3800039C
3800039C
FE318FFC
C6318C60
C6318C60
39CE7380
39CE7380
FFFFFF80
C6318C00
C6318C00
ENDCHAR
STARTCHAR 0045
ENCODING 69
SWIDTH 700 0
DWIDTH 35 0
BBX 27 38 4 0
BITMAP
00318C60
00318C60
00318C60
01CE7380
01CE7380
07FFFFE0
06318C60
06318C60
39C00000
39C00000
FFC00000
C6000000
C6000000
38000000
38000000
FE318C00
C6318C00
C6318C00
39CE7000
39CE7000
FFFFFC00
C6318C00
C6318C00
38000000
38000000
FE000000
C6000000
C6000000
39C00000
39C00000
3FF18C60
06318C60
06318C60
01CE7380
01CE7380
01FFFFE0
00318C60
00318C60
ENDCHAR
STARTCHAR 0046
ENCODING 70
SWIDTH 700 0
DWIDTH 35 0
BBX 27 38 4 0
BITMAP
00318C60
00318C60
00318C60
01CE7380
01CE7380
07FFFFE0
06318C60
06318C60
39C00000
39C00000
FFC00000
C6000000
C6000000
38000000
38000000
FE318C00
C6318C00
C6318C00
39CE7000
39CE7000
FFFFFC00
C6318C00
C6318C00
38000000
38000000
FE000000
C6000000
C6000000
38000000
38000000
FE000000
C6000000
C6000000
38000000
38000000
FE000000
C6000000
C6000000
ENDCHAR
STARTCHAR 0047
ENCODING 71
SWIDTH 800 0
DWIDTH 40 0
BBX 32 38 4 0
BITMAP
00318C63
00318C63
00318C63
01CE739C
01CE739C
07FFFFFF
06318C63
06318C63
39C00000
39C00000
FFC00000
C6000000
C6000000
38000000
38000000
FE018C63
C6018C63
C6018C63
3800739C
3800739C
FE01FFFF
C6018C63
C6018C63
3800001C
3800001C
FE00007F
C6000063
C6000063
39C0001C
39C0001C
3FF18C7F
06318C63
06318C63
01CE739C
01CE739C
01FFFFFF
00318C63
00318C63
ENDCHAR
STARTCHAR 0048
ENCODING 72
SWIDTH 800 0
DWIDTH 40 0
BBX 32 38 4 0
BITMAP
C6000063
C6000063
C6000063
3800001C
3800001C
FE00007F
C6000063
C6000063
3800001C
3800001C
FE00007F
C6000063
C6000063
3800001C
3800001C
FE318C7F
C6318C63
C6318C63
39CE739C
39CE739C
FFFFFFFF
C6318C63
C6318C63
3800001C
3800001C
FE00007F
C6000063
C6000063
3800001C
3800001C
FE00007F
C6000063
C6000063
3800001C
3800001C
FE00007F
C6000063
C6000063
ENDCHAR
STARTCHAR 0049
ENCODING 73
SWIDTH 500 0
DWIDTH 25 0
BBX 17 38 4 0
BITMAP
C63180
C63180
C63180
39CE00
39CE00
FFFF80
C63180
C63180
01C000
01C000
07F000
063000
063000
01C000
01C000
07F000
063000
063000
01C000
01C000
07F000
063000
063000
01C000
01C000
07F000
063000
063000
01C000
01C000
C7F180
C63180
C63180
39CE00
39CE00
FFFF80
C63180
C63180
ENDCHAR
STARTCHAR 004A
ENCODING 74
SWIDTH 600 0
DWIDTH 30 0
BBX 22 38 4 0
BITMAP
C6318C
C6318C
C6318C
39CE70
39CE70
FFFFFC
C6318C
C6318C
000070
000070
0001FC
00018C
00018C
000070
000070
0001FC
00018C
00018C
000070
000070
0001FC
00018C
00018C
000070
000070
0001FC
00018C
00018C
000E70
000E70
C63FF0
C63180
C63180
39CE00
39CE00
FFFE00
C63000
C63000
ENDCHAR
STARTCHAR 004B
ENCODING 75
SWIDTH 700 0
DWIDTH 35 0
BBX 27 38 4 0
BITMAP
C6000C60
C6000C60
C6000C60
38000380
38000380
FE000FE0
C6000C60
C6000C60
38007380
38007380
FE01FF80
C6018C00
C6018C00
380E7000
380E7000
FE3FF000
C6318000
C6318000
39CE0000
39CE0000
FFFF8000
C6318000
C6318000
380E7000
380E7000
FE0FFC00
C6018C00
C6018C00
38007380
38007380
FE007FE0
C6000C60
C6000C60
38000380
38000380
FE000FE0
C6000C60
C6000C60
ENDCHAR
STARTCHAR 004C
ENCODING 76
SWIDTH 700 0
DWIDTH 35 0
BBX 27 38 4 0
BITMAP
C6000000
C6000000
C6000000
38000000
38000000
FE000000
C6000000
C6000000
38000000
38000000
FE000000
C6000000
C6000000
38000000
38000000
FE000000
C6000000
C6000000
38000000
38000000
FE000000
C6000000
C6000000
38000000
38000000
FE000000
C6000000
C6000000
38000000
38000000
FE318C60
C6318C60
C6318C60
39CE7380
39CE7380
3FFFFFE0
06318C60
06318C60
ENDCHAR
STARTCHAR 004D
ENCODING 77
SWIDTH 1000 0
DWIDTH 50 0
BBX 42 38 4 0
BITMAP
C600000018C0
C600000018C0
C600000018C0
39C00000E700
39C00000E700
FFF00003FFC0
C630000318C0
C630000318C0
39CE001CE700
39CE001CE700
FFFF807FFFC0
C631806318C0
C631806318C0
380E739C0700
380E739C0700
FE0FFFFC1FC0
C6018C6018C0
C6018C6018C0
380073800700
380073800700
FE007F801FC0
C6000C0018C0
C6000C0018C0
380000000700
380000000700
FE0000001FC0
C600000018C0
C600000018C0
380000000700
380000000700
FE0000001FC0
C600000018C0
C600000018C0
380000000700
380000000700
FE0000001FC0
C600000018C0
C600000018C0
ENDCHAR
STARTCHAR 004E
ENCODING 78
SWIDTH 800 0
DWIDTH 40 0
BBX 32 38 4 0
BITMAP
C6000063
C6000063
C6000063
39C0001C
39C0001C
FFF0007F
C6300063
C6300063
39CE001C
39CE001C
FFFF807F
C6318063
C6318063
380E701C
380E701C
FE0FFC7F
C6018C63
C6018C63
3800739C
3800739C
FE007FFF
C6000C63
C6000C63
3800039C
3800039C
FE0003FF
C6000063
C6000063
3800001C
3800001C
FE00007F
C6000063
C6000063
3800001C
3800001C
FE00007F
C6000063
C6000063
ENDCHAR
STARTCHAR 004F
ENCODING 79
SWIDTH 800 0
DWIDTH 40 0
BBX 32 38 4 0
BITMAP
00318C00
00318C00
00318C00
01CE7380
01CE7380
07FFFFE0
06318C60
06318C60
39C0039C
39C0039C
FFC003FF
C6000063
C6000063
3800001C
3800001C
FE00007F
C6000063
C6000063
3800001C
3800001C
FE00007F
C6000063
C6000063
3800001C
3800001C
FE00007F
C6000063
C6000063
39C0039C
39C0039C
3FF18FFC
06318C60
06318C60
01CE7380
01CE7380
01FFFF80
00318C00
00318C00
ENDCHAR
STARTCHAR 0050
ENCODING 80
SWIDTH 700 0
DWIDTH 35 0
BBX 27 38 4 0
BITMAP
C6318000
C6318000
C6318000
39CE7000
39CE7000
FFFFFC00
C6318C00
C6318C00
38007380
38007380
FE007FE0
C6000C60
C6000C60
38000380
38000380
FE000FE0
C6000C60
C6000C60
38000380
38000380
FE000FE0
C6000C60
C6000C60
38007380
38007380
FE31FF80
C6318C00
C6318C00
39CE7000
39CE7000
FFFFF000
C6318000
C6318000
38000000
38000000
FE000000
C6000000
C6000000
ENDCHAR
STARTCHAR 0051
ENCODING 81
SWIDTH 800 0
DWIDTH 40 0
BBX 32 43 4 -5
BITMAP
00318C00
00318C00
00318C00
01CE7380
01CE7380
07FFFFE0
06318C60
06318C60
39C0039C
39C0039C
FFC003FF
C6000063
C6000063
3800001C
3800001C
FE00007F
C6000063
C6000063
3800001C
3800001C
FE00007F
C6000063
C6000063
3800001C
3800001C
FE00007F
C6000063
C6000063
39C0039C
39C0039C
3FF18FFC
06318C60
06318C60
01CE7380
01CE7380
01FFFF80
00318C00
00318C00
00007380
00007380
00007FE0
00000C60
00000C60
ENDCHAR
STARTCHAR 0052
ENCODING 82
SWIDTH 700 0
DWIDTH 35 0
BBX 27 38 4 0
BITMAP
C6318000
C6318000
C6318000
39CE7000
39CE7000
FFFFFC00
C6318C00
C6318C00
38007380
38007380
FE007FE0
C6000C60
C6000C60
38000380
38000380
FE000FE0
C6000C60
C6000C60
38000380
38000380
FE000FE0
C6000C60
C6000C60
38007380
38007380
FE31FF80
C6318C00
C6318C00
39CE7000
39CE7000
FFFFFC00
C6318C00
C6318C00
38007380
38007380
FE007FE0
C6000C60
C6000C60
ENDCHAR
STARTCHAR 0053
ENCODING 83
SWIDTH 700 0
DWIDTH 35 0
BBX 27 38 4 0
BITMAP
06318C00
06318C00
06318C00
39CE7380
39CE7380
FFFFFFE0
C6318C60
C6318C60
38000380
38000380
FE000FE0
C6000C60
C6000C60
38000000
38000000
FE318C00
C6318C00
C6318C00
39CE7380
39CE7380
3FFFFFE0
06318C60
06318C60
00000380
00000380
C6000FE0
C6000C60
C6000C60
38000380
38000380
FE318FE0
C6318C60
C6318C60
39CE7380
39CE7380
3FFFFF80
06318C00
06318C00
ENDCHAR
STARTCHAR 0054
ENCODING 84
SWIDTH 700 0
DWIDTH 35 0
BBX 27 38 4 0
BITMAP
C6318C60
C6318C60
C6318C60
39CE7380
39CE7380
FFFFFFE0
C6318C60
C6318C60
000E0000
000E0000
003F8000
00318000
00318000
000E0000
000E0000
003F8000
00318000
00318000
000E0000
000E0000
003F8000
00318000
00318000
000E0000
000E0000
003F8000
00318000
00318000
000E0000
000E0000
003F8000
00318000
00318000
000E0000
000E0000
003F8000
00318000
00318000
ENDCHAR
STARTCHAR 0055
ENCODING 85
SWIDTH 800 0
DWIDTH 40 0
BBX 32 38 4 0
BITMAP
C6000063
C6000063
C6000063
3800001C
3800001C
FE00007F
C6000063
C6000063
3800001C
3800001C
FE00007F
C6000063
C6000063
3800001C
3800001C
FE00007F
C6000063
C6000063
3800001C
3800001C
FE00007F
C6000063
C6000063
3800001C
3800001C
FE00007F
C6000063
C6000063
39C0039C
39C0039C
3FF18FFC
06318C60
06318C60
01CE7380
01CE7380
01FFFF80
00318C00
00318C00
ENDCHAR
STARTCHAR 0056
ENCODING 86
SWIDTH 700 0
DWIDTH 35 0
BBX 27 38 4 0
BITMAP
C6000C60
C6000C60
C6000C60
38000380
38000380
FE000FE0
C6000C60
C6000C60
38000380
38000380
FE000FE0
C6000C60
C6000C60
38000380
38000380
FE000FE0
C6000C60
C6000C60
38000380
38000380
FE000FE0
C6000C60
C6000C60
38000380
38000380
FE000FE0
C6000C60
C6000C60
39C07380
39C07380
3FF1FF80
06318C00
06318C00
01CE7000
01CE7000
01FFF000
00318000
00318000
ENDCHAR
STARTCHAR 0057
ENCODING 87
SWIDTH 1100 0
DWIDTH 55 0
BBX 47 38 4 0
BITMAP
C6000C6000C6
C6000C6000C6
C6000C6000C6
380003800038
380003800038
FE000FE000FE
C6000C6000C6
C6000C6000C6
380003800038
380003800038
FE000FE000FE
C6000C6000C6
C6000C6000C6
380003800038
380003800038
FE000FE000FE
C6000C6000C6
C6000C6000C6
380003800038
380003800038
FE000FE000FE
C6000C6000C6
C6000C6000C6
380003800038
380003800038
FE000FE000FE
C6000C6000C6
C6000C6000C6
39C0739C0738
39C0739C0738
3FF1FFFF1FF8
06318C6318C0
06318C6318C0
01CE701CE700
01CE701CE700
01FFF01FFF00
003180031800
003180031800
ENDCHAR
STARTCHAR 0058
ENCODING 88
SWIDTH 800 0
DWIDTH 40 0
BBX 32 38 4 0
BITMAP
C6000063
C6000063
C6000063
3800001C
3800001C
FE00007F
C6000063
C6000063
3800001C
3800001C
FE00007F
C6000063
C6000063
39C0039C
39C0039C
3FF18FFC
06318C60
06318C60
01CE7380
01CE7380
07FFFFE0
06318C60
06318C60
39C0039C
39C0039C
FFC003FF
C6000063
C6000063
3800001C
3800001C
FE00007F
C6000063
C6000063
3800001C
3800001C
FE00007F
C6000063
C6000063
ENDCHAR
STARTCHAR 0059
ENCODING 89
SWIDTH 700 0
DWIDTH 35 0
BBX 27 38 4 0
BITMAP
C6000C60
C6000C60
C6000C60
38000380
38000380
FE000FE0
C6000C60
C6000C60
38000380
38000380
FE000FE0
C6000C60
C6000C60
38000380
38000380
FE000FE0
C6000C60
C6000C60
39C07380
39C07380
3FF1FF80
06318C00
06318C00
01CE7000
01CE7000
01FFF000
00318000
00318000
000E0000
000E0000
003F8000
00318000
00318000
000E0000
000E0000
003F8000
00318000
00318000
ENDCHAR
STARTCHAR 005A
ENCODING 90
SWIDTH 700 0
DWIDTH 35 0
BBX 27 38 4 0
BITMAP
C6318C60
C6318C60
C6318C60
39CE7380
39CE7380
FFFFFFE0
C6318C60
C6318C60
00007380
00007380
0001FF80
00018C00
00018C00
000E7000
000E7000
003FF000
00318000
00318000
01CE0000
01CE0000
07FE0000
06300000
06300000
39C00000
39C00000
FFC00000
C6000000
C6000000
38000000
38000000
FE318C60
C6318C60
C6318C60
39CE7380
39CE7380
FFFFFFE0
C6318C60
C6318C60
ENDCHAR
STARTCHAR 005B
ENCODING 91
SWIDTH 340 0
DWIDTH 17 0
BBX 12 58 4 -10
BITMAP
C630
C630
C630
39C0
39C0
FFF0
C630
C630
3800
3800
FE00
C600
C600
3800
3800
FE00
C600
C600
3800
3800
FE00
C600
C600
3800
3800
FE00
C600
C600
3800
3800
FE00
C600
C600
3800
3800
FE00
C600
C600
3800
3800
FE00
C600
C600
3800
3800
FE00
C600
C600
3800
3800
FE30
C630
C630
39C0
39C0
FFF0
C630
C630
ENDCHAR
STARTCHAR 005C
ENCODING 92
SWIDTH 400 0
DWIDTH 20 0
BBX 18 38 1 0
BITMAP
E70000
E70000
E70000
180000
180000
FF0000
E70000
E70000
18C000
18C000
1FC000
070000
070000
18C000
18C000
1FF800
073800
073800
00C000
00C000
07F800
073800
073800
00C600
00C600
00FE00
003800
003800
00C600
00C600
00FFC0
0039C0
0039C0
000600
000600
003FC0
0039C0
0039C0
ENDCHAR
STARTCHAR 005D
ENCODING 93
SWIDTH 340 0
DWIDTH 17 0
BBX 13 58 1 -10
BITMAP
E738
E738
E738
18C0
18C0
FFF8
E738
E738
00C0
00C0
07F8
0738
0738
00C0
00C0
07F8
0738
0738
00C0
00C0
07F8
0738
0738
00C0
00C0
07F8
0738
0738
00C0
00C0
07F8
0738
0738
00C0
00C0
07F8
0738
0738
00C0
00C0
07F8
0738
0738
00C0
00C0
07F8
0738
0738
00C0
00C0
E7F8
E738
E738
18C0
18C0
FFF8
E738
E738
ENDCHAR
STARTCHAR 005F
ENCODING 95
SWIDTH 800 0
DWIDTH 40 0
BBX 38 8 1 -5
BITMAP
E739CE739C
E739CE739C
E739CE739C
18C6318C60
18C6318C60
FFFFFFFFFC
E739CE739C
E739CE739C
ENDCHAR
STARTCHAR 0060
ENCODING 96
SWIDTH 340 0
DWIDTH 17 0
BBX 18 13 -4 40
BITMAP
E70000
E70000
E70000
18C000
18C000
1FF800
073800
073800
00C600
00C600
00FFC0
0039C0
0039C0
ENDCHAR
STARTCHAR 0061
ENCODING 97
SWIDTH 700 0
DWIDTH 35 0
BBX 27 38 4 0
BITMAP
06318C00
06318C00
06318C00
39CE7380
39CE7380
FFFFFFE0
C6318C60
C6318C60
38000380
38000380
FE000FE0
C6000C60
C6000C60
38000380
38000380
FE000FE0
C6000C60
C6000C60
38000380
38000380
FE318FE0
C6318C60
C6318C60
39CE7380
39CE7380
FFFFFFE0
C6318C60
C6318C60
38000380
38000380
FE000FE0
C6000C60
C6000C60
38000380
38000380
FE000FE0
C6000C60
C6000C60
ENDCHAR
STARTCHAR 0062
ENCODING 98
SWIDTH 700 0
DWIDTH 35 0
BBX 27 38 4 0
BITMAP
C6318C00
C6318C00
C6318C00
39CE7380
39CE7380
FFFFFFE0
C6318C60
C6318C60
38000380
38000380
FE000FE0
C6000C60
C6000C60
38007380
38007380
FE31FF80
C6318C00
C6318C00
39CE7000
39CE7000
FFFFFC00
C6318C00
C6318C00
38007380
38007380
FE007FE0
C6000C60
C6000C60
38000380
38000380
FE318FE0
C6318C60
C6318C60
39CE7380
39CE7380
FFFFFF80
C6318C00
C6318C00
ENDCHAR
STARTCHAR 0063
ENCODING 99
SWIDTH 700 0
DWIDTH 35 0
BBX 27 38 4 0
BITMAP
06318C00
06318C00
06318C00
39CE7380
39CE7380
FFFFFFE0
C6318C60
C6318C60
38000380
38000380
FE000FE0
C6000C60
C6000C60
38000380
38000380
FE000FE0
C6000C60
C6000C60
38000000
38000000
FE000000
C6000000
C6000000
38000000
38000000
FE000C60
C6000C60
C6000C60
38000380
38000380
FE318FE0
C6318C60
C6318C60
39CE7380
39CE7380
3FFFFF80
06318C00
06318C00
ENDCHAR
STARTCHAR 0064
ENCODING 100
SWIDTH 700 0
DWIDTH 35 0
BBX 27 38 4 0
BITMAP
C6318C00
C6318C00
C6318C00
39CE7380
39CE7380
FFFFFFE0
C6318C60
C6318C60
38000380
38000380
FE000FE0
C6000C60
C6000C60
38000380
38000380
FE000FE0
C6000C60
C6000C60
38000380
38000380
FE000FE0
C6000C60
C6000C60
38000380
38000380
FE000FE0
C6000C60
C6000C60
38000380
38000380
FE318FE0
C6318C60
C6318C60
39CE7380
39CE7380
FFFFFF80
C6318C00
C6318C00
ENDCHAR
STARTCHAR 0065
ENCODING 101
SWIDTH 700 0
DWIDTH 35 0
BBX 27 38 4 0
BITMAP
06318C60
06318C60
06318C60
39CE7380
39CE7380
FFFFFFE0
C6318C60
C6318C60
38000000
38000000
FE000000
C6000000
C6000000
38000000
38000000
FE318C00
C6318C00
C6318C00
39CE7000
39CE7000
FFFFFC00
C6318C00
C6318C00
38000000
38000000
FE000000
C6000000
C6000000
38000000
38000000
FE318C60
C6318C60
C6318C60
39CE7380
39CE7380
3FFFFFE0
06318C60
06318C60
ENDCHAR
STARTCHAR 0066
ENCODING 102
SWIDTH 700 0
DWIDTH 35 0
BBX 27 38 4 0
BITMAP
06318C60
06318C60
06318C60
39CE7380
39CE7380
FFFFFFE0
C6318C60
C6318C60
38000000
38000000
FE000000
C6000000
C6000000
38000000
38000000
FE318C00
C6318C00
C6318C00
39CE7000
39CE7000
FFFFFC00
C6318C00
C6318C00
38000000
38000000
FE000000
C6000000
C6000000
38000000
38000000
FE000000
C6000000
C6000000
38000000
38000000
FE000000
C6000000
C6000000
ENDCHAR
STARTCHAR 0067
ENCODING 103
SWIDTH 700 0
DWIDTH 35 0
BBX 27 38 4 0
BITMAP
06318C60
06318C60
06318C60
39CE7380
39CE7380
FFFFFFE0
C6318C60
C6318C60
38000000
38000000
FE000000
C6000000
C6000000
38000000
38000000
FE018C60
C6018C60
C6018C60
38007380
38007380
FE01FFE0
C6018C60
C6018C60
38000380
38000380
FE000FE0
C6000C60
C6000C60
38000380
38000380
FE318FE0
C6318C60
C6318C60
39CE7380
39CE7380
3FFFFF80
06318C00
06318C00
ENDCHAR
STARTCHAR 0068
ENCODING 104
SWIDTH 700 0
DWIDTH 35 0
BBX 27 38 4 0
BITMAP
C6000C60
C6000C60
C6000C60
38000380
38000380
FE000FE0
C6000C60
C6000C60
38000380
38000380
FE000FE0
C6000C60
C6000C60
38000380
38000380
FE318FE0
C6318C60
C6318C60
39CE7380
39CE7380
FFFFFFE0
C6318C60
C6318C60
38000380
38000380
FE000FE0
C6000C60
C6000C60
38000380
38000380
FE000FE0
C6000C60
C6000C60
38000380
38000380
FE000FE0
C6000C60
C6000C60
ENDCHAR
STARTCHAR 0069
ENCODING 105
SWIDTH 300 0
DWIDTH 15 0
BBX 7 38 4 0
BITMAP
C6
C6
C6
38
38
FE
C6
C6
38
38
FE
C6
C6
38
38
FE
C6
C6
38
38
FE
C6
C6
38
38
FE
C6
C6
38
38
FE
C6
C6
38
38
FE
C6
C6
ENDCHAR
STARTCHAR 006A
ENCODING 106
SWIDTH 500 0
DWIDTH 25 0
BBX 17 38 4 0
BITMAP
003180
003180
003180
000E00
000E00
003F80
003180
003180
000E00
000E00
003F80
003180
003180
000E00
000E00
003F80
003180
003180
000E00
000E00
003F80
003180
003180
000E00
000E00
003F80
003180
003180
000E00
000E00
C63F80
C63180
C63180
39CE00
39CE00
FFFE00
C63000
C63000
ENDCHAR
STARTCHAR 006B
ENCODING 107
SWIDTH 700 0
DWIDTH 35 0
BBX 27 38 4 0
BITMAP
C6000C60
C6000C60
C6000C60
38000380
38000380
FE000FE0
C6000C60
C6000C60
38000380
38000380
FE000FE0
C6000C60
C6000C60
38007380
38007380
FE31FF80
C6318C00
C6318C00
39CE7000
39CE7000
FFFFFC00
C6318C00
C6318C00
38007380
38007380
FE007FE0
C6000C60
C6000C60
38000380
38000380
FE000FE0
C6000C60
C6000C60
38000380
38000380
FE000FE0
C6000C60
C6000C60
ENDCHAR
STARTCHAR 006C
ENCODING 108
SWIDTH 600 0
DWIDTH 30 0
BBX 22 38 4 0
BITMAP
C60000
C60000
C60000
380000
380000
FE0000
C60000
C60000
380000
380000
FE0000
C60000
C60000
380000
380000
FE0000
C60000
C60000
380000
380000
FE0000
C60000
C60000
380000
380000
FE0000
C60000
C60000
380000
380000
FE318C
C6318C
C6318C
39CE70
39CE70
3FFFFC
06318C
06318C
ENDCHAR
STARTCHAR 006D
ENCODING 109
SWIDTH 900 0
DWIDTH 45 0
BBX 37 38 4 0
BITMAP
C600000318
C600000318
C600000318
39C0001CE0
39C0001CE0
FFF0007FF8
C630006318
C630006318
39CE039CE0
39CE039CE0
FFFF8FFFF8
C6318C6318
C6318C6318
380E7380E0
380E7380E0
FE0FFF83F8
C6018C0318
C6018C0318
38007000E0
38007000E0
FE007003F8
C600000318
C600000318
38000000E0
38000000E0
FE000003F8
C600000318
C600000318
38000000E0
38000000E0
FE000003F8
C600000318
C600000318
38000000E0
38000000E0
FE000003F8
C600000318
C600000318
ENDCHAR
STARTCHAR 006E
ENCODING 110
SWIDTH 700 0
DWIDTH 35 0
BBX 27 38 4 0
BITMAP
C6000C60
C6000C60
C6000C60
39C00380
39C00380
FFF00FE0
C6300C60
C6300C60
39CE0380
39CE0380
FFFF8FE0
C6318C60
C6318C60
380E7380
380E7380
FE0FFFE0
C6018C60
C6018C60
38007380
38007380
FE007FE0
C6000C60
C6000C60
38000380
38000380
FE000FE0
C6000C60
C6000C60
38000380
38000380
FE000FE0
C6000C60
C6000C60
38000380
38000380
FE000FE0
C6000C60
C6000C60
ENDCHAR
STARTCHAR 006F
ENCODING 111
SWIDTH 700 0
DWIDTH 35 0
BBX 27 38 4 0
BITMAP
06318C00
06318C00
06318C00
39CE7380
39CE7380
FFFFFFE0
C6318C60
C6318C60
38000380
38000380
FE000FE0
C6000C60
C6000C60
38000380
38000380
FE000FE0
C6000C60
C6000C60
38000380
38000380
FE000FE0
C6000C60
C6000C60
38000380
38000380
FE000FE0
C6000C60
C6000C60
38000380
38000380
FE318FE0
C6318C60
C6318C60
39CE7380
39CE7380
3FFFFF80
06318C00
06318C00
ENDCHAR
STARTCHAR 0070
ENCODING 112
SWIDTH 700 0
DWIDTH 35 0
BBX 27 38 4 0
BITMAP
C6318C00
C6318C00
C6318C00
39CE7380
39CE7380
FFFFFFE0
C6318C60
C6318C60
38000380
38000380
FE000FE0
C6000C60
C6000C60
38000380
38000380
FE000FE0
C6000C60
C6000C60
38000380
38000380
FE318FE0
C6318C60
C6318C60
39CE7380
39CE7380
FFFFFF80
C6318C00
C6318C00
38000000
38000000
FE000000
C6000000
C6000000
38000000
38000000
FE000000
C6000000
C6000000
ENDCHAR
STARTCHAR 0071
ENCODING 113
SWIDTH 700 0
DWIDTH 35 0
BBX 27 43 4 -5
BITMAP
06318C00
06318C00
06318C00
39CE7380
39CE7380
FFFFFFE0
C6318C60
C6318C60
38000380
38000380
FE000FE0
C6000C60
C6000C60
38000380
38000380
FE000FE0
C6000C60
C6000C60
38000380
38000380
FE000FE0
C6000C60
C6000C60
38000380
38000380
FE000FE0
C6000C60
C6000C60
38000380
38000380
FE318FE0
C6318C60
C6318C60
39CE7380
39CE7380
3FFFFF80
06318C00
06318C00
00007380
00007380
00007FE0
00000C60
00000C60
ENDCHAR
STARTCHAR 0072
ENCODING 114
SWIDTH 700 0
DWIDTH 35 0
BBX 27 38 4 0
BITMAP
C6318C00
C6318C00
C6318C00
39CE7380
39CE7380
FFFFFFE0
C6318C60
C6318C60
38000380
38000380
FE000FE0
C6000C60
C6000C60
38000380
38000380
FE000FE0
C6000C60
C6000C60
38000380
38000380
FE318FE0
C6318C60
C6318C60
39CE7380
39CE7380
FFFFFF80
C6318C00
C6318C00
38007380
38007380
FE007FE0
C6000C60
C6000C60
38000380
38000380
FE000FE0
C6000C60
C6000C60
ENDCHAR
STARTCHAR 0073
ENCODING 115
SWIDTH 700 0
DWIDTH 35 0
BBX 27 38 4 0
BITMAP
06318C00
06318C00
06318C00
39CE7380
39CE7380
FFFFFFE0
C6318C60
C6318C60
38000380
38000380
FE000FE0
C6000C60
C6000C60
38000000
38000000
FE318C00
C6318C00
C6318C00
39CE7380
39CE7380
3FFFFFE0
06318C60
06318C60
00000380
00000380
C6000FE0
C6000C60
C6000C60
38000380
38000380
FE318FE0
C6318C60
C6318C60
39CE7380
39CE7380
3FFFFF80
06318C00
06318C00
ENDCHAR
STARTCHAR 0074
ENCODING 116
SWIDTH 700 0
DWIDTH 35 0
BBX 27 38 4 0
BITMAP
C6318C60
C6318C60
C6318C60
39CE7380
39CE7380
FFFFFFE0
C6318C60
C6318C60
000E0000
000E0000
003F8000
00318000
00318000
000E0000
000E0000
003F8000
00318000
00318000
000E0000
000E0000
003F8000
00318000
00318000
000E0000
000E0000
003F8000
00318000
00318000
000E0000
000E0000
003F8000
00318000
00318000
000E0000
000E0000
003F8000
00318000
00318000
ENDCHAR
STARTCHAR 0075
ENCODING 117
SWIDTH 700 0
DWIDTH 35 0
BBX 27 38 4 0
BITMAP
C6000C60
C6000C60
C6000C60
38000380
38000380
FE000FE0
C6000C60
C6000C60
38000380
38000380
FE000FE0
C6000C60
C6000C60
38000380
38000380
FE000FE0
C6000C60
C6000C60
38000380
38000380
FE000FE0
C6000C60
C6000C60
38000380
38000380
FE000FE0
C6000C60
C6000C60
38000380
38000380
FE318FE0
C6318C60
C6318C60
39CE7380
39CE7380
3FFFFF80
06318C00
06318C00
ENDCHAR
STARTCHAR 0076
ENCODING 118
SWIDTH 700 0
DWIDTH 35 0
BBX 27 38 4 0
BITMAP
C6000C60
C6000C60
C6000C60
38000380
38000380
FE000FE0
C6000C60
C6000C60
38000380
38000380
FE000FE0
C6000C60
C6000C60
38000380
38000380
FE000FE0
C6000C60
C6000C60
38000380
38000380
FE000FE0
C6000C60
C6000C60
38000380
38000380
FE000FE0
C6000C60
C6000C60
39C07380
39C07380
3FF1FF80
06318C00
06318C00
01CE7000
01CE7000
01FFF000
00318000
00318000
ENDCHAR
STARTCHAR 0077
ENCODING 119
SWIDTH 1100 0
DWIDTH 55 0
BBX 47 38 4 0
BITMAP
C6000C6000C6
C6000C6000C6
C6000C6000C6
380003800038
380003800038
FE000FE000FE
C6000C6000C6
C6000C6000C6
380003800038
380003800038
FE000FE000FE
C6000C6000C6
C6000C6000C6
380003800038
380003800038
FE000FE000FE
C6000C6000C6
C6000C6000C6
380003800038
380003800038
FE000FE000FE
C6000C6000C6
C6000C6000C6
380003800038
380003800038
FE000FE000FE
C6000C6000C6
C6000C6000C6
3800739C0038
3800739C0038
FE31FFFF18FE
C6318C6318C6
C6318C6318C6
39CE701CE738
39CE701CE738
3FFFF01FFFF8
0631800318C0
0631800318C0
ENDCHAR
STARTCHAR 0078
ENCODING 120
SWIDTH 700 0
DWIDTH 35 0
BBX 27 38 4 0
BITMAP
C6000C60
C6000C60
C6000C60
38000380
38000380
FE000FE0
C6000C60
C6000C60
38000380
38000380
FE000FE0
C6000C60
C6000C60
39C07380
39C07380
3FF1FF80
06318C00
06318C00
01CE7000
01CE7000
07FFFC00
06318C00
06318C00
39C07380
39C07380
FFC07FE0
C6000C60
C6000C60
38000380
38000380
FE000FE0
C6000C60
C6000C60
38000380
38000380
FE000FE0
C6000C60
C6000C60
ENDCHAR
STARTCHAR 0079
ENCODING 121
SWIDTH 700 0
DWIDTH 35 0
BBX 27 38 4 0
BITMAP
C6000C60
C6000C60
C6000C60
38000380
38000380
FE000FE0
C6000C60
C6000C60
38000380
38000380
FE000FE0
C6000C60
C6000C60
38000380
38000380
FE000FE0
C6000C60
C6000C60
38000380
38000380
FE318FE0
C6318C60
C6318C60
39CE7380
39CE7380
3FFFFF80
06318C00
06318C00
000E0000
000E0000
003F8000
00318000
00318000
000E0000
000E0000
003F8000
00318000
00318000
ENDCHAR
STARTCHAR 007A
ENCODING 122
SWIDTH 700 0
DWIDTH 35 0
BBX 27 38 4 0
BITMAP
C6318C60
C6318C60
C6318C60
39CE7380
39CE7380
FFFFFFE0
C6318C60
C6318C60
00000380
00000380
00000FE0
00000C60
00000C60
00000380
00000380
06318FE0
06318C60
06318C60
39CE7380
39CE7380
FFFFFF80
C6318C00
C6318C00
38000000
38000000
FE000000
C6000000
C6000000
38000000
38000000
FE318C60
C6318C60
C6318C60
39CE7380
39CE7380
FFFFFFE0
C6318C60
C6318C60
ENDCHAR
STARTCHAR 007B
ENCODING 123
SWIDTH 400 0
DWIDTH 20 0
BBX 20 58 1 -10
BITMAP
000630
000630
000630
0039C0
0039C0
00FFC0
00C600
00C600
003800
003800
00FE00
00C600
00C600
003800
003800
00FE00
00C600
00C600
003800
003800
00FE00
00C600
00C600
073800
073800
1FF800
18C000
18C000
E70000
E70000
FFC000
18C000
18C000
073800
073800
07FE00
00C600
00C600
003800
003800
00FE00
00C600
00C600
003800
003800
00FE00
00C600
00C600
003800
003800
00FE00
00C600
00C600
0039C0
0039C0
003FF0
000630
000630
ENDCHAR
STARTCHAR 007C
ENCODING 124
SWIDTH 300 0
DWIDTH 15 0
BBX 7 48 4 -5
BITMAP
C6
C6
C6
38
38
FE
C6
C6
38
38
FE
C6
C6
38
38
FE
C6
C6
38
38
FE
C6
C6
38
38
FE
C6
C6
38
38
FE
C6
C6
38
38
FE
C6
C6
38
38
FE
C6
C6
38
38
FE
C6
C6
ENDCHAR
STARTCHAR 007D
ENCODING 125
SWIDTH 400 0
DWIDTH 20 0
BBX 20 58 -1 -10
BITMAP
C60000
C60000
C60000
39C000
39C000
3FF000
063000
063000
01C000
01C000
07F000
063000
063000
01C000
01C000
07F000
063000
063000
01C000
01C000
07F000
063000
063000
01CE00
01CE00
01FF80
003180
003180
000E70
000E70
003FF0
003180
003180
01CE00
01CE00
07FE00
063000
063000
01C000
01C000
07F000
063000
063000
01C000
01C000
07F000
063000
063000
01C000
01C000
07F000
063000
063000
39C000
39C000
FFC000
C60000
C60000
ENDCHAR
STARTCHAR 00A1
ENCODING 161
SWIDTH 300 0
DWIDTH 15 0
BBX 7 38 4 0
BITMAP
C6
C6
C6
38
38
FE
C6
C6
00
00
00
00
00
38
38
FE
C6
C6
38
38
FE
C6
C6
38
38
FE
C6
C6
38
38
FE
C6
C6
38
38
FE
C6
C6
ENDCHAR
STARTCHAR 00A2
ENCODING 162
SWIDTH 700 0
DWIDTH 35 0
BBX 27 48 4 -5
BITMAP
00318000
00318000
00318000
000E0000
000E0000
063F8C00
06318C00
06318C00
39CE7380
39CE7380
FFFFFFE0
C6318C60
C6318C60
38000380
38000380
FE000FE0
C6000C60
C6000C60
38000380
38000380
FE000FE0
C6000C60
C6000C60
38000000
38000000
FE000000
C6000000
C6000000
38000000
38000000
FE000C60
C6000C60
C6000C60
38000380
38000380
FE318FE0
C6318C60
C6318C60
39CE7380
39CE7380
3FFFFF80
06318C00
06318C00
000E0000
000E0000
003F8000
00318000
00318000
ENDCHAR
STARTCHAR 00A3
ENCODING 163
SWIDTH 700 0
DWIDTH 35 0
BBX 27 43 4 0
BITMAP
00318C00
00318C00
00318C00
01CE7380
01CE7380
07FFFFE0
06318C60
06318C60
01C00380
01C00380
07F00FE0
06300C60
06300C60
01C00000
01C00000
07F00000
06300000
06300000
01C00000
01C00000
C7F18C00
C6318C00
C6318C00
39CE7000
39CE7000
FFFFFC00
C6318C00
C6318C00
01C00000
01C00000
07F00000
06300000
06300000
01C00000
01C00000
C7F18C60
C6318C60
C6318C60
39CE7380
39CE7380
FFFFFFE0
C6318C60
C6318C60
ENDCHAR
STARTCHAR 00A4
ENCODING 164
SWIDTH 800 0
DWIDTH 40 0
BBX 32 33 4 10
BITMAP
06300000
06300000
06300000
01C00000
01C00000
07F18C63
06318C63
06318C63
01CE739C
01CE739C
07FFFFFF
06318C63
06318C63
01C00380
01C00380
07F00FE0
06300C60
06300C60
01C00380
01C00380
C7F18FE0
C6318C60
C6318C60
39CE7380
39CE7380
FFFFFFE0
C6318C60
C6318C60
00000380
00000380
00000FE0
00000C60
00000C60
ENDCHAR
STARTCHAR 00A5
ENCODING 165
SWIDTH 700 0
DWIDTH 35 0
BBX 27 53 4 -5
BITMAP
C6000C60
C6000C60
C6000C60
38000380
38000380
FE000FE0
C6000C60
C6000C60
38000380
38000380
FE000FE0
C6000C60
C6000C60
39C07380
39C07380
3FF1FF80
06318C00
06318C00
01CE7000
01CE7000
01FFF000
00318000
00318000
000E0000
000E0000
C63F8C60
C6318C60
C6318C60
39CE7380
39CE7380
FFFFFFE0
C6318C60
C6318C60
000E0000
000E0000
003F8000
00318000
00318000
000E0000
000E0000
C63F8C60
C6318C60
C6318C60
39CE7380
39CE7380
FFFFFFE0
C6318C60
C6318C60
000E0000
000E0000
003F8000
00318000
00318000
ENDCHAR
STARTCHAR 00A6
ENCODING 166
SWIDTH 300 0
DWIDTH 15 0
BBX 7 48 4 -5
BITMAP
C6
C6
C6
38
38
FE
C6
C6
38
38
FE
C6
C6
38
38
FE
C6
C6
00
00
00
00
00
00
00
00
00
00
00
00
C6
C6
C6
38
38
FE
C6
C6
38
38
FE
C6
C6
38
38
FE
C6
C6
ENDCHAR
STARTCHAR 00A7
ENCODING 167
SWIDTH 700 0
DWIDTH 35 0
BBX 27 58 4 -10
BITMAP
00318C60
00318C60
00318C60
01CE7380
01CE7380
07FFFFE0
06318C60
06318C60
39C00000
39C00000
FFC00000
C6000000
C6000000
38000000
38000000
FE318000
C6318000
C6318000
39CE7000
39CE7000
FFFFFC00
C6318C00
C6318C00
38007380
38007380
FE007FE0
C6000C60
C6000C60
38000380
38000380
FE000FE0
C6000C60
C6000C60
39C00380
39C00380
3FF18FE0
06318C60
06318C60
01CE7380
01CE7380
01FFFFE0
00318C60
00318C60
00000380
00000380
00000FE0
00000C60
00000C60
00007380
00007380
C631FF80
C6318C00
C6318C00
39CE7000
39CE7000
FFFFF000
C6318000
C6318000
ENDCHAR
STARTCHAR 00A8
ENCODING 168
SWIDTH 400 0
DWIDTH 20 0
BBX 18 8 1 40
BITMAP
E739C0
E739C0
E739C0
180600
180600
FF3FC0
E739C0
E739C0
ENDCHAR
STARTCHAR 00AB
ENCODING 171
SWIDTH 840 0
DWIDTH 42 0
BBX 35 28 1 5
BITMAP
0006300C60
0006300C60
0006300C60
0039C07380
0039C07380
00FFC1FF80
00C6018C00
00C6018C00
07380E7000
07380E7000
1FF83FF000
18C0318000
18C0318000
E701CE0000
E701CE0000
FFC1FF8000
18C0318000
18C0318000
07380E7000
07380E7000
07FE0FFC00
00C6018C00
00C6018C00
0039C07380
0039C07380
003FF07FE0
0006300C60
0006300C60
ENDCHAR
STARTCHAR 00AD
ENCODING 173
SWIDTH 500 0
DWIDTH 25 0
BBX 23 8 1 15
BITMAP
E739CE
E739CE
E739CE
18C630
18C630
FFFFFE
E739CE
E739CE
ENDCHAR
STARTCHAR 00AF
ENCODING 175
SWIDTH 400 0
DWIDTH 20 0
BBX 18 8 1 40
BITMAP
E739C0
E739C0
E739C0
18C600
18C600
FFFFC0
E739C0
E739C0
ENDCHAR
STARTCHAR 00B0
ENCODING 176
SWIDTH 500 0
DWIDTH 25 0
BBX 23 23 1 20
BITMAP
0739C0
0739C0
0739C0
18C630
18C630
FFFFFE
E739CE
E739CE
180030
180030
FF01FE
E701CE
E701CE
180030
180030
FF39FE
E739CE
E739CE
18C630
18C630
1FFFF0
0739C0
0739C0
ENDCHAR
STARTCHAR 00B4
ENCODING 180
SWIDTH 340 0
DWIDTH 17 0
BBX 18 13 1 40
BITMAP
0039C0
0039C0
0039C0
00C600
00C600
07FE00
073800
073800
18C000
18C000
FFC000
E70000
E70000
ENDCHAR
STARTCHAR 00B6
ENCODING 182
SWIDTH 700 0
DWIDTH 35 0
BBX 27 38 4 0
BITMAP
06318C60
06318C60
06318C60
39CE0380
39CE0380
FFFF8FE0
C6318C60
C6318C60
39CE0380
39CE0380
FFFF8FE0
C6318C60
C6318C60
39CE0380
39CE0380
FFFF8FE0
C6318C60
C6318C60
39CE0380
39CE0380
3FFF8FE0
06318C60
06318C60
000E0380
000E0380
003F8FE0
00318C60
00318C60
000E0380
000E0380
003F8FE0
00318C60
00318C60
000E0380
000E0380
003F8FE0
00318C60
00318C60
ENDCHAR
STARTCHAR 00B7
ENCODING 183
SWIDTH 200 0
DWIDTH 10 0
BBX 8 8 1 15
BITMAP
E7
E7
E7
18
18
FF
E7
E7
ENDCHAR
STARTCHAR 00B8
ENCODING 184
SWIDTH 240 0
DWIDTH 12 0
BBX 12 10 -1 -10
BITMAP
01C0
01C0
C7F0
C630
C630
39C0
39C0
FFC0
C600
C600
ENDCHAR
STARTCHAR 00BB
ENCODING 187
SWIDTH 840 0
DWIDTH 42 0
BBX 35 28 6 5
BITMAP
E701CE0000
E701CE0000
E701CE0000
18C0318000
18C0318000
1FF83FF000
07380E7000
07380E7000
00C6018C00
00C6018C00
00FFC1FF80
0039C07380
0039C07380
0006300C60
0006300C60
003FF07FE0
0039C07380
0039C07380
00C6018C00
00C6018C00
07FE0FFC00
07380E7000
07380E7000
18C0318000
18C0318000
FFC1FF8000
E701CE0000
E701CE0000
ENDCHAR
STARTCHAR 00BF
ENCODING 191
SWIDTH 700 0
DWIDTH 35 0
BBX 27 38 4 0
BITMAP
00318000
00318000
00318000
000E0000
000E0000
003F8000
00318000
00318000
00000000
00000000
00318000
00318000
00318000
000E0000
000E0000
063F8000
06318000
06318000
39CE0000
39CE0000
FFFE0000
C6300000
C6300000
38000000
38000000
FE000C60
C6000C60
C6000C60
38000380
38000380
FE318FE0
C6318C60
C6318C60
39CE7380
39CE7380
3FFFFF80
06318C00
06318C00
ENDCHAR
STARTCHAR 00C0
ENCODING 192
SWIDTH 700 0
DWIDTH 35 0
BBX 27 53 4 0
BITMAP
C6000000
C6000000
C6000000
39C00000
39C00000
3FF00000
06300000
06300000
01CE0000
01CE0000
01FF8000
00318000
00318000
00000000
00000000
00318000
00318000
00318000
01CE7000
01CE7000
07FFFC00
06318C00
06318C00
39C07380
39C07380
FFC07FE0
C6000C60
C6000C60
38000380
38000380
FE000FE0
C6000C60
C6000C60
38000380
38000380
FE318FE0
C6318C60
C6318C60
39CE7380
39CE7380
FFFFFFE0
C6318C60
C6318C60
38000380
38000380
FE000FE0
C6000C60
C6000C60
38000380
38000380
FE000FE0
C6000C60
C6000C60
ENDCHAR
STARTCHAR 00C1
ENCODING 193
SWIDTH 700 0
DWIDTH 35 0
BBX 27 53 4 0
BITMAP
00007380
00007380
00007380
00018C00
00018C00
000FFC00
000E7000
000E7000
00318000
00318000
01FF8000
01CE0000
01CE0000
00000000
00000000
00318000
00318000
00318000
01CE7000
01CE7000
07FFFC00
06318C00
06318C00
39C07380
39C07380
FFC07FE0
C6000C60
C6000C60
38000380
38000380
FE000FE0
C6000C60
C6000C60
38000380
38000380
FE318FE0
C6318C60
C6318C60
39CE7380
39CE7380
FFFFFFE0
C6318C60
C6318C60
38000380
38000380
FE000FE0
C6000C60
C6000C60
38000380
38000380
FE000FE0
C6000C60
C6000C60
ENDCHAR
STARTCHAR 00C2
ENCODING 194
SWIDTH 700 0
DWIDTH 35 0
BBX 27 53 4 0
BITMAP
00318000
00318000
00318000
01CE7000
01CE7000
07FFFC00
06318C00
06318C00
01C07000
01C07000
07F1FC00
06318C00
06318C00
00000000
00000000
00318000
00318000
00318000
01CE7000
01CE7000
07FFFC00
06318C00
06318C00
39C07380
39C07380
FFC07FE0
C6000C60
C6000C60
38000380
38000380
FE000FE0
C6000C60
C6000C60
38000380
38000380
FE318FE0
C6318C60
C6318C60
39CE7380
39CE7380
FFFFFFE0
C6318C60
C6318C60
38000380
38000380
FE000FE0
C6000C60
C6000C60
38000380
38000380
FE000FE0
C6000C60
C6000C60
ENDCHAR
STARTCHAR 00C3
ENCODING 195
SWIDTH 700 0
DWIDTH 35 0
BBX 27 53 4 0
BITMAP
06300C60
06300C60
06300C60
39CE0380
39CE0380
FFFF8FE0
C6318C60
C6318C60
380E7380
380E7380
FE0FFF80
C6018C00
C6018C00
00000000
00000000
00318000
00318000
00318000
01CE7000
01CE7000
07FFFC00
06318C00
06318C00
39C07380
39C07380
FFC07FE0
C6000C60
C6000C60
38000380
38000380
FE000FE0
C6000C60
C6000C60
38000380
38000380
FE318FE0
C6318C60
C6318C60
39CE7380
39CE7380
FFFFFFE0
C6318C60
C6318C60
38000380
38000380
FE000FE0
C6000C60
C6000C60
38000380
38000380
FE000FE0
C6000C60
C6000C60
ENDCHAR
STARTCHAR 00C4
ENCODING 196
SWIDTH 700 0
DWIDTH 35 0
BBX 27 48 4 0
BITMAP
06318C00
06318C00
06318C00
01C07000
01C07000
07F1FC00
06318C00
06318C00
00000000
00000000
00318000
00318000
00318000
01CE7000
01CE7000
07FFFC00
06318C00
06318C00
39C07380
39C07380
FFC07FE0
C6000C60
C6000C60
38000380
38000380
FE000FE0
C6000C60
C6000C60
38000380
38000380
FE318FE0
C6318C60
C6318C60
39CE7380
39CE7380
FFFFFFE0
C6318C60
C6318C60
38000380
38000380
FE000FE0
C6000C60
C6000C60
38000380
38000380
FE000FE0
C6000C60
C6000C60
ENDCHAR
STARTCHAR 00C5
ENCODING 197
SWIDTH 700 0
DWIDTH 35 0
BBX 27 63 4 0
BITMAP
01CE7000
01CE7000
01CE7000
06318C00
06318C00
3FFFFF80
39CE7380
39CE7380
06000C00
06000C00
3FC07F80
39C07380
39C07380
06000C00
06000C00
3FCE7F80
39CE7380
39CE7380
06318C00
06318C00
07FFFC00
01CE7000
01CE7000
00000000
00000000
00318000
00318000
00318000
01CE7000
01CE7000
07FFFC00
06318C00
06318C00
39C07380
39C07380
FFC07FE0
C6000C60
C6000C60
38000380
38000380
FE000FE0
C6000C60
C6000C60
38000380
38000380
FE318FE0
C6318C60
C6318C60
39CE7380
39CE7380
FFFFFFE0
C6318C60
C6318C60
38000380
38000380
FE000FE0
C6000C60
C6000C60
38000380
38000380
FE000FE0
C6000C60
C6000C60
ENDCHAR
STARTCHAR 00C6
ENCODING 198
SWIDTH 1100 0
DWIDTH 55 0
BBX 47 38 4 0
BITMAP
00318C6318C6
00318C6318C6
00318C6318C6
01CE739CE738
01CE739CE738
07FFFFFFFFFE
06318C6318C6
06318C6318C6
39C003800000
39C003800000
FFC00FE00000
C6000C600000
C6000C600000
380003800000
380003800000
FE000FE318C0
C6000C6318C0
C6000C6318C0
3800039CE700
3800039CE700
FE318FFFFFC0
C6318C6318C0
C6318C6318C0
39CE73800000
39CE73800000
FFFFFFE00000
C6318C600000
C6318C600000
380003800000
380003800000
FE000FE318C6
C6000C6318C6
C6000C6318C6
3800039CE738
3800039CE738
FE0003FFFFFE
C600006318C6
C600006318C6
ENDCHAR
STARTCHAR 00C7
ENCODING 199
SWIDTH 800 0
DWIDTH 40 0
BBX 32 48 4 -10
BITMAP
00318C00
00318C00
00318C00
01CE7380
01CE7380
07FFFFE0
06318C60
06318C60
39C0039C
39C0039C
FFC003FF
C6000063
C6000063
3800001C
3800001C
FE00007F
C6000063
C6000063
38000000
38000000
FE000000
C6000000
C6000000
38000000
38000000
FE000063
C6000063
C6000063
39C0039C
39C0039C
3FF18FFC
06318C60
06318C60
01CE7380
01CE7380
01FFFF80
00318C00
00318C00
00007000
00007000
0031FC00
00318C00
00318C00
000E7000
000E7000
003FF000
00318000
00318000
ENDCHAR
STARTCHAR 00C8
ENCODING 200
SWIDTH 700 0
DWIDTH 35 0
BBX 27 53 4 0
BITMAP
C6000000
C6000000
C6000000
39C00000
39C00000
3FF00000
06300000
06300000
01CE0000
01CE0000
01FF8000
00318000
00318000
00000000
00000000
00318C60
00318C60
00318C60
01CE7380
01CE7380
07FFFFE0
06318C60
06318C60
39C00000
39C00000
FFC00000
C6000000
C6000000
38000000
38000000
FE318C00
C6318C00
C6318C00
39CE7000
39CE7000
FFFFFC00
C6318C00
C6318C00
38000000
38000000
FE000000
C6000000
C6000000
39C00000
39C00000
3FF18C60
06318C60
06318C60
01CE7380
01CE7380
01FFFFE0
00318C60
00318C60
ENDCHAR
STARTCHAR 00C9
ENCODING 201
SWIDTH 700 0
DWIDTH 35 0
BBX 27 53 4 0
BITMAP
00007380
00007380
00007380
00018C00
00018C00
000FFC00
000E7000
000E7000
00318000
00318000
01FF8000
01CE0000
01CE0000
00000000
00000000
00318C60
00318C60
00318C60
01CE7380
01CE7380
07FFFFE0
06318C60
06318C60
39C00000
39C00000
FFC00000
C6000000
C6000000
38000000
38000000
FE318C00
C6318C00
C6318C00
39CE7000
39CE7000
FFFFFC00
C6318C00
C6318C00
38000000
38000000
FE000000
C6000000
C6000000
39C00000
39C00000
3FF18C60
06318C60
06318C60
01CE7380
01CE7380
01FFFFE0
00318C60
00318C60
ENDCHAR
STARTCHAR 00CA
ENCODING 202
SWIDTH 700 0
DWIDTH 35 0
BBX 27 53 4 0
BITMAP
00318000
00318000
00318000
01CE7000
01CE7000
07FFFC00
06318C00
06318C00
01C07000
01C07000
07F1FC00
06318C00
06318C00
00000000
00000000
00318C60
00318C60
00318C60
01CE7380
01CE7380
07FFFFE0
06318C60
06318C60
39C00000
39C00000
FFC00000
C6000000
C6000000
38000000
38000000
FE318C00
C6318C00
C6318C00
39CE7000
39CE7000
FFFFFC00
C6318C00
C6318C00
38000000
38000000
FE000000
C6000000
C6000000
39C00000
39C00000
3FF18C60
06318C60
06318C60
01CE7380
01CE7380
01FFFFE0
00318C60
00318C60
ENDCHAR
STARTCHAR 00CB
ENCODING 203
SWIDTH 700 0
DWIDTH 35 0
BBX 27 48 4 0
BITMAP
06318C00
06318C00
06318C00
01C07000
01C07000
07F1FC00
06318C00
06318C00
00000000
00000000
00318C60
00318C60
00318C60
01CE7380
01CE7380
07FFFFE0
06318C60
06318C60
39C00000
39C00000
FFC00000
C6000000
C6000000
38000000
38000000
FE318C00
C6318C00
C6318C00
39CE7000
39CE7000
FFFFFC00
C6318C00
C6318C00
38000000
38000000
FE000000
C6000000
C6000000
39C00000
39C00000
3FF18C60
06318C60
06318C60
01CE7380
01CE7380
01FFFFE0
00318C60
00318C60
ENDCHAR
STARTCHAR 00CC
ENCODING 204
SWIDTH 500 0
DWIDTH 25 0
BBX 22 53 -1 0
BITMAP
C60000
C60000
C60000
39C000
39C000
3FF000
063000
063000
01CE00
01CE00
01FF80
003180
003180
000000
000000
06318C
06318C
06318C
01CE70
01CE70
07FFFC
06318C
06318C
000E00
000E00
003F80
003180
003180
000E00
000E00
003F80
003180
003180
000E00
000E00
003F80
003180
003180
000E00
000E00
003F80
003180
003180
000E00
000E00
063F8C
06318C
06318C
01CE70
01CE70
07FFFC
06318C
06318C
ENDCHAR
STARTCHAR 00CD
ENCODING 205
SWIDTH 500 0
DWIDTH 25 0
BBX 20 53 4 0
BITMAP
000E70
000E70
000E70
003180
003180
01FF80
01CE00
01CE00
063000
063000
3FF000
39C000
39C000
000000
000000
C63180
C63180
C63180
39CE00
39CE00
FFFF80
C63180
C63180
01C000
01C000
07F000
063000
063000
01C000
01C000
07F000
063000
063000
01C000
01C000
07F000
063000
063000
01C000
01C000
07F000
063000
063000
01C000
01C000
C7F180
C63180
C63180
39CE00
39CE00
FFFF80
C63180
C63180
ENDCHAR
STARTCHAR 00CE
ENCODING 206
SWIDTH 500 0
DWIDTH 25 0
BBX 17 53 4 0
BITMAP
063000
063000
063000
39CE00
39CE00
FFFF80
C63180
C63180
380E00
380E00
FE3F80
C63180
C63180
000000
000000
C63180
C63180
C63180
39CE00
39CE00
FFFF80
C63180
C63180
01C000
01C000
07F000
063000
063000
01C000
01C000
07F000
063000
063000
01C000
01C000
07F000
063000
063000
01C000
01C000
07F000
063000
063000
01C000
01C000
C7F180
C63180
C63180
39CE00
39CE00
FFFF80
C63180
C63180
ENDCHAR
STARTCHAR 00CF
ENCODING 207
SWIDTH 500 0
DWIDTH 25 0
BBX 17 48 4 0
BITMAP
C63180
C63180
C63180
380E00
380E00
FE3F80
C63180
C63180
000000
000000
C63180
C63180
C63180
39CE00
39CE00
FFFF80
C63180
C63180
01C000
01C000
07F000
063000
063000
01C000
01C000
07F000
063000
063000
01C000
01C000
07F000
063000
063000
01C000
01C000
07F000
063000
063000
01C000
01C000
C7F180
C63180
C63180
39CE00
39CE00
FFFF80
C63180
C63180
ENDCHAR
STARTCHAR 00D0
ENCODING 208
SWIDTH 840 0
DWIDTH 42 0
BBX 38 38 1 0
BITMAP
0739CE7000
0739CE7000
0739CE7000
00C6318C00
00C6318C00
07FFFFFF80
0739CE7380
0739CE7380
00C0000C60
00C0000C60
07F8000FFC
073800039C
073800039C
00C0000060
00C0000060
E7F9C003FC
E739C0039C
E739C0039C
18C6000060
18C6000060
FFFFC003FC
E739C0039C
E739C0039C
00C0000060
00C0000060
07F80003FC
073800039C
073800039C
00C0000C60
00C0000C60
07F9CE7FE0
0739CE7380
0739CE7380
00C6318C00
00C6318C00
07FFFFFC00
0739CE7000
0739CE7000
ENDCHAR
STARTCHAR 00D1
ENCODING 209
SWIDTH 800 0
DWIDTH 40 0
BBX 32 53 4 0
BITMAP
01CE039C
01CE039C
01CE039C
06318060
06318060
3FFFF3FC
39CE739C
39CE739C
06018C60
06018C60
3FC1FFE0
39C07380
39C07380
00000000
00000000
C6000063
C6000063
C6000063
39C0001C
39C0001C
FFF0007F
C6300063
C6300063
39CE001C
39CE001C
FFFF807F
C6318063
C6318063
380E701C
380E701C
FE0FFC7F
C6018C63
C6018C63
3800739C
3800739C
FE007FFF
C6000C63
C6000C63
3800039C
3800039C
FE0003FF
C6000063
C6000063
3800001C
3800001C
FE00007F
C6000063
C6000063
3800001C
3800001C
FE00007F
C6000063
C6000063
ENDCHAR
STARTCHAR 00D2
ENCODING 210
SWIDTH 800 0
DWIDTH 40 0
BBX 32 53 4 0
BITMAP
39C00000
39C00000
39C00000
06300000
06300000
07FE0000
01CE0000
01CE0000
00318000
00318000
003FF000
000E7000
000E7000
00000000
00000000
00318C00
00318C00
00318C00
01CE7380
01CE7380
07FFFFE0
06318C60
06318C60
39C0039C
39C0039C
FFC003FF
C6000063
C6000063
3800001C
3800001C
FE00007F
C6000063
C6000063
3800001C
3800001C
FE00007F
C6000063
C6000063
3800001C
3800001C
FE00007F
C6000063
C6000063
39C0039C
39C0039C
3FF18FFC
06318C60
06318C60
01CE7380
01CE7380
01FFFF80
00318C00
00318C00
ENDCHAR
STARTCHAR 00D3
ENCODING 211
SWIDTH 800 0
DWIDTH 40 0
BBX 32 53 4 0
BITMAP
00000C60
00000C60
00000C60
00007380
00007380
0001FF80
00018C00
00018C00
000E7000
000E7000
003FF000
00318000
00318000
00000000
00000000
00318C00
00318C00
00318C00
01CE7380
01CE7380
07FFFFE0
06318C60
06318C60
39C0039C
39C0039C
FFC003FF
C6000063
C6000063
3800001C
3800001C
FE00007F
C6000063
C6000063
3800001C
3800001C
FE00007F
C6000063
C6000063
3800001C
3800001C
FE00007F
C6000063
C6000063
39C0039C
39C0039C
3FF18FFC
06318C60
06318C60
01CE7380
01CE7380
01FFFF80
00318C00
00318C00
ENDCHAR
STARTCHAR 00D4
ENCODING 212
SWIDTH 800 0
DWIDTH 40 0
BBX 32 53 4 0
BITMAP
000E7000
000E7000
000E7000
00318C00
00318C00
01FFFF80
01CE7380
01CE7380
00300C00
00300C00
01FE7F80
01CE7380
01CE7380
00000000
00000000
00318C00
00318C00
00318C00
01CE7380
01CE7380
07FFFFE0
06318C60
06318C60
39C0039C
39C0039C
FFC003FF
C6000063
C6000063
3800001C
3800001C
FE00007F
C6000063
C6000063
3800001C
3800001C
FE00007F
C6000063
C6000063
3800001C
3800001C
FE00007F
C6000063
C6000063
39C0039C
39C0039C
3FF18FFC
06318C60
06318C60
01CE7380
01CE7380
01FFFF80
00318C00
00318C00
ENDCHAR
STARTCHAR 00D5
ENCODING 213
SWIDTH 800 0
DWIDTH 40 0
BBX 32 53 4 0
BITMAP
01CE039C
01CE039C
01CE039C
06318060
06318060
3FFFF3FC
39CE739C
39CE739C
06018C60
06018C60
3FC1FFE0
39C07380
39C07380
00000000
00000000
00318C00
00318C00
00318C00
01CE7380
01CE7380
07FFFFE0
06318C60
06318C60
39C0039C
39C0039C
FFC003FF
C6000063
C6000063
3800001C
3800001C
FE00007F
C6000063
C6000063
3800001C
3800001C
FE00007F
C6000063
C6000063
3800001C
3800001C
FE00007F
C6000063
C6000063
39C0039C
39C0039C
3FF18FFC
06318C60
06318C60
01CE7380
01CE7380
01FFFF80
00318C00
00318C00
ENDCHAR
STARTCHAR 00D6
ENCODING 214
SWIDTH 800 0
DWIDTH 40 0
BBX 32 48 4 0
BITMAP
01CE7380
01CE7380
01CE7380
00300C00
00300C00
01FE7F80
01CE7380
01CE7380
00000000
00000000
00318C00
00318C00
00318C00
01CE7380
01CE7380
07FFFFE0
06318C60
06318C60
39C0039C
39C0039C
FFC003FF
C6000063
C6000063
3800001C
3800001C
FE00007F
C6000063
C6000063
3800001C
3800001C
FE00007F
C6000063
C6000063
3800001C
3800001C
FE00007F
C6000063
C6000063
39C0039C
39C0039C
3FF18FFC
06318C60
06318C60
01CE7380
01CE7380
01FFFF80
00318C00
00318C00
ENDCHAR
STARTCHAR 00D7
ENCODING 215
SWIDTH 700 0
DWIDTH 35 0
BBX 27 30 4 5
BITMAP
38000380
38000380
FE000FE0
C6000C60
C6000C60
39C07380
39C07380
3FF1FF80
06318C00
06318C00
01CE7000
01CE7000
01FFF000
00318000
00318000
01CE7000
01CE7000
07FFFC00
06318C00
06318C00
39C07380
39C07380
FFC07FE0
C6000C60
C6000C60
38000380
38000380
FE000FE0
C6000C60
C6000C60
ENDCHAR
STARTCHAR 00D8
ENCODING 216
SWIDTH 900 0
DWIDTH 45 0
BBX 43 38 1 0
BITMAP
0001CE700000
0001CE700000
0001CE700000
0006318C0000
0006318C0000
003FFFFF8000
0039CE738000
0039CE738000
00C6000C6000
00C6000C6000
07FE000FFC00
073800039C00
073800039C00
00C000006000
00C000006000
E7F9CE73FCE0
E739CE739CE0
E739CE739CE0
18C6318C6300
18C6318C6300
FFFFFFFFFFE0
E739CE739CE0
E739CE739CE0
00C000006000
00C000006000
07F80003FC00
073800039C00
073800039C00
00C6000C6000
00C6000C6000
00FFCE7FE000
0039CE738000
0039CE738000
0006318C0000
0006318C0000
0007FFFC0000
0001CE700000
0001CE700000
ENDCHAR
STARTCHAR 00D9
ENCODING 217
SWIDTH 800 0
DWIDTH 40 0
BBX 32 53 4 0
BITMAP
39C00000
39C00000
39C00000
06300000
06300000
07FE0000
01CE0000
01CE0000
00318000
00318000
003FF000
000E7000
000E7000
00000000
00000000
C6000063
C6000063
C6000063
3800001C
3800001C
FE00007F
C6000063
C6000063
3800001C
3800001C
FE00007F
C6000063
C6000063
3800001C
3800001C
FE00007F
C6000063
C6000063
3800001C
3800001C
FE00007F
C6000063
C6000063
3800001C
3800001C
FE00007F
C6000063
C6000063
39C0039C
39C0039C
3FF18FFC
06318C60
06318C60
01CE7380
01CE7380
01FFFF80
00318C00
00318C00
ENDCHAR
STARTCHAR 00DA
ENCODING 218
SWIDTH 800 0
DWIDTH 40 0
BBX 32 53 4 0
BITMAP
00000C60
00000C60
00000C60
00007380
00007380
0001FF80
00018C00
00018C00
000E7000
000E7000
003FF000
00318000
00318000
00000000
00000000
C6000063
C6000063
C6000063
3800001C
3800001C
FE00007F
C6000063
C6000063
3800001C
3800001C
FE00007F
C6000063
C6000063
3800001C
3800001C
FE00007F
C6000063
C6000063
3800001C
3800001C
FE00007F
C6000063
C6000063
3800001C
3800001C
FE00007F
C6000063
C6000063
39C0039C
39C0039C
3FF18FFC
06318C60
06318C60
01CE7380
01CE7380
01FFFF80
00318C00
00318C00
ENDCHAR
STARTCHAR 00DB
ENCODING 219
SWIDTH 800 0
DWIDTH 40 0
BBX 32 53 4 0
BITMAP
000E7000
000E7000
000E7000
00318C00
00318C00
01FFFF80
01CE7380
01CE7380
00300C00
00300C00
01FE7F80
01CE7380
01CE7380
00000000
00000000
C6000063
C6000063
C6000063
3800001C
3800001C
FE00007F
C6000063
C6000063
3800001C
3800001C
FE00007F
C6000063
C6000063
3800001C
3800001C
FE00007F
C6000063
C6000063
3800001C
3800001C
FE00007F
C6000063
C6000063
3800001C
3800001C
FE00007F
C6000063
C6000063
39C0039C
39C0039C
3FF18FFC
06318C60
06318C60
01CE7380
01CE7380
01FFFF80
00318C00
00318C00
ENDCHAR
STARTCHAR 00DC
ENCODING 220
SWIDTH 800 0
DWIDTH 40 0
BBX 32 48 4 0
BITMAP
01CE7380
01CE7380
01CE7380
00300C00
00300C00
01FE7F80
01CE7380
01CE7380
00000000
00000000
C6000063
C6000063
C6000063
3800001C
3800001C
FE00007F
C6000063
C6000063
3800001C
3800001C
FE00007F
C6000063
C6000063
3800001C
3800001C
FE00007F
C6000063
C6000063
3800001C
3800001C
FE00007F
C6000063
C6000063
3800001C
3800001C
FE00007F
C6000063
C6000063
39C0039C
39C0039C
3FF18FFC
06318C60
06318C60
01CE7380
01CE7380
01FFFF80
00318C00
00318C00
ENDCHAR
STARTCHAR 00DD
ENCODING 221
SWIDTH 700 0
DWIDTH 35 0
BBX 27 53 4 0
BITMAP
00007380
00007380
00007380
00018C00
00018C00
000FFC00
000E7000
000E7000
00318000
00318000
01FF8000
01CE0000
01CE0000
00000000
00000000
C6000C60
C6000C60
C6000C60
38000380
38000380
FE000FE0
C6000C60
C6000C60
38000380
38000380
FE000FE0
C6000C60
C6000C60
38000380
38000380
FE000FE0
C6000C60
C6000C60
39C07380
39C07380
3FF1FF80
06318C00
06318C00
01CE7000
01CE7000
01FFF000
00318000
00318000
000E0000
000E0000
003F8000
00318000
00318000
000E0000
000E0000
003F8000
00318000
00318000
ENDCHAR
STARTCHAR 00DE
ENCODING 222
SWIDTH 700 0
DWIDTH 35 0
BBX 27 38 4 0
BITMAP
C6000000
C6000000
C6000000
38000000
38000000
FE318C00
C6318C00
C6318C00
39CE7380
39CE7380
FFFFFFE0
C6318C60
C6318C60
38000380
38000380
FE000FE0
C6000C60
C6000C60
38000380
38000380
FE000FE0
C6000C60
C6000C60
38000380
38000380
FE318FE0
C6318C60
C6318C60
39CE7380
39CE7380
FFFFFF80
C6318C00
C6318C00
38000000
38000000
FE000000
C6000000
C6000000
ENDCHAR
STARTCHAR 00DF
ENCODING 223
SWIDTH 700 0
DWIDTH 35 0
BBX 27 38 4 0
BITMAP
06318C00
06318C00
06318C00
39CE7380
39CE7380
FFFFFFE0
C6318C60
C6318C60
38000380
38000380
FE000FE0
C6000C60
C6000C60
38007380
38007380
FE31FF80
C6318C00
C6318C00
380E7380
380E7380
FE3FFFE0
C6318C60
C6318C60
38000380
38000380
FE000FE0
C6000C60
C6000C60
38000380
38000380
FE318FE0
C6318C60
C6318C60
380E7380
380E7380
FE3FFF80
C6318C00
C6318C00
ENDCHAR
STARTCHAR 00E0
ENCODING 224
SWIDTH 700 0
DWIDTH 35 0
BBX 27 53 4 0
BITMAP
C6000000
C6000000
C6000000
39C00000
39C00000
3FF00000
06300000
06300000
01CE0000
01CE0000
01FF8000
00318000
00318000
00000000
00000000
06318C00
06318C00
06318C00
39CE7380
39CE7380
FFFFFFE0
C6318C60
C6318C60
38000380
38000380
FE000FE0
C6000C60
C6000C60
38000380
38000380
FE000FE0
C6000C60
C6000C60
38000380
38000380
FE318FE0
C6318C60
C6318C60
39CE7380
39CE7380
FFFFFFE0
C6318C60
C6318C60
38000380
38000380
FE000FE0
C6000C60
C6000C60
38000380
38000380
FE000FE0
C6000C60
C6000C60
ENDCHAR
STARTCHAR 00E1
ENCODING 225
SWIDTH 700 0
DWIDTH 35 0
BBX 27 53 4 0
BITMAP
00007380
00007380
00007380
00018C00
00018C00
000FFC00
000E7000
000E7000
00318000
00318000
01FF8000
01CE0000
01CE0000
00000000
00000000
06318C00
06318C00
06318C00
39CE7380
39CE7380
FFFFFFE0
C6318C60
C6318C60
38000380
38000380
FE000FE0
C6000C60
C6000C60
38000380
38000380
FE000FE0
C6000C60
C6000C60
38000380
38000380
FE318FE0
C6318C60
C6318C60
39CE7380
39CE7380
FFFFFFE0
C6318C60
C6318C60
38000380
38000380
FE000FE0
C6000C60
C6000C60
38000380
38000380
FE000FE0
C6000C60
C6000C60
ENDCHAR
STARTCHAR 00E2
ENCODING 226
SWIDTH 700 0
DWIDTH 35 0
BBX 27 53 4 0
BITMAP
00318000
00318000
00318000
01CE7000
01CE7000
07FFFC00
06318C00
06318C00
01C07000
01C07000
07F1FC00
06318C00
06318C00
00000000
00000000
06318C00
06318C00
06318C00
39CE7380
39CE7380
FFFFFFE0
C6318C60
C6318C60
38000380
38000380
FE000FE0
C6000C60
C6000C60
38000380
38000380
FE000FE0
C6000C60
C6000C60
38000380
38000380
FE318FE0
C6318C60
C6318C60
39CE7380
39CE7380
FFFFFFE0
C6318C60
C6318C60
38000380
38000380
FE000FE0
C6000C60
C6000C60
38000380
38000380
FE000FE0
C6000C60
C6000C60
ENDCHAR
STARTCHAR 00E3
ENCODING 227
SWIDTH 700 0
DWIDTH 35 0
BBX 27 53 4 0
BITMAP
06300C60
06300C60
06300C60
39CE0380
39CE0380
FFFF8FE0
C6318C60
C6318C60
380E7380
380E7380
FE0FFF80
C6018C00
C6018C00
00000000
00000000
06318C00
06318C00
06318C00
39CE7380
39CE7380
FFFFFFE0
C6318C60
C6318C60
38000380
38000380
FE000FE0
C6000C60
C6000C60
38000380
38000380
FE000FE0
C6000C60
C6000C60
38000380
38000380
FE318FE0
C6318C60
C6318C60
39CE7380
39CE7380
FFFFFFE0
C6318C60
C6318C60
38000380
38000380
FE000FE0
C6000C60
C6000C60
38000380
38000380
FE000FE0
C6000C60
C6000C60
ENDCHAR
STARTCHAR 00E4
ENCODING 228
SWIDTH 700 0
DWIDTH 35 0
BBX 27 48 4 0
BITMAP
06318C00
06318C00
06318C00
01C07000
01C07000
07F1FC00
06318C00
06318C00
00000000
00000000
06318C00
06318C00
06318C00
39CE7380
39CE7380
FFFFFFE0
C6318C60
C6318C60
38000380
38000380
FE000FE0
C6000C60
C6000C60
38000380
38000380
FE000FE0
C6000C60
C6000C60
38000380
38000380
FE318FE0
C6318C60
C6318C60
39CE7380
39CE7380
FFFFFFE0
C6318C60
C6318C60
38000380
38000380
FE000FE0
C6000C60
C6000C60
38000380
38000380
FE000FE0
C6000C60
C6000C60
ENDCHAR
STARTCHAR 00E5
ENCODING 229
SWIDTH 700 0
DWIDTH 35 0
BBX 27 63 4 0
BITMAP
01CE7000
01CE7000
01CE7000
06318C00
06318C00
3FFFFF80
39CE7380
39CE7380
06000C00
06000C00
3FC07F80
39C07380
39C07380
06000C00
06000C00
3FCE7F80
39CE7380
39CE7380
06318C00
06318C00
07FFFC00
01CE7000
01CE7000
00000000
00000000
06318C00
06318C00
06318C00
39CE7380
39CE7380
FFFFFFE0
C6318C60
C6318C60
38000380
38000380
FE000FE0
C6000C60
C6000C60
38000380
38000380
FE000FE0
C6000C60
C6000C60
38000380
38000380
FE318FE0
C6318C60
C6318C60
39CE7380
39CE7380
FFFFFFE0
C6318C60
C6318C60
38000380
38000380
FE000FE0
C6000C60
C6000C60
38000380
38000380
FE000FE0
C6000C60
C6000C60
ENDCHAR
STARTCHAR 00E6
ENCODING 230
SWIDTH 1100 0
DWIDTH 55 0
BBX 47 38 4 0
BITMAP
06318C6318C6
06318C6318C6
06318C6318C6
39CE739CE738
39CE739CE738
FFFFFFFFFFFE
C6318C6318C6
C6318C6318C6
380003800000
380003800000
FE000FE00000
C6000C600000
C6000C600000
380003800000
380003800000
FE000FE318C0
C6000C6318C0
C6000C6318C0
3800039CE700
3800039CE700
FE318FFFFFC0
C6318C6318C0
C6318C6318C0
39CE73800000
39CE73800000
FFFFFFE00000
C6318C600000
C6318C600000
380003800000
380003800000
FE000FE318C6
C6000C6318C6
C6000C6318C6
3800039CE738
3800039CE738
FE0003FFFFFE
C600006318C6
C600006318C6
ENDCHAR
STARTCHAR 00E7
ENCODING 231
SWIDTH 700 0
DWIDTH 35 0
BBX 27 48 4 -10
BITMAP
06318C00
06318C00
06318C00
39CE7380
39CE7380
FFFFFFE0
C6318C60
C6318C60
38000380
38000380
FE000FE0
C6000C60
C6000C60
38000380
38000380
FE000FE0
C6000C60
C6000C60
38000000
38000000
FE000000
C6000000
C6000000
38000000
38000000
FE000C60
C6000C60
C6000C60
38000380
38000380
FE318FE0
C6318C60
C6318C60
39CE7380
39CE7380
3FFFFF80
06318C00
06318C00
000E0000
000E0000
063F8000
06318000
06318000
01CE0000
01CE0000
07FE0000
06300000
06300000
ENDCHAR
STARTCHAR 00E8
ENCODING 232
SWIDTH 700 0
DWIDTH 35 0
BBX 27 53 4 0
BITMAP
C6000000
C6000000
C6000000
39C00000
39C00000
3FF00000
06300000
06300000
01CE0000
01CE0000
01FF8000
00318000
00318000
00000000
00000000
06318C60
06318C60
06318C60
39CE7380
39CE7380
FFFFFFE0
C6318C60
C6318C60
38000000
38000000
FE000000
C6000000
C6000000
38000000
38000000
FE318C00
C6318C00
C6318C00
39CE7000
39CE7000
FFFFFC00
C6318C00
C6318C00
38000000
38000000
FE000000
C6000000
C6000000
38000000
38000000
FE318C60
C6318C60
C6318C60
39CE7380
39CE7380
3FFFFFE0
06318C60
06318C60
ENDCHAR
STARTCHAR 00E9
ENCODING 233
SWIDTH 700 0
DWIDTH 35 0
BBX 27 53 4 0
BITMAP
00007380
00007380
00007380
00018C00
00018C00
000FFC00
000E7000
000E7000
00318000
00318000
01FF8000
01CE0000
01CE0000
00000000
00000000
06318C60
06318C60
06318C60
39CE7380
39CE7380
FFFFFFE0
C6318C60
C6318C60
38000000
38000000
FE000000
C6000000
C6000000
38000000
38000000
FE318C00
C6318C00
C6318C00
39CE7000
39CE7000
FFFFFC00
C6318C00
C6318C00
38000000
38000000
FE000000
C6000000
C6000000
38000000
38000000
FE318C60
C6318C60
C6318C60
39CE7380
39CE7380
3FFFFFE0
06318C60
06318C60
ENDCHAR
STARTCHAR 00EA
ENCODING 234
SWIDTH 700 0
DWIDTH 35 0
BBX 27 53 4 0
BITMAP
00318000
00318000
00318000
01CE7000
01CE7000
07FFFC00
06318C00
06318C00
01C07000
01C07000
07F1FC00
06318C00
06318C00
00000000
00000000
06318C60
06318C60
06318C60
39CE7380
39CE7380
FFFFFFE0
C6318C60
C6318C60
38000000
38000000
FE000000
C6000000
C6000000
38000000
38000000
FE318C00
C6318C00
C6318C00
39CE7000
39CE7000
FFFFFC00
C6318C00
C6318C00
38000000
38000000
FE000000
C6000000
C6000000
38000000
38000000
FE318C60
C6318C60
C6318C60
39CE7380
39CE7380
3FFFFFE0
06318C60
06318C60
ENDCHAR
STARTCHAR 00EB
ENCODING 235
SWIDTH 700 0
DWIDTH 35 0
BBX 27 48 4 0
BITMAP
06318C00
06318C00
06318C00
01C07000
01C07000
07F1FC00
06318C00
06318C00
00000000
00000000
06318C60
06318C60
06318C60
39CE7380
39CE7380
FFFFFFE0
C6318C60
C6318C60
38000000
38000000
FE000000
C6000000
C6000000
38000000
38000000
FE318C00
C6318C00
C6318C00
39CE7000
39CE7000
FFFFFC00
C6318C00
C6318C00
38000000
38000000
FE000000
C6000000
C6000000
38000000
38000000
FE318C60
C6318C60
C6318C60
39CE7380
39CE7380
3FFFFFE0
06318C60
06318C60
ENDCHAR
STARTCHAR 00EC
ENCODING 236
SWIDTH 300 0
DWIDTH 15 0
BBX 17 53 -6 0
BITMAP
C60000
C60000
C60000
39C000
39C000
3FF000
063000
063000
01CE00
01CE00
01FF80
003180
003180
000000
000000
003180
003180
003180
000E00
000E00
003F80
003180
003180
000E00
000E00
003F80
003180
003180
000E00
000E00
003F80
003180
003180
000E00
000E00
003F80
003180
003180
000E00
000E00
003F80
003180
003180
000E00
000E00
003F80
003180
003180
000E00
000E00
003F80
003180
003180
ENDCHAR
STARTCHAR 00ED
ENCODING 237
SWIDTH 300 0
DWIDTH 15 0
BBX 18 53 1 0
BITMAP
0039C0
0039C0
0039C0
00C600
00C600
07FE00
073800
073800
18C000
18C000
FFC000
E70000
E70000
000000
000000
18C000
18C000
18C000
070000
070000
1FC000
18C000
18C000
070000
070000
1FC000
18C000
18C000
070000
070000
1FC000
18C000
18C000
070000
070000
1FC000
18C000
18C000
070000
070000
1FC000
18C000
18C000
070000
070000
1FC000
18C000
18C000
070000
070000
1FC000
18C000
18C000
ENDCHAR
STARTCHAR 00EE
ENCODING 238
SWIDTH 300 0
DWIDTH 15 0
BBX 17 53 -1 0
BITMAP
063000
063000
063000
39CE00
39CE00
FFFF80
C63180
C63180
380E00
380E00
FE3F80
C63180
C63180
000000
000000
063000
063000
063000
01C000
01C000
07F000
063000
063000
01C000
01C000
07F000
063000
063000
01C000
01C000
07F000
063000
063000
01C000
01C000
07F000
063000
063000
01C000
01C000
07F000
063000
063000
01C000
01C000
07F000
063000
063000
01C000
01C000
07F000
063000
063000
ENDCHAR
STARTCHAR 00EF
ENCODING 239
SWIDTH 300 0
DWIDTH 15 0
BBX 17 48 -1 0
BITMAP
C63180
C63180
C63180
380E00
380E00
FE3F80
C63180
C63180
000000
000000
063000
063000
063000
01C000
01C000
07F000
063000
063000
01C000
01C000
07F000
063000
063000
01C000
01C000
07F000
063000
063000
01C000
01C000
07F000
063000
063000
01C000
01C000
07F000
063000
063000
01C000
01C000
07F000
063000
063000
01C000
01C000
07F000
063000
063000
ENDCHAR
STARTCHAR 00F0
ENCODING 240
SWIDTH 740 0
DWIDTH 37 0
BBX 33 38 1 0
BITMAP
0739CE7000
0739CE7000
0739CE7000
00C6318C00
00C6318C00
07FFFFFF80
0739CE7380
0739CE7380
00C0000C00
00C0000C00
07F8007F80
0738007380
0738007380
00C0000C00
00C0000C00
E7F9C07F80
E739C07380
E739C07380
18C6000C00
18C6000C00
FFFFC07F80
E739C07380
E739C07380
00C0000C00
00C0000C00
07F8007F80
0738007380
0738007380
00C0000C00
00C0000C00
07F9CE7F80
0739CE7380
0739CE7380
00C6318C00
00C6318C00
07FFFFFC00
0739CE7000
0739CE7000
ENDCHAR
STARTCHAR 00F1
ENCODING 241
SWIDTH 700 0
DWIDTH 35 0
BBX 27 53 4 0
BITMAP
06300C60
06300C60
06300C60
39CE0380
39CE0380
FFFF8FE0
C6318C60
C6318C60
380E7380
380E7380
FE0FFF80
C6018C00
C6018C00
00000000
00000000
C6000C60
C6000C60
C6000C60
39C00380
39C00380
FFF00FE0
C6300C60
C6300C60
39CE0380
39CE0380
FFFF8FE0
C6318C60
C6318C60
380E7380
380E7380
FE0FFFE0
C6018C60
C6018C60
38007380
38007380
FE007FE0
C6000C60
C6000C60
38000380
38000380
FE000FE0
C6000C60
C6000C60
38000380
38000380
FE000FE0
C6000C60
C6000C60
38000380
38000380
FE000FE0
C6000C60
C6000C60
ENDCHAR
STARTCHAR 00F2
ENCODING 242
SWIDTH 700 0
DWIDTH 35 0
BBX 27 53 4 0
BITMAP
C6000000
C6000000
C6000000
39C00000
39C00000
3FF00000
06300000
06300000
01CE0000
01CE0000
01FF8000
00318000
00318000
00000000
00000000
06318C00
06318C00
06318C00
39CE7380
39CE7380
FFFFFFE0
C6318C60
C6318C60
38000380
38000380
FE000FE0
C6000C60
C6000C60
38000380
38000380
FE000FE0
C6000C60
C6000C60
38000380
38000380
FE000FE0
C6000C60
C6000C60
38000380
38000380
FE000FE0
C6000C60
C6000C60
38000380
38000380
FE318FE0
C6318C60
C6318C60
39CE7380
39CE7380
3FFFFF80
06318C00
06318C00
ENDCHAR
STARTCHAR 00F3
ENCODING 243
SWIDTH 700 0
DWIDTH 35 0
BBX 27 53 4 0
BITMAP
00007380
00007380
00007380
00018C00
00018C00
000FFC00
000E7000
000E7000
00318000
00318000
01FF8000
01CE0000
01CE0000
00000000
00000000
06318C00
06318C00
06318C00
39CE7380
39CE7380
FFFFFFE0
C6318C60
C6318C60
38000380
38000380
FE000FE0
C6000C60
C6000C60
38000380
38000380
FE000FE0
C6000C60
C6000C60
38000380
38000380
FE000FE0
C6000C60
C6000C60
38000380
38000380
FE000FE0
C6000C60
C6000C60
38000380
38000380
FE318FE0
C6318C60
C6318C60
39CE7380
39CE7380
3FFFFF80
06318C00
06318C00
ENDCHAR
STARTCHAR 00F4
ENCODING 244
SWIDTH 700 0
DWIDTH 35 0
BBX 27 53 4 0
BITMAP
00318000
00318000
00318000
01CE7000
01CE7000
07FFFC00
06318C00
06318C00
01C07000
01C07000
07F1FC00
06318C00
06318C00
00000000
00000000
06318C00
06318C00
06318C00
39CE7380
39CE7380
FFFFFFE0
C6318C60
C6318C60
38000380
38000380
FE000FE0
C6000C60
C6000C60
38000380
38000380
FE000FE0
C6000C60
C6000C60
38000380
38000380
FE000FE0
C6000C60
C6000C60
38000380
38000380
FE000FE0
C6000C60
C6000C60
38000380
38000380
FE318FE0
C6318C60
C6318C60
39CE7380
39CE7380
3FFFFF80
06318C00
06318C00
ENDCHAR
STARTCHAR 00F5
ENCODING 245
SWIDTH 700 0
DWIDTH 35 0
BBX 27 53 4 0
BITMAP
06300C60
06300C60
06300C60
39CE0380
39CE0380
FFFF8FE0
C6318C60
C6318C60
380E7380
380E7380
FE0FFF80
C6018C00
C6018C00
00000000
00000000
06318C00
06318C00
06318C00
39CE7380
39CE7380
FFFFFFE0
C6318C60
C6318C60
38000380
38000380
FE000FE0
C6000C60
C6000C60
38000380
38000380
FE000FE0
C6000C60
C6000C60
38000380
38000380
FE000FE0
C6000C60
C6000C60
38000380
38000380
FE000FE0
C6000C60
C6000C60
38000380
38000380
FE318FE0
C6318C60
C6318C60
39CE7380
39CE7380
3FFFFF80
06318C00
06318C00
ENDCHAR
STARTCHAR 00F6
ENCODING 246
SWIDTH 700 0
DWIDTH 35 0
BBX 27 48 4 0
BITMAP
06318C00
06318C00
06318C00
01C07000
01C07000
07F1FC00
06318C00
06318C00
00000000
00000000
06318C00
06318C00
06318C00
39CE7380
39CE7380
FFFFFFE0
C6318C60
C6318C60
38000380
38000380
FE000FE0
C6000C60
C6000C60
38000380
38000380
FE000FE0
C6000C60
C6000C60
38000380
38000380
FE000FE0
C6000C60
C6000C60
38000380
38000380
FE000FE0
C6000C60
C6000C60
38000380
38000380
FE318FE0
C6318C60
C6318C60
39CE7380
39CE7380
3FFFFF80
06318C00
06318C00
ENDCHAR
STARTCHAR 00F7
ENCODING 247
SWIDTH 700 0
DWIDTH 35 0
BBX 27 28 4 5
BITMAP
00318000
00318000
00318000
000E0000
000E0000
003F8000
00318000
00318000
00000000
00000000
C6318C60
C6318C60
C6318C60
39CE7380
39CE7380
FFFFFFE0
C6318C60
C6318C60
00000000
00000000
00318000
00318000
00318000
000E0000
000E0000
003F8000
00318000
00318000
ENDCHAR
STARTCHAR 00F8
ENCODING 248
SWIDTH 800 0
DWIDTH 40 0
BBX 38 38 1 0
BITMAP
0039CE7000
0039CE7000
0039CE7000
00C6318C00
00C6318C00
07FFFFFF80
0739CE7380
0739CE7380
00C0000C00
00C0000C00
07F8007F80
0738007380
0738007380
00C0000C00
00C0000C00
E7F9CE7F9C
E739CE739C
E739CE739C
18C6318C60
18C6318C60
FFFFFFFFFC
E739CE739C
E739CE739C
00C0000C00
00C0000C00
07F8007F80
0738007380
0738007380
00C0000C00
00C0000C00
07F9CE7F80
0739CE7380
0739CE7380
00C6318C00
00C6318C00
00FFFFFC00
0039CE7000
0039CE7000
ENDCHAR
STARTCHAR 00F9
ENCODING 249
SWIDTH 700 0
DWIDTH 35 0
BBX 27 53 4 0
BITMAP
C6000000
C6000000
C6000000
39C00000
39C00000
3FF00000
06300000
06300000
01CE0000
01CE0000
01FF8000
00318000
00318000
00000000
00000000
C6000C60
C6000C60
C6000C60
38000380
38000380
FE000FE0
C6000C60
C6000C60
38000380
38000380
FE000FE0
C6000C60
C6000C60
38000380
38000380
FE000FE0
C6000C60
C6000C60
38000380
38000380
FE000FE0
C6000C60
C6000C60
38000380
38000380
FE000FE0
C6000C60
C6000C60
38000380
38000380
FE318FE0
C6318C60
C6318C60
39CE7380
39CE7380
3FFFFF80
06318C00
06318C00
ENDCHAR
STARTCHAR 00FA
ENCODING 250
SWIDTH 700 0
DWIDTH 35 0
BBX 27 53 4 0
BITMAP
00007380
00007380
00007380
00018C00
00018C00
000FFC00
000E7000
000E7000
00318000
00318000
01FF8000
01CE0000
01CE0000
00000000
00000000
C6000C60
C6000C60
C6000C60
38000380
38000380
FE000FE0
C6000C60
C6000C60
38000380
38000380
FE000FE0
C6000C60
C6000C60
38000380
38000380
FE000FE0
C6000C60
C6000C60
38000380
38000380
FE000FE0
C6000C60
C6000C60
38000380
38000380
FE000FE0
C6000C60
C6000C60
38000380
38000380
FE318FE0
C6318C60
C6318C60
39CE7380
39CE7380
3FFFFF80
06318C00
06318C00
ENDCHAR
STARTCHAR 00FB
ENCODING 251
SWIDTH 700 0
DWIDTH 35 0
BBX 27 53 4 0
BITMAP
00318000
00318000
00318000
01CE7000
01CE7000
07FFFC00
06318C00
06318C00
01C07000
01C07000
07F1FC00
06318C00
06318C00
00000000
00000000
C6000C60
C6000C60
C6000C60
38000380
38000380
FE000FE0
C6000C60
C6000C60
38000380
38000380
FE000FE0
C6000C60
C6000C60
38000380
38000380
FE000FE0
C6000C60
C6000C60
38000380
38000380
FE000FE0
C6000C60
C6000C60
38000380
38000380
FE000FE0
C6000C60
C6000C60
38000380
38000380
FE318FE0
C6318C60
C6318C60
39CE7380
39CE7380
3FFFFF80
06318C00
06318C00
ENDCHAR
STARTCHAR 00FC
ENCODING 252
SWIDTH 700 0
DWIDTH 35 0
BBX 27 48 4 0
BITMAP
06318C00
06318C00
06318C00
01C07000
01C07000
07F1FC00
06318C00
06318C00
00000000
00000000
C6000C60
C6000C60
C6000C60
38000380
38000380
FE000FE0
C6000C60
C6000C60
38000380
38000380
FE000FE0
C6000C60
C6000C60
38000380
38000380
FE000FE0
C6000C60
C6000C60
38000380
38000380
FE000FE0
C6000C60
C6000C60
38000380
38000380
FE000FE0
C6000C60
C6000C60
38000380
38000380
FE318FE0
C6318C60
C6318C60
39CE7380
39CE7380
3FFFFF80
06318C00
06318C00
ENDCHAR
STARTCHAR 00FD
ENCODING 253
SWIDTH 700 0
DWIDTH 35 0
BBX 27 53 4 0
BITMAP
00007380
00007380
00007380
00018C00
00018C00
000FFC00
000E7000
000E7000
00318000
00318000
01FF8000
01CE0000
01CE0000
00000000
00000000
C6000C60
C6000C60
C6000C60
38000380
38000380
FE000FE0
C6000C60
C6000C60
38000380
38000380
FE000FE0
C6000C60
C6000C60
38000380
38000380
FE000FE0
C6000C60
C6000C60
38000380
38000380
FE318FE0
C6318C60
C6318C60
39CE7380
39CE7380
3FFFFF80
06318C00
06318C00
000E0000
000E0000
003F8000
00318000
00318000
000E0000
000E0000
003F8000
00318000
00318000
ENDCHAR
STARTCHAR 00FE
ENCODING 254
SWIDTH 700 0
DWIDTH 35 0
BBX 27 38 4 0
BITMAP
C6000000
C6000000
C6000000
38000000
38000000
FE318C00
C6318C00
C6318C00
39CE7380
39CE7380
FFFFFFE0
C6318C60
C6318C60
38000380
38000380
FE000FE0
C6000C60
C6000C60
38000380
38000380
FE000FE0
C6000C60
C6000C60
38000380
38000380
FE318FE0
C6318C60
C6318C60
39CE7380
39CE7380
FFFFFF80
C6318C00
C6318C00
38000000
38000000
FE000000
C6000000
C6000000
ENDCHAR
STARTCHAR 00FF
ENCODING 255
SWIDTH 700 0
DWIDTH 35 0
BBX 27 48 4 0
BITMAP
06318C00
06318C00
06318C00
01C07000
01C07000
07F1FC00
06318C00
06318C00
00000000
00000000
C6000C60
C6000C60
C6000C60
38000380
38000380
FE000FE0
C6000C60
C6000C60
38000380
38000380
FE000FE0
C6000C60
C6000C60
38000380
38000380
FE000FE0
C6000C60
C6000C60
38000380
38000380
FE318FE0
C6318C60
C6318C60
39CE7380
39CE7380
3FFFFF80
06318C00
06318C00
000E0000
000E0000
003F8000
00318000
00318000
000E0000
000E0000
003F8000
00318000
00318000
ENDCHAR
STARTCHAR 0100
ENCODING 256
SWIDTH 700 0
DWIDTH 35 0
BBX 27 48 4 0
BITMAP
06318C00
06318C00
06318C00
01CE7000
01CE7000
07FFFC00
06318C00
06318C00
00000000
00000000
00318000
00318000
00318000
01CE7000
01CE7000
07FFFC00
06318C00
06318C00
39C07380
39C07380
FFC07FE0
C6000C60
C6000C60
38000380
38000380
FE000FE0
C6000C60
C6000C60
38000380
38000380
FE318FE0
C6318C60
C6318C60
39CE7380
39CE7380
FFFFFFE0
C6318C60
C6318C60
38000380
38000380
FE000FE0
C6000C60
C6000C60
38000380
38000380
FE000FE0
C6000C60
C6000C60
ENDCHAR
STARTCHAR 0101
ENCODING 257
SWIDTH 700 0
DWIDTH 35 0
BBX 27 48 4 0
BITMAP
06318C00
06318C00
06318C00
01CE7000
01CE7000
07FFFC00
06318C00
06318C00
00000000
00000000
06318C00
06318C00
06318C00
39CE7380
39CE7380
FFFFFFE0
C6318C60
C6318C60
38000380
38000380
FE000FE0
C6000C60
C6000C60
38000380
38000380
FE000FE0
C6000C60
C6000C60
38000380
38000380
FE318FE0
C6318C60
C6318C60
39CE7380
39CE7380
FFFFFFE0
C6318C60
C6318C60
38000380
38000380
FE000FE0
C6000C60
C6000C60
38000380
38000380
FE000FE0
C6000C60
C6000C60
ENDCHAR
STARTCHAR 0102
ENCODING 258
SWIDTH 700 0
DWIDTH 35 0
BBX 27 53 4 0
BITMAP
39C07380
39C07380
39C07380
06000C00
06000C00
3FCE7F80
39CE7380
39CE7380
06318C00
06318C00
07FFFC00
01CE7000
01CE7000
00000000
00000000
00318000
00318000
00318000
01CE7000
01CE7000
07FFFC00
06318C00
06318C00
39C07380
39C07380
FFC07FE0
C6000C60
C6000C60
38000380
38000380
FE000FE0
C6000C60
C6000C60
38000380
38000380
FE318FE0
C6318C60
C6318C60
39CE7380
39CE7380
FFFFFFE0
C6318C60
C6318C60
38000380
38000380
FE000FE0
C6000C60
C6000C60
38000380
38000380
FE000FE0
C6000C60
C6000C60
ENDCHAR
STARTCHAR 0103
ENCODING 259
SWIDTH 700 0
DWIDTH 35 0
BBX 27 53 4 0
BITMAP
39C07380
39C07380
39C07380
06000C00
06000C00
3FCE7F80
39CE7380
39CE7380
06318C00
06318C00
07FFFC00
01CE7000
01CE7000
00000000
00000000
06318C00
06318C00
06318C00
39CE7380
39CE7380
FFFFFFE0
C6318C60
C6318C60
38000380
38000380
FE000FE0
C6000C60
C6000C60
38000380
38000380
FE000FE0
C6000C60
C6000C60
38000380
38000380
FE318FE0
C6318C60
C6318C60
39CE7380
39CE7380
FFFFFFE0
C6318C60
C6318C60
38000380
38000380
FE000FE0
C6000C60
C6000C60
38000380
38000380
FE000FE0
C6000C60
C6000C60
ENDCHAR
STARTCHAR 0104
ENCODING 260
SWIDTH 700 0
DWIDTH 35 0
BBX 32 48 4 -10
BITMAP
00318000
00318000
00318000
01CE7000
01CE7000
07FFFC00
06318C00
06318C00
39C07380
39C07380
FFC07FE0
C6000C60
C6000C60
38000380
38000380
FE000FE0
C6000C60
C6000C60
38000380
38000380
FE318FE0
C6318C60
C6318C60
39CE7380
39CE7380
FFFFFFE0
C6318C60
C6318C60
38000380
38000380
FE000FE0
C6000C60
C6000C60
38000380
38000380
FE000FE0
C6000C60
C6000C60
00000380
00000380
00000FE3
00000C63
00000C63
0000039C
0000039C
000003FF
00000063
00000063
ENDCHAR
STARTCHAR 0105
ENCODING 261
SWIDTH 700 0
DWIDTH 35 0
BBX 32 48 4 -10
BITMAP
06318C00
06318C00
06318C00
39CE7380
39CE7380
FFFFFFE0
C6318C60
C6318C60
38000380
38000380
FE000FE0
C6000C60
C6000C60
38000380
38000380
FE000FE0
C6000C60
C6000C60
38000380
38000380
FE318FE0
C6318C60
C6318C60
39CE7380
39CE7380
FFFFFFE0
C6318C60
C6318C60
38000380
38000380
FE000FE0
C6000C60
C6000C60
38000380
38000380
FE000FE0
C6000C60
C6000C60
00000380
00000380
00000FE3
00000C63
00000C63
0000039C
0000039C
000003FF
00000063
00000063
ENDCHAR
STARTCHAR 0106
ENCODING 262
SWIDTH 800 0
DWIDTH 40 0
BBX 32 53 4 0
BITMAP
00000C60
00000C60
00000C60
00007380
00007380
0001FF80
00018C00
00018C00
000E7000
000E7000
003FF000
00318000
00318000
00000000
00000000
00318C00
00318C00
00318C00
01CE7380
01CE7380
07FFFFE0
06318C60
06318C60
39C0039C
39C0039C
FFC003FF
C6000063
C6000063
3800001C
3800001C
FE00007F
C6000063
C6000063
38000000
38000000
FE000000
C6000000
C6000000
38000000
38000000
FE000063
C6000063
C6000063
39C0039C
39C0039C
3FF18FFC
06318C60
06318C60
01CE7380
01CE7380
01FFFF80
00318C00
00318C00
ENDCHAR
STARTCHAR 0107
ENCODING 263
SWIDTH 700 0
DWIDTH 35 0
BBX 27 53 4 0
BITMAP
00007380
00007380
00007380
00018C00
00018C00
000FFC00
000E7000
000E7000
00318000
00318000
01FF8000
01CE0000
01CE0000
00000000
00000000
06318C00
06318C00
06318C00
39CE7380
39CE7380
FFFFFFE0
C6318C60
C6318C60
38000380
38000380
FE000FE0
C6000C60
C6000C60
38000380
38000380
FE000FE0
C6000C60
C6000C60
38000000
38000000
FE000000
C6000000
C6000000
38000000
38000000
FE000C60
C6000C60
C6000C60
38000380
38000380
FE318FE0
C6318C60
C6318C60
39CE7380
39CE7380
3FFFFF80
06318C00
06318C00
ENDCHAR
STARTCHAR 010A
ENCODING 266
SWIDTH 800 0
DWIDTH 40 0
BBX 32 48 4 0
BITMAP
000E7000
000E7000
000E7000
00018000
00018000
000FF000
000E7000
000E7000
00000000
00000000
00318C00
00318C00
00318C00
01CE7380
01CE7380
07FFFFE0
06318C60
06318C60
39C0039C
39C0039C
FFC003FF
C6000063
C6000063
3800001C
3800001C
FE00007F
C6000063
C6000063
38000000
38000000
FE000000
C6000000
C6000000
38000000
38000000
FE000063
C6000063
C6000063
39C0039C
39C0039C
3FF18FFC
06318C60
06318C60
01CE7380
01CE7380
01FFFF80
00318C00
00318C00
ENDCHAR
STARTCHAR 010B
ENCODING 267
SWIDTH 700 0
DWIDTH 35 0
BBX 27 48 4 0
BITMAP
00318000
00318000
00318000
000E0000
000E0000
003F8000
00318000
00318000
00000000
00000000
06318C00
06318C00
06318C00
39CE7380
39CE7380
FFFFFFE0
C6318C60
C6318C60
38000380
38000380
FE000FE0
C6000C60
C6000C60
38000380
38000380
FE000FE0
C6000C60
C6000C60
38000000
38000000
FE000000
C6000000
C6000000
38000000
38000000
FE000C60
C6000C60
C6000C60
38000380
38000380
FE318FE0
C6318C60
C6318C60
39CE7380
39CE7380
3FFFFF80
06318C00
06318C00
ENDCHAR
STARTCHAR 010C
ENCODING 268
SWIDTH 800 0
DWIDTH 40 0
BBX 32 53 4 0
BITMAP
01CE7380
01CE7380
01CE7380
00300C00
00300C00
01FE7F80
01CE7380
01CE7380
00318C00
00318C00
003FFC00
000E7000
000E7000
00000000
00000000
00318C00
00318C00
00318C00
01CE7380
01CE7380
07FFFFE0
06318C60
06318C60
39C0039C
39C0039C
FFC003FF
C6000063
C6000063
3800001C
3800001C
FE00007F
C6000063
C6000063
38000000
38000000
FE000000
C6000000
C6000000
38000000
38000000
FE000063
C6000063
C6000063
39C0039C
39C0039C
3FF18FFC
06318C60
06318C60
01CE7380
01CE7380
01FFFF80
00318C00
00318C00
ENDCHAR
STARTCHAR 010D
ENCODING 269
SWIDTH 700 0
DWIDTH 35 0
BBX 27 53 4 0
BITMAP
06318C00
06318C00
06318C00
01C07000
01C07000
07F1FC00
06318C00
06318C00
01CE7000
01CE7000
01FFF000
00318000
00318000
00000000
00000000
06318C00
06318C00
06318C00
39CE7380
39CE7380
FFFFFFE0
C6318C60
C6318C60
38000380
38000380
FE000FE0
C6000C60
C6000C60
38000380
38000380
FE000FE0
C6000C60
C6000C60
38000000
38000000
FE000000
C6000000
C6000000
38000000
38000000
FE000C60
C6000C60
C6000C60
38000380
38000380
FE318FE0
C6318C60
C6318C60
39CE7380
39CE7380
3FFFFF80
06318C00
06318C00
ENDCHAR
STARTCHAR 010E
ENCODING 270
SWIDTH 800 0
DWIDTH 40 0
BBX 32 53 4 0
BITMAP
01CE7380
01CE7380
01CE7380
00300C00
00300C00
01FE7F80
01CE7380
01CE7380
00318C00
00318C00
003FFC00
000E7000
000E7000
00000000
00000000
C6318C00
C6318C00
C6318C00
39CE7380
39CE7380
FFFFFFE0
C6318C60
C6318C60
3800039C
3800039C
FE0003FF
C6000063
C6000063
3800001C
3800001C
FE00007F
C6000063
C6000063
3800001C
3800001C
FE00007F
C6000063
C6000063
3800001C
3800001C
FE00007F
C6000063
C6000063
3800039C
3800039C
FE318FFC
C6318C60
C6318C60
39CE7380
39CE7380
FFFFFF80
C6318C00
C6318C00
ENDCHAR
STARTCHAR 010F
ENCODING 271
SWIDTH 700 0
DWIDTH 35 0
BBX 27 53 4 0
BITMAP
06318C00
06318C00
06318C00
01C07000
01C07000
07F1FC00
06318C00
06318C00
01CE7000
01CE7000
01FFF000
00318000
00318000
00000000
00000000
C6318C00
C6318C00
C6318C00
39CE7380
39CE7380
FFFFFFE0
C6318C60
C6318C60
38000380
38000380
FE000FE0
C6000C60
C6000C60
38000380
38000380
FE000FE0
C6000C60
C6000C60
38000380
38000380
FE000FE0
C6000C60
C6000C60
38000380
38000380
FE000FE0
C6000C60
C6000C60
38000380
38000380
FE318FE0
C6318C60
C6318C60
39CE7380
39CE7380
FFFFFF80
C6318C00
C6318C00
ENDCHAR
STARTCHAR 0110
ENCODING 272
SWIDTH 840 0
DWIDTH 42 0
BBX 38 38 1 0
BITMAP
0739CE7000
0739CE7000
0739CE7000
00C6318C00
00C6318C00
07FFFFFF80
0739CE7380
0739CE7380
00C0000C60
00C0000C60
07F8000FFC
073800039C
073800039C
00C0000060
00C0000060
E7F9C003FC
E739C0039C
E739C0039C
18C6000060
18C6000060
FFFFC003FC
E739C0039C
E739C0039C
00C0000060
00C0000060
07F80003FC
073800039C
073800039C
00C0000C60
00C0000C60
07F9CE7FE0
0739CE7380
0739CE7380
00C6318C00
00C6318C00
07FFFFFC00
0739CE7000
0739CE7000
ENDCHAR
STARTCHAR 0111
ENCODING 273
SWIDTH 740 0
DWIDTH 37 0
BBX 33 38 1 0
BITMAP
0739CE7000
0739CE7000
0739CE7000
00C6318C00
00C6318C00
07FFFFFF80
0739CE7380
0739CE7380
00C0000C00
00C0000C00
07F8007F80
0738007380
0738007380
00C0000C00
00C0000C00
E7F9C07F80
E739C07380
E739C07380
18C6000C00
18C6000C00
FFFFC07F80
E739C07380
E739C07380
00C0000C00
00C0000C00
07F8007F80
0738007380
0738007380
00C0000C00
00C0000C00
07F9CE7F80
0739CE7380
0739CE7380
00C6318C00
00C6318C00
07FFFFFC00
0739CE7000
0739CE7000
ENDCHAR
STARTCHAR 0112
ENCODING 274
SWIDTH 700 0
DWIDTH 35 0
BBX 27 48 4 0
BITMAP
06318C00
06318C00
06318C00
01CE7000
01CE7000
07FFFC00
06318C00
06318C00
00000000
00000000
00318C60
00318C60
00318C60
01CE7380
01CE7380
07FFFFE0
06318C60
06318C60
39C00000
39C00000
FFC00000
C6000000
C6000000
38000000
38000000
FE318C00
C6318C00
C6318C00
39CE7000
39CE7000
FFFFFC00
C6318C00
C6318C00
38000000
38000000
FE000000
C6000000
C6000000
39C00000
39C00000
3FF18C60
06318C60
06318C60
01CE7380
01CE7380
01FFFFE0
00318C60
00318C60
ENDCHAR
STARTCHAR 0113
ENCODING 275
SWIDTH 700 0
DWIDTH 35 0
BBX 27 48 4 0
BITMAP
06318C00
06318C00
06318C00
01CE7000
01CE7000
07FFFC00
06318C00
06318C00
00000000
00000000
06318C60
06318C60
06318C60
39CE7380
39CE7380
FFFFFFE0
C6318C60
C6318C60
38000000
38000000
FE000000
C6000000
C6000000
38000000
38000000
FE318C00
C6318C00
C6318C00
39CE7000
39CE7000
FFFFFC00
C6318C00
C6318C00
38000000
38000000
FE000000
C6000000
C6000000
38000000
38000000
FE318C60
C6318C60
C6318C60
39CE7380
39CE7380
3FFFFFE0
06318C60
06318C60
ENDCHAR
STARTCHAR 0116
ENCODING 278
SWIDTH 700 0
DWIDTH 35 0
BBX 27 48 4 0
BITMAP
00318000
00318000
00318000
000E0000
000E0000
003F8000
00318000
00318000
00000000
00000000
00318C60
00318C60
00318C60
01CE7380
01CE7380
07FFFFE0
06318C60
06318C60
39C00000
39C00000
FFC00000
C6000000
C6000000
38000000
38000000
FE318C00
C6318C00
C6318C00
39CE7000
39CE7000
FFFFFC00
C6318C00
C6318C00
38000000
38000000
FE000000
C6000000
C6000000
39C00000
39C00000
3FF18C60
06318C60
06318C60
01CE7380
01CE7380
01FFFFE0
00318C60
00318C60
ENDCHAR
STARTCHAR 0117
ENCODING 279
SWIDTH 700 0
DWIDTH 35 0
BBX 27 48 4 0
BITMAP
00318000
00318000
00318000
000E0000
000E0000
003F8000
00318000
00318000
00000000
00000000
06318C60
06318C60
06318C60
39CE7380
39CE7380
FFFFFFE0
C6318C60
C6318C60
38000000
38000000
FE000000
C6000000
C6000000
38000000
38000000
FE318C00
C6318C00
C6318C00
39CE7000
39CE7000
FFFFFC00
C6318C00
C6318C00
38000000
38000000
FE000000
C6000000
C6000000
38000000
38000000
FE318C60
C6318C60
C6318C60
39CE7380
39CE7380
3FFFFFE0
06318C60
06318C60
ENDCHAR
STARTCHAR 0118
ENCODING 280
SWIDTH 700 0
DWIDTH 35 0
BBX 32 48 4 -10
BITMAP
00318C60
00318C60
00318C60
01CE7380
01CE7380
07FFFFE0
06318C60
06318C60
39C00000
39C00000
FFC00000
C6000000
C6000000
38000000
38000000
FE318C00
C6318C00
C6318C00
39CE7000
39CE7000
FFFFFC00
C6318C00
C6318C00
38000000
38000000
FE000000
C6000000
C6000000
39C00000
39C00000
3FF18C60
06318C60
06318C60
01CE7380
01CE7380
01FFFFE0
00318C60
00318C60
00000380
00000380
00000FE3
00000C63
00000C63
0000039C
0000039C
000003FF
00000063
00000063
ENDCHAR
STARTCHAR 0119
ENCODING 281
SWIDTH 700 0
DWIDTH 35 0
BBX 32 48 4 -10
BITMAP
06318C60
06318C60
06318C60
39CE7380
39CE7380
FFFFFFE0
C6318C60
C6318C60
38000000
38000000
FE000000
C6000000
C6000000
38000000
38000000
FE318C00
C6318C00
C6318C00
39CE7000
39CE7000
FFFFFC00
C6318C00
C6318C00
38000000
38000000
FE000000
C6000000
C6000000
38000000
38000000
FE318C60
C6318C60
C6318C60
39CE7380
39CE7380
3FFFFFE0
06318C60
06318C60
00000380
00000380
00000FE3
00000C63
00000C63
0000039C
0000039C
000003FF
00000063
00000063
ENDCHAR
STARTCHAR 011A
ENCODING 282
SWIDTH 700 0
DWIDTH 35 0
BBX 27 53 4 0
BITMAP
06318C00
06318C00
06318C00
01C07000
01C07000
07F1FC00
06318C00
06318C00
01CE7000
01CE7000
01FFF000
00318000
00318000
00000000
00000000
00318C60
00318C60
00318C60
01CE7380
01CE7380
07FFFFE0
06318C60
06318C60
39C00000
39C00000
FFC00000
C6000000
C6000000
38000000
38000000
FE318C00
C6318C00
C6318C00
39CE7000
39CE7000
FFFFFC00
C6318C00
C6318C00
38000000
38000000
FE000000
C6000000
C6000000
39C00000
39C00000
3FF18C60
06318C60
06318C60
01CE7380
01CE7380
01FFFFE0
00318C60
00318C60
ENDCHAR
STARTCHAR 011B
ENCODING 283
SWIDTH 700 0
DWIDTH 35 0
BBX 27 53 4 0
BITMAP
06318C00
06318C00
06318C00
01C07000
01C07000
07F1FC00
06318C00
06318C00
01CE7000
01CE7000
01FFF000
00318000
00318000
00000000
00000000
06318C60
06318C60
06318C60
39CE7380
39CE7380
FFFFFFE0
C6318C60
C6318C60
38000000
38000000
FE000000
C6000000
C6000000
38000000
38000000
FE318C00
C6318C00
C6318C00
39CE7000
39CE7000
FFFFFC00
C6318C00
C6318C00
38000000
38000000
FE000000
C6000000
C6000000
38000000
38000000
FE318C60
C6318C60
C6318C60
39CE7380
39CE7380
3FFFFFE0
06318C60
06318C60
ENDCHAR
STARTCHAR 011E
ENCODING 286
SWIDTH 800 0
DWIDTH 40 0
BBX 32 53 4 0
BITMAP
06300C60
06300C60
06300C60
01C00380
01C00380
07F18FE0
06318C60
06318C60
01CE7380
01CE7380
01FFFF80
00318C00
00318C00
00000000
00000000
00318C63
00318C63
00318C63
01CE739C
01CE739C
07FFFFFF
06318C63
06318C63
39C00000
39C00000
FFC00000
C6000000
C6000000
38000000
38000000
FE018C63
C6018C63
C6018C63
3800739C
3800739C
FE01FFFF
C6018C63
C6018C63
3800001C
3800001C
FE00007F
C6000063
C6000063
39C0001C
39C0001C
3FF18C7F
06318C63
06318C63
01CE739C
01CE739C
01FFFFFF
00318C63
00318C63
ENDCHAR
STARTCHAR 011F
ENCODING 287
SWIDTH 700 0
DWIDTH 35 0
BBX 27 53 4 0
BITMAP
39C07380
39C07380
39C07380
06000C00
06000C00
3FCE7F80
39CE7380
39CE7380
06318C00
06318C00
07FFFC00
01CE7000
01CE7000
00000000
00000000
06318C60
06318C60
06318C60
39CE7380
39CE7380
FFFFFFE0
C6318C60
C6318C60
38000000
38000000
FE000000
C6000000
C6000000
38000000
38000000
FE018C60
C6018C60
C6018C60
38007380
38007380
FE01FFE0
C6018C60
C6018C60
38000380
38000380
FE000FE0
C6000C60
C6000C60
38000380
38000380
FE318FE0
C6318C60
C6318C60
39CE7380
39CE7380
3FFFFF80
06318C00
06318C00
ENDCHAR
STARTCHAR 0120
ENCODING 288
SWIDTH 800 0
DWIDTH 40 0
BBX 32 48 4 0
BITMAP
000E7000
000E7000
000E7000
00018000
00018000
000FF000
000E7000
000E7000
00000000
00000000
00318C63
00318C63
00318C63
01CE739C
01CE739C
07FFFFFF
06318C63
06318C63
39C00000
39C00000
FFC00000
C6000000
C6000000
38000000
38000000
FE018C63
C6018C63
C6018C63
3800739C
3800739C
FE01FFFF
C6018C63
C6018C63
3800001C
3800001C
FE00007F
C6000063
C6000063
39C0001C
39C0001C
3FF18C7F
06318C63
06318C63
01CE739C
01CE739C
01FFFFFF
00318C63
00318C63
ENDCHAR
STARTCHAR 0121
ENCODING 289
SWIDTH 700 0
DWIDTH 35 0
BBX 27 48 4 0
BITMAP
00318000
00318000
00318000
000E0000
000E0000
003F8000
00318000
00318000
00000000
00000000
06318C60
06318C60
06318C60
39CE7380
39CE7380
FFFFFFE0
C6318C60
C6318C60
38000000
38000000
FE000000
C6000000
C6000000
38000000
38000000
FE018C60
C6018C60
C6018C60
38007380
38007380
FE01FFE0
C6018C60
C6018C60
38000380
38000380
FE000FE0
C6000C60
C6000C60
38000380
38000380
FE318FE0
C6318C60
C6318C60
39CE7380
39CE7380
3FFFFF80
06318C00
06318C00
ENDCHAR
STARTCHAR 0122
ENCODING 290
SWIDTH 800 0
DWIDTH 40 0
BBX 32 53 4 -15
BITMAP
00318C63
00318C63
00318C63
01CE739C
01CE739C
07FFFFFF
06318C63
06318C63
39C00000
39C00000
FFC00000
C6000000
C6000000
38000000
38000000
FE018C63
C6018C63
C6018C63
3800739C
3800739C
FE01FFFF
C6018C63
C6018C63
3800001C
3800001C
FE00007F
C6000063
C6000063
39C0001C
39C0001C
3FF18C7F
06318C63
06318C63
01CE739C
01CE739C
01FFFFFF
00318C63
00318C63
00000000
00000000
000E7000
000E7000
000E7000
00018000
00018000
000FF000
000E7000
000E7000
00018000
00018000
000F8000
000E0000
000E0000
ENDCHAR
STARTCHAR 0123
ENCODING 291
SWIDTH 700 0
DWIDTH 35 0
BBX 27 53 4 -15
BITMAP
06318C60
06318C60
06318C60
39CE7380
39CE7380
FFFFFFE0
C6318C60
C6318C60
38000000
38000000
FE000000
C6000000
C6000000
38000000
38000000
FE018C60
C6018C60
C6018C60
38007380
38007380
FE01FFE0
C6018C60
C6018C60
38000380
38000380
FE000FE0
C6000C60
C6000C60
38000380
38000380
FE318FE0
C6318C60
C6318C60
39CE7380
39CE7380
3FFFFF80
06318C00
06318C00
00000000
00000000
00318000
00318000
00318000
000E0000
000E0000
003F8000
00318000
00318000
000E0000
000E0000
003E0000
00300000
00300000
ENDCHAR
STARTCHAR 0126
ENCODING 294
SWIDTH 900 0
DWIDTH 45 0
BBX 43 38 1 0
BITMAP
073800039C00
073800039C00
073800039C00
00C000006000
00C000006000
E7F9CE73FCE0
E739CE739CE0
E739CE739CE0
18C6318C6300
18C6318C6300
FFFFFFFFFFE0
E739CE739CE0
E739CE739CE0
00C000006000
00C000006000
07F9CE73FC00
0739CE739C00
0739CE739C00
00C6318C6000
00C6318C6000
07FFFFFFFC00
0739CE739C00
0739CE739C00
00C000006000
00C000006000
07F80003FC00
073800039C00
073800039C00
00C000006000
00C000006000
07F80003FC00
073800039C00
073800039C00
00C000006000
00C000006000
07F80003FC00
073800039C00
073800039C00
ENDCHAR
STARTCHAR 0127
ENCODING 295
SWIDTH 800 0
DWIDTH 40 0
BBX 38 38 1 0
BITMAP
0738007380
0738007380
0738007380
00C0000C00
00C0000C00
E7F9CE7F9C
E739CE739C
E739CE739C
18C6318C60
18C6318C60
FFFFFFFFFC
E739CE739C
E739CE739C
00C0000C00
00C0000C00
07F9CE7F80
0739CE7380
0739CE7380
00C6318C00
00C6318C00
07FFFFFF80
0739CE7380
0739CE7380
00C0000C00
00C0000C00
07F8007F80
0738007380
0738007380
00C0000C00
00C0000C00
07F8007F80
0738007380
0738007380
00C0000C00
00C0000C00
07F8007F80
0738007380
0738007380
ENDCHAR
STARTCHAR 0128
ENCODING 296
SWIDTH 500 0
DWIDTH 25 0
BBX 27 53 -1 0
BITMAP
06300C60
06300C60
06300C60
39CE0380
39CE0380
FFFF8FE0
C6318C60
C6318C60
380E7380
380E7380
FE0FFF80
C6018C00
C6018C00
00000000
00000000
06318C00
06318C00
06318C00
01CE7000
01CE7000
07FFFC00
06318C00
06318C00
000E0000
000E0000
003F8000
00318000
00318000
000E0000
000E0000
003F8000
00318000
00318000
000E0000
000E0000
003F8000
00318000
00318000
000E0000
000E0000
003F8000
00318000
00318000
000E0000
000E0000
063F8C00
06318C00
06318C00
01CE7000
01CE7000
07FFFC00
06318C00
06318C00
ENDCHAR
STARTCHAR 0129
ENCODING 297
SWIDTH 300 0
DWIDTH 15 0
BBX 27 53 -6 0
BITMAP
06300C60
06300C60
06300C60
39CE0380
39CE0380
FFFF8FE0
C6318C60
C6318C60
380E7380
380E7380
FE0FFF80
C6018C00
C6018C00
00000000
00000000
00318000
00318000
00318000
000E0000
000E0000
003F8000
00318000
00318000
000E0000
000E0000
003F8000
00318000
00318000
000E0000
000E0000
003F8000
00318000
00318000
000E0000
000E0000
003F8000
00318000
00318000
000E0000
000E0000
003F8000
00318000
00318000
000E0000
000E0000
003F8000
00318000
00318000
000E0000
000E0000
003F8000
00318000
00318000
ENDCHAR
STARTCHAR 012A
ENCODING 298
SWIDTH 500 0
DWIDTH 25 0
BBX 17 48 4 0
BITMAP
C63180
C63180
C63180
39CE00
39CE00
FFFF80
C63180
C63180
000000
000000
C63180
C63180
C63180
39CE00
39CE00
FFFF80
C63180
C63180
01C000
01C000
07F000
063000
063000
01C000
01C000
07F000
063000
063000
01C000
01C000
07F000
063000
063000
01C000
01C000
07F000
063000
063000
01C000
01C000
C7F180
C63180
C63180
39CE00
39CE00
FFFF80
C63180
C63180
ENDCHAR
STARTCHAR 012B
ENCODING 299
SWIDTH 300 0
DWIDTH 15 0
BBX 17 48 -1 0
BITMAP
C63180
C63180
C63180
39CE00
39CE00
FFFF80
C63180
C63180
000000
000000
063000
063000
063000
01C000
01C000
07F000
063000
063000
01C000
01C000
07F000
063000
063000
01C000
01C000
07F000
063000
063000
01C000
01C000
07F000
063000
063000
01C000
01C000
07F000
063000
063000
01C000
01C000
07F000
063000
063000
01C000
01C000
07F000
063000
063000
ENDCHAR
STARTCHAR 012E
ENCODING 302
SWIDTH 500 0
DWIDTH 25 0
BBX 22 48 4 -10
BITMAP
C63180
C63180
C63180
39CE00
39CE00
FFFF80
C63180
C63180
01C000
01C000
07F000
063000
063000
01C000
01C000
07F000
063000
063000
01C000
01C000
07F000
063000
063000
01C000
01C000
07F000
063000
063000
01C000
01C000
C7F180
C63180
C63180
39CE00
39CE00
FFFF80
C63180
C63180
000E00
000E00
003F8C
00318C
00318C
000E70
000E70
000FFC
00018C
00018C
ENDCHAR
STARTCHAR 012F
ENCODING 303
SWIDTH 300 0
DWIDTH 15 0
BBX 12 48 4 -10
BITMAP
C600
C600
C600
3800
3800
FE00
C600
C600
3800
3800
FE00
C600
C600
3800
3800
FE00
C600
C600
3800
3800
FE00
C600
C600
3800
3800
FE00
C600
C600
3800
3800
FE00
C600
C600
3800
3800
FE00
C600
C600
3800
3800
FE30
C630
C630
39C0
39C0
3FF0
0630
0630
ENDCHAR
STARTCHAR 0130
ENCODING 304
SWIDTH 500 0
DWIDTH 25 0
BBX 17 48 4 0
BITMAP
063000
063000
063000
01C000
01C000
07F000
063000
063000
000000
000000
C63180
C63180
C63180
39CE00
39CE00
FFFF80
C63180
C63180
01C000
01C000
07F000
063000
063000
01C000
01C000
07F000
063000
063000
01C000
01C000
07F000
063000
063000
01C000
01C000
07F000
063000
063000
01C000
01C000
C7F180
C63180
C63180
39CE00
39CE00
FFFF80
C63180
C63180
ENDCHAR
STARTCHAR 0131
ENCODING 305
SWIDTH 300 0
DWIDTH 15 0
BBX 7 38 4 0
BITMAP
C6
C6
C6
38
38
FE
C6
C6
38
38
FE
C6
C6
38
38
FE
C6
C6
38
38
FE
C6
C6
38
38
FE
C6
C6
38
38
FE
C6
C6
38
38
FE
C6
C6
ENDCHAR
STARTCHAR 0136
ENCODING 310
SWIDTH 700 0
DWIDTH 35 0
BBX 27 53 4 -15
BITMAP
C6000C60
C6000C60
C6000C60
38000380
38000380
FE000FE0
C6000C60
C6000C60
38007380
38007380
FE01FF80
C6018C00
C6018C00
380E7000
380E7000
FE3FF000
C6318000
C6318000
39CE0000
39CE0000
FFFF8000
C6318000
C6318000
380E7000
380E7000
FE0FFC00
C6018C00
C6018C00
38007380
38007380
FE007FE0
C6000C60
C6000C60
38000380
38000380
FE000FE0
C6000C60
C6000C60
00000000
00000000
00318000
00318000
00318000
000E0000
000E0000
003F8000
00318000
00318000
000E0000
000E0000
003E0000
00300000
00300000
ENDCHAR
STARTCHAR 0137
ENCODING 311
SWIDTH 700 0
DWIDTH 35 0
BBX 27 53 4 -15
BITMAP
C6000C60
C6000C60
C6000C60
38000380
38000380
FE000FE0
C6000C60
C6000C60
38000380
38000380
FE000FE0
C6000C60
C6000C60
38007380
38007380
FE31FF80
C6318C00
C6318C00
39CE7000
39CE7000
FFFFFC00
C6318C00
C6318C00
38007380
38007380
FE007FE0
C6000C60
C6000C60
38000380
38000380
FE000FE0
C6000C60
C6000C60
38000380
38000380
FE000FE0
C6000C60
C6000C60
00000000
00000000
00318000
00318000
00318000
000E0000
000E0000
003F8000
00318000
00318000
000E0000
000E0000
003E0000
00300000
00300000
ENDCHAR
STARTCHAR 0139
ENCODING 313
SWIDTH 700 0
DWIDTH 35 0
BBX 30 53 1 0
BITMAP
0039C000
0039C000
0039C000
00C60000
00C60000
07FE0000
07380000
07380000
18C00000
18C00000
FFC00000
E7000000
E7000000
00000000
00000000
18C00000
18C00000
18C00000
07000000
07000000
1FC00000
18C00000
18C00000
07000000
07000000
1FC00000
18C00000
18C00000
07000000
07000000
1FC00000
18C00000
18C00000
07000000
07000000
1FC00000
18C00000
18C00000
07000000
07000000
1FC00000
18C00000
18C00000
07000000
07000000
1FC6318C
18C6318C
18C6318C
0739CE70
0739CE70
07FFFFFC
00C6318C
00C6318C
ENDCHAR
STARTCHAR 013A
ENCODING 314
SWIDTH 600 0
DWIDTH 30 0
BBX 25 53 1 0
BITMAP
0039C000
0039C000
0039C000
00C60000
00C60000
07FE0000
07380000
07380000
18C00000
18C00000
FFC00000
E7000000
E7000000
00000000
00000000
18C00000
18C00000
18C00000
07000000
07000000
1FC00000
18C00000
18C00000
07000000
07000000
1FC00000
18C00000
18C00000
07000000
07000000
1FC00000
18C00000
18C00000
07000000
07000000
1FC00000
18C00000
18C00000
07000000
07000000
1FC00000
18C00000
18C00000
07000000
07000000
1FC63180
18C63180
18C63180
0739CE00
0739CE00
07FFFF80
00C63180
00C63180
ENDCHAR
STARTCHAR 013B
ENCODING 315
SWIDTH 700 0
DWIDTH 35 0
BBX 27 53 4 -15
BITMAP
C6000000
C6000000
C6000000
38000000
38000000
FE000000
C6000000
C6000000
38000000
38000000
FE000000
C6000000
C6000000
38000000
38000000
FE000000
C6000000
C6000000
38000000
38000000
FE000000
C6000000
C6000000
38000000
38000000
FE000000
C6000000
C6000000
38000000
38000000
FE318C60
C6318C60
C6318C60
39CE7380
39CE7380
3FFFFFE0
06318C60
06318C60
00000000
00000000
00318000
00318000
00318000
000E0000
000E0000
003F8000
00318000
00318000
000E0000
000E0000
003E0000
00300000
00300000
ENDCHAR
STARTCHAR 013C
ENCODING 316
SWIDTH 600 0
DWIDTH 30 0
BBX 22 53 4 -15
BITMAP
C60000
C60000
C60000
380000
380000
FE0000
C60000
C60000
380000
380000
FE0000
C60000
C60000
380000
380000
FE0000
C60000
C60000
380000
380000
FE0000
C60000
C60000
380000
380000
FE0000
C60000
C60000
380000
380000
FE318C
C6318C
C6318C
39CE70
39CE70
3FFFFC
06318C
06318C
000000
000000
01CE00
01CE00
01CE00
003000
003000
01FE00
01CE00
01CE00
003000
003000
01F000
01C000
01C000
ENDCHAR
STARTCHAR 013D
ENCODING 317
SWIDTH 700 0
DWIDTH 35 0
BBX 27 38 4 0
BITMAP
C6000C60
C6000C60
C6000C60
38000380
38000380
FE000FE0
C6000C60
C6000C60
38000380
38000380
FE000F80
C6000C00
C6000C00
38000000
38000000
FE000000
C6000000
C6000000
38000000
38000000
FE000000
C6000000
C6000000
38000000
38000000
FE000000
C6000000
C6000000
38000000
38000000
FE318C60
C6318C60
C6318C60
39CE7380
39CE7380
3FFFFFE0
06318C60
06318C60
ENDCHAR
STARTCHAR 013E
ENCODING 318
SWIDTH 600 0
DWIDTH 30 0
BBX 22 38 4 0
BITMAP
C6018C
C6018C
C6018C
380070
380070
FE01FC
C6018C
C6018C
380070
380070
FE01F0
C60180
C60180
380000
380000
FE0000
C60000
C60000
380000
380000
FE0000
C60000
C60000
380000
380000
FE0000
C60000
C60000
380000
380000
FE318C
C6318C
C6318C
39CE70
39CE70
3FFFFC
06318C
06318C
ENDCHAR
STARTCHAR 0141
ENCODING 321
SWIDTH 740 0
DWIDTH 37 0
BBX 33 38 1 0
BITMAP
0738000000
0738000000
0738000000
00C0000000
00C0000000
07F8000000
0738000000
0738000000
00C0000000
00C0000000
07F9C00000
0739C00000
0739C00000
00C6000000
00C6000000
E7FFC00000
E739C00000
E739C00000
18C0000000
18C0000000
FFF8000000
E738000000
E738000000
00C0000000
00C0000000
07F8000000
0738000000
0738000000
00C0000000
00C0000000
07F9CE7380
0739CE7380
0739CE7380
00C6318C00
00C6318C00
00FFFFFF80
0039CE7380
0039CE7380
ENDCHAR
STARTCHAR 0142
ENCODING 322
SWIDTH 640 0
DWIDTH 32 0
BBX 28 38 1 0
BITMAP
07380000
07380000
07380000
00C00000
00C00000
07F80000
07380000
07380000
00C00000
00C00000
07F9C000
0739C000
0739C000
00C60000
00C60000
E7FFC000
E739C000
E739C000
18C00000
18C00000
FFF80000
E7380000
E7380000
00C00000
00C00000
07F80000
07380000
07380000
00C00000
00C00000
07F9CE70
0739CE70
0739CE70
00C63180
00C63180
00FFFFF0
0039CE70
0039CE70
ENDCHAR
STARTCHAR 0143
ENCODING 323
SWIDTH 800 0
DWIDTH 40 0
BBX 32 53 4 0
BITMAP
00000C60
00000C60
00000C60
00007380
00007380
0001FF80
00018C00
00018C00
000E7000
000E7000
003FF000
00318000
00318000
00000000
00000000
C6000063
C6000063
C6000063
39C0001C
39C0001C
FFF0007F
C6300063
C6300063
39CE001C
39CE001C
FFFF807F
C6318063
C6318063
380E701C
380E701C
FE0FFC7F
C6018C63
C6018C63
3800739C
3800739C
FE007FFF
C6000C63
C6000C63
3800039C
3800039C
FE0003FF
C6000063
C6000063
3800001C
3800001C
FE00007F
C6000063
C6000063
3800001C
3800001C
FE00007F
C6000063
C6000063
ENDCHAR
STARTCHAR 0144
ENCODING 324
SWIDTH 700 0
DWIDTH 35 0
BBX 27 53 4 0
BITMAP
00007380
00007380
00007380
00018C00
00018C00
000FFC00
000E7000
000E7000
00318000
00318000
01FF8000
01CE0000
01CE0000
00000000
00000000
C6000C60
C6000C60
C6000C60
39C00380
39C00380
FFF00FE0
C6300C60
C6300C60
39CE0380
39CE0380
FFFF8FE0
C6318C60
C6318C60
380E7380
380E7380
FE0FFFE0
C6018C60
C6018C60
38007380
38007380
FE007FE0
C6000C60
C6000C60
38000380
38000380
FE000FE0
C6000C60
C6000C60
38000380
38000380
FE000FE0
C6000C60
C6000C60
38000380
38000380
FE000FE0
C6000C60
C6000C60
ENDCHAR
STARTCHAR 0145
ENCODING 325
SWIDTH 800 0
DWIDTH 40 0
BBX 32 53 4 -15
BITMAP
C6000063
C6000063
C6000063
39C0001C
39C0001C
FFF0007F
C6300063
C6300063
39CE001C
39CE001C
FFFF807F
C6318063
C6318063
380E701C
380E701C
FE0FFC7F
C6018C63
C6018C63
3800739C
3800739C
FE007FFF
C6000C63
C6000C63
3800039C
3800039C
FE0003FF
C6000063
C6000063
3800001C
3800001C
FE00007F
C6000063
C6000063
3800001C
3800001C
FE00007F
C6000063
C6000063
00000000
00000000
000E7000
000E7000
000E7000
00018000
00018000
000FF000
000E7000
000E7000
00018000
00018000
000F8000
000E0000
000E0000
ENDCHAR
STARTCHAR 0146
ENCODING 326
SWIDTH 700 0
DWIDTH 35 0
BBX 27 53 4 -15
BITMAP
C6000C60
C6000C60
C6000C60
39C00380
39C00380
FFF00FE0
C6300C60
C6300C60
39CE0380
39CE0380
FFFF8FE0
C6318C60
C6318C60
380E7380
380E7380
FE0FFFE0
C6018C60
C6018C60
38007380
38007380
FE007FE0
C6000C60
C6000C60
38000380
38000380
FE000FE0
C6000C60
C6000C60
38000380
38000380
FE000FE0
C6000C60
C6000C60
38000380
38000380
FE000FE0
C6000C60
C6000C60
00000000
00000000
00318000
00318000
00318000
000E0000
000E0000
003F8000
00318000
00318000
000E0000
000E0000
003E0000
00300000
00300000
ENDCHAR
STARTCHAR 0147
ENCODING 327
SWIDTH 800 0
DWIDTH 40 0
BBX 32 53 4 0
BITMAP
01CE7380
01CE7380
01CE7380
00300C00
00300C00
01FE7F80
01CE7380
01CE7380
00318C00
00318C00
003FFC00
000E7000
000E7000
00000000
00000000
C6000063
C6000063
C6000063
39C0001C
39C0001C
FFF0007F
C6300063
C6300063
39CE001C
39CE001C
FFFF807F
C6318063
C6318063
380E701C
380E701C
FE0FFC7F
C6018C63
C6018C63
3800739C
3800739C
FE007FFF
C6000C63
C6000C63
3800039C
3800039C
FE0003FF
C6000063
C6000063
3800001C
3800001C
FE00007F
C6000063
C6000063
3800001C
3800001C
FE00007F
C6000063
C6000063
ENDCHAR
STARTCHAR 0148
ENCODING 328
SWIDTH 700 0
DWIDTH 35 0
BBX 27 53 4 0
BITMAP
06318C00
06318C00
06318C00
01C07000
01C07000
07F1FC00
06318C00
06318C00
01CE7000
01CE7000
01FFF000
00318000
00318000
00000000
00000000
C6000C60
C6000C60
C6000C60
39C00380
39C00380
FFF00FE0
C6300C60
C6300C60
39CE0380
39CE0380
FFFF8FE0
C6318C60
C6318C60
380E7380
380E7380
FE0FFFE0
C6018C60
C6018C60
38007380
38007380
FE007FE0
C6000C60
C6000C60
38000380
38000380
FE000FE0
C6000C60
C6000C60
38000380
38000380
FE000FE0
C6000C60
C6000C60
38000380
38000380
FE000FE0
C6000C60
C6000C60
ENDCHAR
STARTCHAR 014A
ENCODING 330
SWIDTH 800 0
DWIDTH 40 0
BBX 32 48 4 -10
BITMAP
C6000063
C6000063
C6000063
39C0001C
39C0001C
FFF0007F
C6300063
C6300063
39CE001C
39CE001C
FFFF807F
C6318063
C6318063
380E701C
380E701C
FE0FFC7F
C6018C63
C6018C63
3800739C
3800739C
FE007FFF
C6000C63
C6000C63
3800039C
3800039C
FE0003FF
C6000063
C6000063
3800001C
3800001C
FE00007F
C6000063
C6000063
3800001C
3800001C
FE00007F
C6000063
C6000063
0000001C
0000001C
00000C7F
00000C63
00000C63
0000039C
0000039C
00000FFC
00000C60
00000C60
ENDCHAR
STARTCHAR 014B
ENCODING 331
SWIDTH 700 0
DWIDTH 35 0
BBX 27 48 4 -10
BITMAP
C6000C60
C6000C60
C6000C60
39C00380
39C00380
FFF00FE0
C6300C60
C6300C60
39CE0380
39CE0380
FFFF8FE0
C6318C60
C6318C60
380E7380
380E7380
FE0FFFE0
C6018C60
C6018C60
38007380
38007380
FE007FE0
C6000C60
C6000C60
38000380
38000380
FE000FE0
C6000C60
C6000C60
38000380
38000380
FE000FE0
C6000C60
C6000C60
38000380
38000380
FE000FE0
C6000C60
C6000C60
00000380
00000380
00018FE0
00018C60
00018C60
00007380
00007380
0001FF80
00018C00
00018C00
ENDCHAR
STARTCHAR 014C
ENCODING 332
SWIDTH 800 0
DWIDTH 40 0
BBX 32 48 4 0
BITMAP
01CE7380
01CE7380
01CE7380
00318C00
00318C00
01FFFF80
01CE7380
01CE7380
00000000
00000000
00318C00
00318C00
00318C00
01CE7380
01CE7380
07FFFFE0
06318C60
06318C60
39C0039C
39C0039C
FFC003FF
C6000063
C6000063
3800001C
3800001C
FE00007F
C6000063
C6000063
3800001C
3800001C
FE00007F
C6000063
C6000063
3800001C
3800001C
FE00007F
C6000063
C6000063
39C0039C
39C0039C
3FF18FFC
06318C60
06318C60
01CE7380
01CE7380
01FFFF80
00318C00
00318C00
ENDCHAR
STARTCHAR 014D
ENCODING 333
SWIDTH 700 0
DWIDTH 35 0
BBX 27 48 4 0
BITMAP
06318C00
06318C00
06318C00
01CE7000
01CE7000
07FFFC00
06318C00
06318C00
00000000
00000000
06318C00
06318C00
06318C00
39CE7380
39CE7380
FFFFFFE0
C6318C60
C6318C60
38000380
38000380
FE000FE0
C6000C60
C6000C60
38000380
38000380
FE000FE0
C6000C60
C6000C60
38000380
38000380
FE000FE0
C6000C60
C6000C60
38000380
38000380
FE000FE0
C6000C60
C6000C60
38000380
38000380
FE318FE0
C6318C60
C6318C60
39CE7380
39CE7380
3FFFFF80
06318C00
06318C00
ENDCHAR
STARTCHAR 0150
ENCODING 336
SWIDTH 800 0
DWIDTH 40 0
BBX 35 53 4 0
BITMAP
000E701CE0
000E701CE0
000E701CE0
0031806300
0031806300
01FF83FF00
01CE039C00
01CE039C00
06300C6000
06300C6000
3FF07FE000
39C0738000
39C0738000
0000000000
0000000000
00318C0000
00318C0000
00318C0000
01CE738000
01CE738000
07FFFFE000
06318C6000
06318C6000
39C0039C00
39C0039C00
FFC003FF00
C600006300
C600006300
3800001C00
3800001C00
FE00007F00
C600006300
C600006300
3800001C00
3800001C00
FE00007F00
C600006300
C600006300
3800001C00
3800001C00
FE00007F00
C600006300
C600006300
39C0039C00
39C0039C00
3FF18FFC00
06318C6000
06318C6000
01CE738000
01CE738000
01FFFF8000
00318C0000
00318C0000
ENDCHAR
STARTCHAR 0151
ENCODING 337
SWIDTH 700 0
DWIDTH 35 0
BBX 32 53 4 0
BITMAP
00318063
00318063
00318063
01CE039C
01CE039C
07FE0FFC
06300C60
06300C60
39C07380
39C07380
FFC1FF80
C6018C00
C6018C00
00000000
00000000
06318C00
06318C00
06318C00
39CE7380
39CE7380
FFFFFFE0
C6318C60
C6318C60
38000380
38000380
FE000FE0
C6000C60
C6000C60
38000380
38000380
FE000FE0
C6000C60
C6000C60
38000380
38000380
FE000FE0
C6000C60
C6000C60
38000380
38000380
FE000FE0
C6000C60
C6000C60
38000380
38000380
FE318FE0
C6318C60
C6318C60
39CE7380
39CE7380
3FFFFF80
06318C00
06318C00
ENDCHAR
STARTCHAR 0152
ENCODING 338
SWIDTH 1200 0
DWIDTH 60 0
BBX 52 38 4 0
BITMAP
00318C0018C630
00318C0018C630
00318C0018C630
01CE7380E739C0
01CE7380E739C0
07FFFFE3FFFFF0
06318C6318C630
06318C6318C630
39C0039CE00000
39C0039CE00000
FFC003FFE00000
C6000063000000
C6000063000000
3800001C000000
3800001C000000
FE00007F18C600
C600006318C600
C600006318C600
3800001CE73800
3800001CE73800
FE00007FFFFE00
C600006318C600
C600006318C600
3800001C000000
3800001C000000
FE00007F000000
C6000063000000
C6000063000000
39C0039CE00000
39C0039CE00000
3FF18FFFF8C630
06318C6318C630
06318C6318C630
01CE7380E739C0
01CE7380E739C0
01FFFF80FFFFF0
00318C0018C630
00318C0018C630
ENDCHAR
STARTCHAR 0153
ENCODING 339
SWIDTH 1100 0
DWIDTH 55 0
BBX 47 38 4 0
BITMAP
06318C6318C6
06318C6318C6
06318C6318C6
39CE739CE738
39CE739CE738
FFFFFFFFFFFE
C6318C6318C6
C6318C6318C6
380003800000
380003800000
FE000FE00000
C6000C600000
C6000C600000
380003800000
380003800000
FE000FE318C0
C6000C6318C0
C6000C6318C0
3800039CE700
3800039CE700
FE000FFFFFC0
C6000C6318C0
C6000C6318C0
380003800000
380003800000
FE000FE00000
C6000C600000
C6000C600000
380003800000
380003800000
FE318FE318C6
C6318C6318C6
C6318C6318C6
39CE739CE738
39CE739CE738
3FFFFFFFFFFE
06318C6318C6
06318C6318C6
ENDCHAR
STARTCHAR 0154
ENCODING 340
SWIDTH 700 0
DWIDTH 35 0
BBX 27 53 4 0
BITMAP
00007380
00007380
00007380
00018C00
00018C00
000FFC00
000E7000
000E7000
00318000
00318000
01FF8000
01CE0000
01CE0000
00000000
00000000
C6318000
C6318000
C6318000
39CE7000
39CE7000
FFFFFC00
C6318C00
C6318C00
38007380
38007380
FE007FE0
C6000C60
C6000C60
38000380
38000380
FE000FE0
C6000C60
C6000C60
38000380
38000380
FE000FE0
C6000C60
C6000C60
38007380
38007380
FE31FF80
C6318C00
C6318C00
39CE7000
39CE7000
FFFFFC00
C6318C00
C6318C00
38007380
38007380
FE007FE0
C6000C60
C6000C60
ENDCHAR
STARTCHAR 0155
ENCODING 341
SWIDTH 700 0
DWIDTH 35 0
BBX 27 53 4 0
BITMAP
00007380
00007380
00007380
00018C00
00018C00
000FFC00
000E7000
000E7000
00318000
00318000
01FF8000
01CE0000
01CE0000
00000000
00000000
C6318C00
C6318C00
C6318C00
39CE7380
39CE7380
FFFFFFE0
C6318C60
C6318C60
38000380
38000380
FE000FE0
C6000C60
C6000C60
38000380
38000380
FE000FE0
C6000C60
C6000C60
38000380
38000380
FE318FE0
C6318C60
C6318C60
39CE7380
39CE7380
FFFFFF80
C6318C00
C6318C00
38007380
38007380
FE007FE0
C6000C60
C6000C60
38000380
38000380
FE000FE0
C6000C60
C6000C60
ENDCHAR
STARTCHAR 0156
ENCODING 342
SWIDTH 700 0
DWIDTH 35 0
BBX 27 53 4 -15
BITMAP
C6318000
C6318000
C6318000
39CE7000
39CE7000
FFFFFC00
C6318C00
C6318C00
38007380
38007380
FE007FE0
C6000C60
C6000C60
38000380
38000380
FE000FE0
C6000C60
C6000C60
38000380
38000380
FE000FE0
C6000C60
C6000C60
38007380
38007380
FE31FF80
C6318C00
C6318C00
39CE7000
39CE7000
FFFFFC00
C6318C00
C6318C00
38007380
38007380
FE007FE0
C6000C60
C6000C60
00000000
00000000
00318000
00318000
00318000
000E0000
000E0000
003F8000
00318000
00318000
000E0000
000E0000
003E0000
00300000
00300000
ENDCHAR
STARTCHAR 0157
ENCODING 343
SWIDTH 700 0
DWIDTH 35 0
BBX 27 53 4 -15
BITMAP
C6318C00
C6318C00
C6318C00
39CE7380
39CE7380
FFFFFFE0
C6318C60
C6318C60
38000380
38000380
FE000FE0
C6000C60
C6000C60
38000380
38000380
FE000FE0
C6000C60
C6000C60
38000380
38000380
FE318FE0
C6318C60
C6318C60
39CE7380
39CE7380
FFFFFF80
C6318C00
C6318C00
38007380
38007380
FE007FE0
C6000C60
C6000C60
38000380
38000380
FE000FE0
C6000C60
C6000C60
00000000
00000000
00318000
00318000
00318000
000E0000
000E0000
003F8000
00318000
00318000
000E0000
000E0000
003E0000
00300000
00300000
ENDCHAR
STARTCHAR 0158
ENCODING 344
SWIDTH 700 0
DWIDTH 35 0
BBX 27 53 4 0
BITMAP
06318C00
06318C00
06318C00
01C07000
01C07000
07F1FC00
06318C00
06318C00
01CE7000
01CE7000
01FFF000
00318000
00318000
00000000
00000000
C6318000
C6318000
C6318000
39CE7000
39CE7000
FFFFFC00
C6318C00
C6318C00
38007380
38007380
FE007FE0
C6000C60
C6000C60
38000380
38000380
FE000FE0
C6000C60
C6000C60
38000380
38000380
FE000FE0
C6000C60
C6000C60
38007380
38007380
FE31FF80
C6318C00
C6318C00
39CE7000
39CE7000
FFFFFC00
C6318C00
C6318C00
38007380
38007380
FE007FE0
C6000C60
C6000C60
ENDCHAR
STARTCHAR 0159
ENCODING 345
SWIDTH 700 0
DWIDTH 35 0
BBX 27 53 4 0
BITMAP
06318C00
06318C00
06318C00
01C07000
01C07000
07F1FC00
06318C00
06318C00
01CE7000
01CE7000
01FFF000
00318000
00318000
00000000
00000000
C6318C00
C6318C00
C6318C00
39CE7380
39CE7380
FFFFFFE0
C6318C60
C6318C60
38000380
38000380
FE000FE0
C6000C60
C6000C60
38000380
38000380
FE000FE0
C6000C60
C6000C60
38000380
38000380
FE318FE0
C6318C60
C6318C60
39CE7380
39CE7380
FFFFFF80
C6318C00
C6318C00
38007380
38007380
FE007FE0
C6000C60
C6000C60
38000380
38000380
FE000FE0
C6000C60
C6000C60
ENDCHAR
STARTCHAR 015A
ENCODING 346
SWIDTH 700 0
DWIDTH 35 0
BBX 27 53 4 0
BITMAP
00007380
00007380
00007380
00018C00
00018C00
000FFC00
000E7000
000E7000
00318000
00318000
01FF8000
01CE0000
01CE0000
00000000
00000000
06318C00
06318C00
06318C00
39CE7380
39CE7380
FFFFFFE0
C6318C60
C6318C60
38000380
38000380
FE000FE0
C6000C60
C6000C60
38000000
38000000
FE318C00
C6318C00
C6318C00
39CE7380
39CE7380
3FFFFFE0
06318C60
06318C60
00000380
00000380
C6000FE0
C6000C60
C6000C60
38000380
38000380
FE318FE0
C6318C60
C6318C60
39CE7380
39CE7380
3FFFFF80
06318C00
06318C00
ENDCHAR
STARTCHAR 015B
ENCODING 347
SWIDTH 700 0
DWIDTH 35 0
BBX 27 53 4 0
BITMAP
00007380
00007380
00007380
00018C00
00018C00
000FFC00
000E7000
000E7000
00318000
00318000
01FF8000
01CE0000
01CE0000
00000000
00000000
06318C00
06318C00
06318C00
39CE7380
39CE7380
FFFFFFE0
C6318C60
C6318C60
38000380
38000380
FE000FE0
C6000C60
C6000C60
38000000
38000000
FE318C00
C6318C00
C6318C00
39CE7380
39CE7380
3FFFFFE0
06318C60
06318C60
00000380
00000380
C6000FE0
C6000C60
C6000C60
38000380
38000380
FE318FE0
C6318C60
C6318C60
39CE7380
39CE7380
3FFFFF80
06318C00
06318C00
ENDCHAR
STARTCHAR 015E
ENCODING 350
SWIDTH 700 0
DWIDTH 35 0
BBX 27 48 4 -10
BITMAP
06318C00
06318C00
06318C00
39CE7380
39CE7380
FFFFFFE0
C6318C60
C6318C60
38000380
38000380
FE000FE0
C6000C60
C6000C60
38000000
38000000
FE318C00
C6318C00
C6318C00
39CE7380
39CE7380
3FFFFFE0
06318C60
06318C60
00000380
00000380
C6000FE0
C6000C60
C6000C60
38000380
38000380
FE318FE0
C6318C60
C6318C60
39CE7380
39CE7380
3FFFFF80
06318C00
06318C00
000E0000
000E0000
063F8000
06318000
06318000
01CE0000
01CE0000
07FE0000
06300000
06300000
ENDCHAR
STARTCHAR 015F
ENCODING 351
SWIDTH 700 0
DWIDTH 35 0
BBX 27 48 4 -10
BITMAP
06318C00
06318C00
06318C00
39CE7380
39CE7380
FFFFFFE0
C6318C60
C6318C60
38000380
38000380
FE000FE0
C6000C60
C6000C60
38000000
38000000
FE318C00
C6318C00
C6318C00
39CE7380
39CE7380
3FFFFFE0
06318C60
06318C60
00000380
00000380
C6000FE0
C6000C60
C6000C60
38000380
38000380
FE318FE0
C6318C60
C6318C60
39CE7380
39CE7380
3FFFFF80
06318C00
06318C00
000E0000
000E0000
063F8000
06318000
06318000
01CE0000
01CE0000
07FE0000
06300000
06300000
ENDCHAR
STARTCHAR 0160
ENCODING 352
SWIDTH 700 0
DWIDTH 35 0
BBX 27 53 4 0
BITMAP
06318C00
06318C00
06318C00
01C07000
01C07000
07F1FC00
06318C00
06318C00
01CE7000
01CE7000
01FFF000
00318000
00318000
00000000
00000000
06318C00
06318C00
06318C00
39CE7380
39CE7380
FFFFFFE0
C6318C60
C6318C60
38000380
38000380
FE000FE0
C6000C60
C6000C60
38000000
38000000
FE318C00
C6318C00
C6318C00
39CE7380
39CE7380
3FFFFFE0
06318C60
06318C60
00000380
00000380
C6000FE0
C6000C60
C6000C60
38000380
38000380
FE318FE0
C6318C60
C6318C60
39CE7380
39CE7380
3FFFFF80
06318C00
06318C00
ENDCHAR
STARTCHAR 0161
ENCODING 353
SWIDTH 700 0
DWIDTH 35 0
BBX 27 53 4 0
BITMAP
06318C00
06318C00
06318C00
01C07000
01C07000
07F1FC00
06318C00
06318C00
01CE7000
01CE7000
01FFF000
00318000
00318000
00000000
00000000
06318C00
06318C00
06318C00
39CE7380
39CE7380
FFFFFFE0
C6318C60
C6318C60
38000380
38000380
FE000FE0
C6000C60
C6000C60
38000000
38000000
FE318C00
C6318C00
C6318C00
39CE7380
39CE7380
3FFFFFE0
06318C60
06318C60
00000380
00000380
C6000FE0
C6000C60
C6000C60
38000380
38000380
FE318FE0
C6318C60
C6318C60
39CE7380
39CE7380
3FFFFF80
06318C00
06318C00
ENDCHAR
STARTCHAR 0162
ENCODING 354
SWIDTH 700 0
DWIDTH 35 0
BBX 27 48 4 -10
BITMAP
C6318C60
C6318C60
C6318C60
39CE7380
39CE7380
FFFFFFE0
C6318C60
C6318C60
000E0000
000E0000
003F8000
00318000
00318000
000E0000
000E0000
003F8000
00318000
00318000
000E0000
000E0000
003F8000
00318000
00318000
000E0000
000E0000
003F8000
00318000
00318000
000E0000
000E0000
003F8000
00318000
00318000
000E0000
000E0000
003F8000
00318000
00318000
000E0000
000E0000
063F8000
06318000
06318000
01CE0000
01CE0000
07FE0000
06300000
06300000
ENDCHAR
STARTCHAR 0163
ENCODING 355
SWIDTH 700 0
DWIDTH 35 0
BBX 27 48 4 -10
BITMAP
C6318C60
C6318C60
C6318C60
39CE7380
39CE7380
FFFFFFE0
C6318C60
C6318C60
000E0000
000E0000
003F8000
00318000
00318000
000E0000
000E0000
003F8000
00318000
00318000
000E0000
000E0000
003F8000
00318000
00318000
000E0000
000E0000
003F8000
00318000
00318000
000E0000
000E0000
003F8000
00318000
00318000
000E0000
000E0000
003F8000
00318000
00318000
000E0000
000E0000
063F8000
06318000
06318000
01CE0000
01CE0000
07FE0000
06300000
06300000
ENDCHAR
STARTCHAR 0164
ENCODING 356
SWIDTH 700 0
DWIDTH 35 0
BBX 27 53 4 0
BITMAP
06318C00
06318C00
06318C00
01C07000
01C07000
07F1FC00
06318C00
06318C00
01CE7000
01CE7000
01FFF000
00318000
00318000
00000000
00000000
C6318C60
C6318C60
C6318C60
39CE7380
39CE7380
FFFFFFE0
C6318C60
C6318C60
000E0000
000E0000
003F8000
00318000
00318000
000E0000
000E0000
003F8000
00318000
00318000
000E0000
000E0000
003F8000
00318000
00318000
000E0000
000E0000
003F8000
00318000
00318000
000E0000
000E0000
003F8000
00318000
00318000
000E0000
000E0000
003F8000
00318000
00318000
ENDCHAR
STARTCHAR 0165
ENCODING 357
SWIDTH 700 0
DWIDTH 35 0
BBX 27 53 4 0
BITMAP
06318C00
06318C00
06318C00
01C07000
01C07000
07F1FC00
06318C00
06318C00
01CE7000
01CE7000
01FFF000
00318000
00318000
00000000
00000000
C6318C60
C6318C60
C6318C60
39CE7380
39CE7380
FFFFFFE0
C6318C60
C6318C60
000E0000
000E0000
003F8000
00318000
00318000
000E0000
000E0000
003F8000
00318000
00318000
000E0000
000E0000
003F8000
00318000
00318000
000E0000
000E0000
003F8000
00318000
00318000
000E0000
000E0000
003F8000
00318000
00318000
000E0000
000E0000
003F8000
00318000
00318000
ENDCHAR
STARTCHAR 0166
ENCODING 358
SWIDTH 700 0
DWIDTH 35 0
BBX 27 38 4 0
BITMAP
C6318C60
C6318C60
C6318C60
39CE7380
39CE7380
FFFFFFE0
C6318C60
C6318C60
000E0000
000E0000
003F8000
00318000
00318000
000E0000
000E0000
063F8C00
06318C00
06318C00
01CE7000
01CE7000
07FFFC00
06318C00
06318C00
000E0000
000E0000
003F8000
00318000
00318000
000E0000
000E0000
003F8000
00318000
00318000
000E0000
000E0000
003F8000
00318000
00318000
ENDCHAR
STARTCHAR 0167
ENCODING 359
SWIDTH 700 0
DWIDTH 35 0
BBX 27 38 4 0
BITMAP
C6318C60
C6318C60
C6318C60
39CE7380
39CE7380
FFFFFFE0
C6318C60
C6318C60
000E0000
000E0000
003F8000
00318000
00318000
000E0000
000E0000
063F8C00
06318C00
06318C00
01CE7000
01CE7000
07FFFC00
06318C00
06318C00
000E0000
000E0000
003F8000
00318000
00318000
000E0000
000E0000
003F8000
00318000
00318000
000E0000
000E0000
003F8000
00318000
00318000
ENDCHAR
STARTCHAR 0168
ENCODING 360
SWIDTH 800 0
DWIDTH 40 0
BBX 32 53 4 0
BITMAP
01CE039C
01CE039C
01CE039C
06318060
06318060
3FFFF3FC
39CE739C
39CE739C
06018C60
06018C60
3FC1FFE0
39C07380
39C07380
00000000
00000000
C6000063
C6000063
C6000063
3800001C
3800001C
FE00007F
C6000063
C6000063
3800001C
3800001C
FE00007F
C6000063
C6000063
3800001C
3800001C
FE00007F
C6000063
C6000063
3800001C
3800001C
FE00007F
C6000063
C6000063
3800001C
3800001C
FE00007F
C6000063
C6000063
39C0039C
39C0039C
3FF18FFC
06318C60
06318C60
01CE7380
01CE7380
01FFFF80
00318C00
00318C00
ENDCHAR
STARTCHAR 0169
ENCODING 361
SWIDTH 700 0
DWIDTH 35 0
BBX 27 53 4 0
BITMAP
06300C60
06300C60
06300C60
39CE0380
39CE0380
FFFF8FE0
C6318C60
C6318C60
380E7380
380E7380
FE0FFF80
C6018C00
C6018C00
00000000
00000000
C6000C60
C6000C60
C6000C60
38000380
38000380
FE000FE0
C6000C60
C6000C60
38000380
38000380
FE000FE0
C6000C60
C6000C60
38000380
38000380
FE000FE0
C6000C60
C6000C60
38000380
38000380
FE000FE0
C6000C60
C6000C60
38000380
38000380
FE000FE0
C6000C60
C6000C60
38000380
38000380
FE318FE0
C6318C60
C6318C60
39CE7380
39CE7380
3FFFFF80
06318C00
06318C00
ENDCHAR
STARTCHAR 016A
ENCODING 362
SWIDTH 800 0
DWIDTH 40 0
BBX 32 48 4 0
BITMAP
01CE7380
01CE7380
01CE7380
00318C00
00318C00
01FFFF80
01CE7380
01CE7380
00000000
00000000
C6000063
C6000063
C6000063
3800001C
3800001C
FE00007F
C6000063
C6000063
3800001C
3800001C
FE00007F
C6000063
C6000063
3800001C
3800001C
FE00007F
C6000063
C6000063
3800001C
3800001C
FE00007F
C6000063
C6000063
3800001C
3800001C
FE00007F
C6000063
C6000063
39C0039C
39C0039C
3FF18FFC
06318C60
06318C60
01CE7380
01CE7380
01FFFF80
00318C00
00318C00
ENDCHAR
STARTCHAR 016B
ENCODING 363
SWIDTH 700 0
DWIDTH 35 0
BBX 27 48 4 0
BITMAP
06318C00
06318C00
06318C00
01CE7000
01CE7000
07FFFC00
06318C00
06318C00
00000000
00000000
C6000C60
C6000C60
C6000C60
38000380
38000380
FE000FE0
C6000C60
C6000C60
38000380
38000380
FE000FE0
C6000C60
C6000C60
38000380
38000380
FE000FE0
C6000C60
C6000C60
38000380
38000380
FE000FE0
C6000C60
C6000C60
38000380
38000380
FE000FE0
C6000C60
C6000C60
38000380
38000380
FE318FE0
C6318C60
C6318C60
39CE7380
39CE7380
3FFFFF80
06318C00
06318C00
ENDCHAR
STARTCHAR 016E
ENCODING 366
SWIDTH 800 0
DWIDTH 40 0
BBX 32 63 4 0
BITMAP
00318C00
00318C00
00318C00
01CE7380
01CE7380
07FFFFE0
06318C60
06318C60
01C00380
01C00380
07F00FE0
06300C60
06300C60
01C00380
01C00380
07F18FE0
06318C60
06318C60
01CE7380
01CE7380
01FFFF80
00318C00
00318C00
00000000
00000000
C6000063
C6000063
C6000063
3800001C
3800001C
FE00007F
C6000063
C6000063
3800001C
3800001C
FE00007F
C6000063
C6000063
3800001C
3800001C
FE00007F
C6000063
C6000063
3800001C
3800001C
FE00007F
C6000063
C6000063
3800001C
3800001C
FE00007F
C6000063
C6000063
39C0039C
39C0039C
3FF18FFC
06318C60
06318C60
01CE7380
01CE7380
01FFFF80
00318C00
00318C00
ENDCHAR
STARTCHAR 016F
ENCODING 367
SWIDTH 700 0
DWIDTH 35 0
BBX 27 63 4 0
BITMAP
01CE7000
01CE7000
01CE7000
06318C00
06318C00
3FFFFF80
39CE7380
39CE7380
06000C00
06000C00
3FC07F80
39C07380
39C07380
06000C00
06000C00
3FCE7F80
39CE7380
39CE7380
06318C00
06318C00
07FFFC00
01CE7000
01CE7000
00000000
00000000
C6000C60
C6000C60
C6000C60
38000380
38000380
FE000FE0
C6000C60
C6000C60
38000380
38000380
FE000FE0
C6000C60
C6000C60
38000380
38000380
FE000FE0
C6000C60
C6000C60
38000380
38000380
FE000FE0
C6000C60
C6000C60
38000380
38000380
FE000FE0
C6000C60
C6000C60
38000380
38000380
FE318FE0
C6318C60
C6318C60
39CE7380
39CE7380
3FFFFF80
06318C00
06318C00
ENDCHAR
STARTCHAR 0170
ENCODING 368
SWIDTH 800 0
DWIDTH 40 0
BBX 35 53 4 0
BITMAP
000E701CE0
000E701CE0
000E701CE0
0031806300
0031806300
01FF83FF00
01CE039C00
01CE039C00
06300C6000
06300C6000
3FF07FE000
39C0738000
39C0738000
0000000000
0000000000
C600006300
C600006300
C600006300
3800001C00
3800001C00
FE00007F00
C600006300
C600006300
3800001C00
3800001C00
FE00007F00
C600006300
C600006300
3800001C00
3800001C00
FE00007F00
C600006300
C600006300
3800001C00
3800001C00
FE00007F00
C600006300
C600006300
3800001C00
3800001C00
FE00007F00
C600006300
C600006300
39C0039C00
39C0039C00
3FF18FFC00
06318C6000
06318C6000
01CE738000
01CE738000
01FFFF8000
00318C0000
00318C0000
ENDCHAR
STARTCHAR 0171
ENCODING 369
SWIDTH 700 0
DWIDTH 35 0
BBX 32 53 4 0
BITMAP
00318063
00318063
00318063
01CE039C
01CE039C
07FE0FFC
06300C60
06300C60
39C07380
39C07380
FFC1FF80
C6018C00
C6018C00
00000000
00000000
C6000C60
C6000C60
C6000C60
38000380
38000380
FE000FE0
C6000C60
C6000C60
38000380
38000380
FE000FE0
C6000C60
C6000C60
38000380
38000380
FE000FE0
C6000C60
C6000C60
38000380
38000380
FE000FE0
C6000C60
C6000C60
38000380
38000380
FE000FE0
C6000C60
C6000C60
38000380
38000380
FE318FE0
C6318C60
C6318C60
39CE7380
39CE7380
3FFFFF80
06318C00
06318C00
ENDCHAR
STARTCHAR 0172
ENCODING 370
SWIDTH 800 0
DWIDTH 40 0
BBX 32 48 4 -10
BITMAP
C6000063
C6000063
C6000063
3800001C
3800001C
FE00007F
C6000063
C6000063
3800001C
3800001C
FE00007F
C6000063
C6000063
3800001C
3800001C
FE00007F
C6000063
C6000063
3800001C
3800001C
FE00007F
C6000063
C6000063
3800001C
3800001C
FE00007F
C6000063
C6000063
39C0039C
39C0039C
3FF18FFC
06318C60
06318C60
01CE7380
01CE7380
01FFFF80
00318C00
00318C00
00007000
00007000
0001FC60
00018C60
00018C60
00007380
00007380
00007FE0
00000C60
00000C60
ENDCHAR
STARTCHAR 0173
ENCODING 371
SWIDTH 700 0
DWIDTH 35 0
BBX 27 48 4 -10
BITMAP
C6000C60
C6000C60
C6000C60
38000380
38000380
FE000FE0
C6000C60
C6000C60
38000380
38000380
FE000FE0
C6000C60
C6000C60
38000380
38000380
FE000FE0
C6000C60
C6000C60
38000380
38000380
FE000FE0
C6000C60
C6000C60
38000380
38000380
FE000FE0
C6000C60
C6000C60
38000380
38000380
FE318FE0
C6318C60
C6318C60
39CE7380
39CE7380
3FFFFF80
06318C00
06318C00
00007000
00007000
0001FC60
00018C60
00018C60
00007380
00007380
00007FE0
00000C60
00000C60
ENDCHAR
STARTCHAR 0174
ENCODING 372
SWIDTH 1100 0
DWIDTH 55 0
BBX 47 53 4 0
BITMAP
00000C600000
00000C600000
00000C600000
0000739C0000
0000739C0000
0001FFFF0000
00018C630000
00018C630000
0000701C0000
0000701C0000
0001FC7F0000
00018C630000
00018C630000
000000000000
000000000000
C6000C6000C6
C6000C6000C6
C6000C6000C6
380003800038
380003800038
FE000FE000FE
C6000C6000C6
C6000C6000C6
380003800038
380003800038
FE000FE000FE
C6000C6000C6
C6000C6000C6
380003800038
380003800038
FE000FE000FE
C6000C6000C6
C6000C6000C6
380003800038
380003800038
FE000FE000FE
C6000C6000C6
C6000C6000C6
380003800038
380003800038
FE000FE000FE
C6000C6000C6
C6000C6000C6
39C0739C0738
39C0739C0738
3FF1FFFF1FF8
06318C6318C0
06318C6318C0
01CE701CE700
01CE701CE700
01FFF01FFF00
003180031800
003180031800
ENDCHAR
STARTCHAR 0175
ENCODING 373
SWIDTH 1100 0
DWIDTH 55 0
BBX 47 53 4 0
BITMAP
00000C600000
00000C600000
00000C600000
0000739C0000
0000739C0000
0001FFFF0000
00018C630000
00018C630000
0000701C0000
0000701C0000
0001FC7F0000
00018C630000
00018C630000
000000000000
000000000000
C6000C6000C6
C6000C6000C6
C6000C6000C6
380003800038
380003800038
FE000FE000FE
C6000C6000C6
C6000C6000C6
380003800038
380003800038
FE000FE000FE
C6000C6000C6
C6000C6000C6
380003800038
380003800038
FE000FE000FE
C6000C6000C6
C6000C6000C6
380003800038
380003800038
FE000FE000FE
C6000C6000C6
C6000C6000C6
380003800038
380003800038
FE000FE000FE
C6000C6000C6
C6000C6000C6
3800739C0038
3800739C0038
FE31FFFF18FE
C6318C6318C6
C6318C6318C6
39CE701CE738
39CE701CE738
3FFFF01FFFF8
0631800318C0
0631800318C0
ENDCHAR
STARTCHAR 0176
ENCODING 374
SWIDTH 700 0
DWIDTH 35 0
BBX 27 53 4 0
BITMAP
00318000
00318000
00318000
01CE7000
01CE7000
07FFFC00
06318C00
06318C00
01C07000
01C07000
07F1FC00
06318C00
06318C00
00000000
00000000
C6000C60
C6000C60
C6000C60
38000380
38000380
FE000FE0
C6000C60
C6000C60
38000380
38000380
FE000FE0
C6000C60
C6000C60
38000380
38000380
FE000FE0
C6000C60
C6000C60
39C07380
39C07380
3FF1FF80
06318C00
06318C00
01CE7000
01CE7000
01FFF000
00318000
00318000
000E0000
000E0000
003F8000
00318000
00318000
000E0000
000E0000
003F8000
00318000
00318000
ENDCHAR
STARTCHAR 0177
ENCODING 375
SWIDTH 700 0
DWIDTH 35 0
BBX 27 53 4 0
BITMAP
00318000
00318000
00318000
01CE7000
01CE7000
07FFFC00
06318C00
06318C00
01C07000
01C07000
07F1FC00
06318C00
06318C00
00000000
00000000
C6000C60
C6000C60
C6000C60
38000380
38000380
FE000FE0
C6000C60
C6000C60
38000380
38000380
FE000FE0
C6000C60
C6000C60
38000380
38000380
FE000FE0
C6000C60
C6000C60
38000380
38000380
FE318FE0
C6318C60
C6318C60
39CE7380
39CE7380
3FFFFF80
06318C00
06318C00
000E0000
000E0000
003F8000
00318000
00318000
000E0000
000E0000
003F8000
00318000
00318000
ENDCHAR
STARTCHAR 0178
ENCODING 376
SWIDTH 700 0
DWIDTH 35 0
BBX 27 48 4 0
BITMAP
06318C00
06318C00
06318C00
01C07000
01C07000
07F1FC00
06318C00
06318C00
00000000
00000000
C6000C60
C6000C60
C6000C60
38000380
38000380
FE000FE0
C6000C60
C6000C60
38000380
38000380
FE000FE0
C6000C60
C6000C60
38000380
38000380
FE000FE0
C6000C60
C6000C60
39C07380
39C07380
3FF1FF80
06318C00
06318C00
01CE7000
01CE7000
01FFF000
00318000
00318000
000E0000
000E0000
003F8000
00318000
00318000
000E0000
000E0000
003F8000
00318000
00318000
ENDCHAR
STARTCHAR 0179
ENCODING 377
SWIDTH 700 0
DWIDTH 35 0
BBX 27 53 4 0
BITMAP
00007380
00007380
00007380
00018C00
00018C00
000FFC00
000E7000
000E7000
00318000
00318000
01FF8000
01CE0000
01CE0000
00000000
00000000
C6318C60
C6318C60
C6318C60
39CE7380
39CE7380
FFFFFFE0
C6318C60
C6318C60
00007380
00007380
0001FF80
00018C00
00018C00
000E7000
000E7000
003FF000
00318000
00318000
01CE0000
01CE0000
07FE0000
06300000
06300000
39C00000
39C00000
FFC00000
C6000000
C6000000
38000000
38000000
FE318C60
C6318C60
C6318C60
39CE7380
39CE7380
FFFFFFE0
C6318C60
C6318C60
ENDCHAR
STARTCHAR 017A
ENCODING 378
SWIDTH 700 0
DWIDTH 35 0
BBX 27 53 4 0
BITMAP
00007380
00007380
00007380
00018C00
00018C00
000FFC00
000E7000
000E7000
00318000
00318000
01FF8000
01CE0000
01CE0000
00000000
00000000
C6318C60
C6318C60
C6318C60
39CE7380
39CE7380
FFFFFFE0
C6318C60
C6318C60
00000380
00000380
00000FE0
00000C60
00000C60
00000380
00000380
06318FE0
06318C60
06318C60
39CE7380
39CE7380
FFFFFF80
C6318C00
C6318C00
38000000
38000000
FE000000
C6000000
C6000000
38000000
38000000
FE318C60
C6318C60
C6318C60
39CE7380
39CE7380
FFFFFFE0
C6318C60
C6318C60
ENDCHAR
STARTCHAR 017B
ENCODING 379
SWIDTH 700 0
DWIDTH 35 0
BBX 27 48 4 0
BITMAP
00318000
00318000
00318000
000E0000
000E0000
003F8000
00318000
00318000
00000000
00000000
C6318C60
C6318C60
C6318C60
39CE7380
39CE7380
FFFFFFE0
C6318C60
C6318C60
00007380
00007380
0001FF80
00018C00
00018C00
000E7000
000E7000
003FF000
00318000
00318000
01CE0000
01CE0000
07FE0000
06300000
06300000
39C00000
39C00000
FFC00000
C6000000
C6000000
38000000
38000000
FE318C60
C6318C60
C6318C60
39CE7380
39CE7380
FFFFFFE0
C6318C60
C6318C60
ENDCHAR
STARTCHAR 017C
ENCODING 380
SWIDTH 700 0
DWIDTH 35 0
BBX 27 48 4 0
BITMAP
00318000
00318000
00318000
000E0000
000E0000
003F8000
00318000
00318000
00000000
00000000
C6318C60
C6318C60
C6318C60
39CE7380
39CE7380
FFFFFFE0
C6318C60
C6318C60
00000380
00000380
00000FE0
00000C60
00000C60
00000380
00000380
06318FE0
06318C60
06318C60
39CE7380
39CE7380
FFFFFF80
C6318C00
C6318C00
38000000
38000000
FE000000
C6000000
C6000000
38000000
38000000
FE318C60
C6318C60
C6318C60
39CE7380
39CE7380
FFFFFFE0
C6318C60
C6318C60
ENDCHAR
STARTCHAR 017D
ENCODING 381
SWIDTH 700 0
DWIDTH 35 0
BBX 27 53 4 0
BITMAP
06318C00
06318C00
06318C00
01C07000
01C07000
07F1FC00
06318C00
06318C00
01CE7000
01CE7000
01FFF000
00318000
00318000
00000000
00000000
C6318C60
C6318C60
C6318C60
39CE7380
39CE7380
FFFFFFE0
C6318C60
C6318C60
00007380
00007380
0001FF80
00018C00
00018C00
000E7000
000E7000
003FF000
00318000
00318000
01CE0000
01CE0000
07FE0000
06300000
06300000
39C00000
39C00000
FFC00000
C6000000
C6000000
38000000
38000000
FE318C60
C6318C60
C6318C60
39CE7380
39CE7380
FFFFFFE0
C6318C60
C6318C60
ENDCHAR
STARTCHAR 017E
ENCODING 382
SWIDTH 700 0
DWIDTH 35 0
BBX 27 53 4 0
BITMAP
06318C00
06318C00
06318C00
01C07000
01C07000
07F1FC00
06318C00
06318C00
01CE7000
01CE7000
01FFF000
00318000
00318000
00000000
00000000
C6318C60
C6318C60
C6318C60
39CE7380
39CE7380
FFFFFFE0
C6318C60
C6318C60
00000380
00000380
00000FE0
00000C60
00000C60
00000380
00000380
06318FE0
06318C60
06318C60
39CE7380
39CE7380
FFFFFF80
C6318C00
C6318C00
38000000
38000000
FE000000
C6000000
C6000000
38000000
38000000
FE318C60
C6318C60
C6318C60
39CE7380
39CE7380
FFFFFFE0
C6318C60
C6318C60
ENDCHAR
STARTCHAR 0192
ENCODING 402
SWIDTH 700 0
DWIDTH 35 0
BBX 27 48 4 -10
BITMAP
00018C60
00018C60
00018C60
000E7380
000E7380
003FFFE0
00318C60
00318C60
000E0000
000E0000
003F8000
00318000
00318000
000E0000
000E0000
063F8C00
06318C00
06318C00
01CE7000
01CE7000
07FFFC00
06318C00
06318C00
000E0000
000E0000
003F8000
00318000
00318000
000E0000
000E0000
003F8000
00318000
00318000
000E0000
000E0000
003F8000
00318000
00318000
000E0000
000E0000
C63F8000
C6318000
C6318000
39CE0000
39CE0000
FFFE0000
C6300000
C6300000
ENDCHAR
STARTCHAR 01A0
ENCODING 416
SWIDTH 940 0
DWIDTH 47 0
BBX 42 43 4 0
BITMAP
0000000018C0
0000000018C0
0000000018C0
000000000700
000000000700
06318C631FC0
06318C6318C0
06318C6318C0
39CE739CE700
39CE739CE700
FFFFFFFFFF00
C6318C631800
C6318C631800
3800001C0000
3800001C0000
FE00007F0000
C60000630000
C60000630000
3800001C0000
3800001C0000
FE00007F0000
C60000630000
C60000630000
3800001C0000
3800001C0000
FE00007F0000
C60000630000
C60000630000
3800001C0000
3800001C0000
FE00007F0000
C60000630000
C60000630000
3800001C0000
3800001C0000
FE318C7F0000
C6318C630000
C6318C630000
39CE739C0000
39CE739C0000
3FFFFFFC0000
06318C600000
06318C600000
ENDCHAR
STARTCHAR 01A1
ENCODING 417
SWIDTH 840 0
DWIDTH 42 0
BBX 37 43 4 0
BITMAP
0000000318
0000000318
0000000318
00000000E0
00000000E0
06318C63F8
06318C6318
06318C6318
39CE739CE0
39CE739CE0
FFFFFFFFE0
C6318C6300
C6318C6300
3800038000
3800038000
FE000FE000
C6000C6000
C6000C6000
3800038000
3800038000
FE000FE000
C6000C6000
C6000C6000
3800038000
3800038000
FE000FE000
C6000C6000
C6000C6000
3800038000
3800038000
FE000FE000
C6000C6000
C6000C6000
3800038000
3800038000
FE318FE000
C6318C6000
C6318C6000
39CE738000
39CE738000
3FFFFF8000
06318C0000
06318C0000
ENDCHAR
STARTCHAR 01AF
ENCODING 431
SWIDTH 940 0
DWIDTH 47 0
BBX 42 43 4 0
BITMAP
0000000018C0
0000000018C0
0000000018C0
000000000700
000000000700
C60000631FC0
C600006318C0
C600006318C0
3800001CE700
3800001CE700
FE00007FFF00
C60000631800
C60000631800
3800001C0000
3800001C0000
FE00007F0000
C60000630000
C60000630000
3800001C0000
3800001C0000
FE00007F0000
C60000630000
C60000630000
3800001C0000
3800001C0000
FE00007F0000
C60000630000
C60000630000
3800001C0000
3800001C0000
FE00007F0000
C60000630000
C60000630000
39C0039C0000
39C0039C0000
3FF18FFC0000
06318C600000
06318C600000
01CE73800000
01CE73800000
01FFFF800000
00318C000000
00318C000000
ENDCHAR
STARTCHAR 01B0
ENCODING 432
SWIDTH 840 0
DWIDTH 42 0
BBX 37 43 4 0
BITMAP
0000000318
0000000318
0000000318
00000000E0
00000000E0
C6000C63F8
C6000C6318
C6000C6318
3800039CE0
3800039CE0
FE000FFFE0
C6000C6300
C6000C6300
3800038000
3800038000
FE000FE000
C6000C6000
C6000C6000
3800038000
3800038000
FE000FE000
C6000C6000
C6000C6000
3800038000
3800038000
FE000FE000
C6000C6000
C6000C6000
3800038000
3800038000
FE000FE000
C6000C6000
C6000C6000
3800038000
3800038000
FE318FE000
C6318C6000
C6318C6000
39CE738000
39CE738000
3FFFFF8000
06318C0000
06318C0000
ENDCHAR
STARTCHAR 01CD
ENCODING 461
SWIDTH 700 0
DWIDTH 35 0
BBX 27 53 4 0
BITMAP
06318C00
06318C00
06318C00
01C07000
01C07000
07F1FC00
06318C00
06318C00
01CE7000
01CE7000
01FFF000
00318000
00318000
00000000
00000000
00318000
00318000
00318000
01CE7000
01CE7000
07FFFC00
06318C00
06318C00
39C07380
39C07380
FFC07FE0
C6000C60
C6000C60
38000380
38000380
FE000FE0
C6000C60
C6000C60
38000380
38000380
FE318FE0
C6318C60
C6318C60
39CE7380
39CE7380
FFFFFFE0
C6318C60
C6318C60
38000380
38000380
FE000FE0
C6000C60
C6000C60
38000380
38000380
FE000FE0
C6000C60
C6000C60
ENDCHAR
STARTCHAR 01CE
ENCODING 462
SWIDTH 700 0
DWIDTH 35 0
BBX 27 53 4 0
BITMAP
06318C00
06318C00
06318C00
01C07000
01C07000
07F1FC00
06318C00
06318C00
01CE7000
01CE7000
01FFF000
00318000
00318000
00000000
00000000
06318C00
06318C00
06318C00
39CE7380
39CE7380
FFFFFFE0
C6318C60
C6318C60
38000380
38000380
FE000FE0
C6000C60
C6000C60
38000380
38000380
FE000FE0
C6000C60
C6000C60
38000380
38000380
FE318FE0
C6318C60
C6318C60
39CE7380
39CE7380
FFFFFFE0
C6318C60
C6318C60
38000380
38000380
FE000FE0
C6000C60
C6000C60
38000380
38000380
FE000FE0
C6000C60
C6000C60
ENDCHAR
STARTCHAR 01CF
ENCODING 463
SWIDTH 500 0
DWIDTH 25 0
BBX 17 53 4 0
BITMAP
C63180
C63180
C63180
380E00
380E00
FE3F80
C63180
C63180
39CE00
39CE00
3FFE00
063000
063000
000000
000000
C63180
C63180
C63180
39CE00
39CE00
FFFF80
C63180
C63180
01C000
01C000
07F000
063000
063000
01C000
01C000
07F000
063000
063000
01C000
01C000
07F000
063000
063000
01C000
01C000
07F000
063000
063000
01C000
01C000
C7F180
C63180
C63180
39CE00
39CE00
FFFF80
C63180
C63180
ENDCHAR
STARTCHAR 01D0
ENCODING 464
SWIDTH 300 0
DWIDTH 15 0
BBX 17 53 -1 0
BITMAP
C63180
C63180
C63180
380E00
380E00
FE3F80
C63180
C63180
39CE00
39CE00
3FFE00
063000
063000
000000
000000
063000
063000
063000
01C000
01C000
07F000
063000
063000
01C000
01C000
07F000
063000
063000
01C000
01C000
07F000
063000
063000
01C000
01C000
07F000
063000
063000
01C000
01C000
07F000
063000
063000
01C000
01C000
07F000
063000
063000
01C000
01C000
07F000
063000
063000
ENDCHAR
STARTCHAR 01D1
ENCODING 465
SWIDTH 800 0
DWIDTH 40 0
BBX 32 53 4 0
BITMAP
01CE7380
01CE7380
01CE7380
00300C00
00300C00
01FE7F80
01CE7380
01CE7380
00318C00
00318C00
003FFC00
000E7000
000E7000
00000000
00000000
00318C00
00318C00
00318C00
01CE7380
01CE7380
07FFFFE0
06318C60
06318C60
39C0039C
39C0039C
FFC003FF
C6000063
C6000063
3800001C
3800001C
FE00007F
C6000063
C6000063
3800001C
3800001C
FE00007F
C6000063
C6000063
3800001C
3800001C
FE00007F
C6000063
C6000063
39C0039C
39C0039C
3FF18FFC
06318C60
06318C60
01CE7380
01CE7380
01FFFF80
00318C00
00318C00
ENDCHAR
STARTCHAR 01D2
ENCODING 466
SWIDTH 700 0
DWIDTH 35 0
BBX 27 53 4 0
BITMAP
06318C00
06318C00
06318C00
01C07000
01C07000
07F1FC00
06318C00
06318C00
01CE7000
01CE7000
01FFF000
00318000
00318000
00000000
00000000
06318C00
06318C00
06318C00
39CE7380
39CE7380
FFFFFFE0
C6318C60
C6318C60
38000380
38000380
FE000FE0
C6000C60
C6000C60
38000380
38000380
FE000FE0
C6000C60
C6000C60
38000380
38000380
FE000FE0
C6000C60
C6000C60
38000380
38000380
FE000FE0
C6000C60
C6000C60
38000380
38000380
FE318FE0
C6318C60
C6318C60
39CE7380
39CE7380
3FFFFF80
06318C00
06318C00
ENDCHAR
STARTCHAR 01D3
ENCODING 467
SWIDTH 800 0
DWIDTH 40 0
BBX 32 53 4 0
BITMAP
01CE7380
01CE7380
01CE7380
00300C00
00300C00
01FE7F80
01CE7380
01CE7380
00318C00
00318C00
003FFC00
000E7000
000E7000
00000000
00000000
C6000063
C6000063
C6000063
3800001C
3800001C
FE00007F
C6000063
C6000063
3800001C
3800001C
FE00007F
C6000063
C6000063
3800001C
3800001C
FE00007F
C6000063
C6000063
3800001C
3800001C
FE00007F
C6000063
C6000063
3800001C
3800001C
FE00007F
C6000063
C6000063
39C0039C
39C0039C
3FF18FFC
06318C60
06318C60
01CE7380
01CE7380
01FFFF80
00318C00
00318C00
ENDCHAR
STARTCHAR 01D4
ENCODING 468
SWIDTH 700 0
DWIDTH 35 0
BBX 27 53 4 0
BITMAP
06318C00
06318C00
06318C00
01C07000
01C07000
07F1FC00
06318C00
06318C00
01CE7000
01CE7000
01FFF000
00318000
00318000
00000000
00000000
C6000C60
C6000C60
C6000C60
38000380
38000380
FE000FE0
C6000C60
C6000C60
38000380
38000380
FE000FE0
C6000C60
C6000C60
38000380
38000380
FE000FE0
C6000C60
C6000C60
38000380
38000380
FE000FE0
C6000C60
C6000C60
38000380
38000380
FE000FE0
C6000C60
C6000C60
38000380
38000380
FE318FE0
C6318C60
C6318C60
39CE7380
39CE7380
3FFFFF80
06318C00
06318C00
ENDCHAR
STARTCHAR 01D5
ENCODING 469
SWIDTH 800 0
DWIDTH 40 0
BBX 32 58 4 0
BITMAP
01CE7380
01CE7380
01CE7380
00318C00
00318C00
01FFFF80
01CE7380
01CE7380
00000000
00000000
01CE7380
01CE7380
01CE7380
00300C00
00300C00
01FE7F80
01CE7380
01CE7380
00000000
00000000
C6000063
C6000063
C6000063
3800001C
3800001C
FE00007F
C6000063
C6000063
3800001C
3800001C
FE00007F
C6000063
C6000063
3800001C
3800001C
FE00007F
C6000063
C6000063
3800001C
3800001C
FE00007F
C6000063
C6000063
3800001C
3800001C
FE00007F
C6000063
C6000063
39C0039C
39C0039C
3FF18FFC
06318C60
06318C60
01CE7380
01CE7380
01FFFF80
00318C00
00318C00
ENDCHAR
STARTCHAR 01D6
ENCODING 470
SWIDTH 700 0
DWIDTH 35 0
BBX 27 58 4 0
BITMAP
06318C00
06318C00
06318C00
01CE7000
01CE7000
07FFFC00
06318C00
06318C00
00000000
00000000
06318C00
06318C00
06318C00
01C07000
01C07000
07F1FC00
06318C00
06318C00
00000000
00000000
C6000C60
C6000C60
C6000C60
38000380
38000380
FE000FE0
C6000C60
C6000C60
38000380
38000380
FE000FE0
C6000C60
C6000C60
38000380
38000380
FE000FE0
C6000C60
C6000C60
38000380
38000380
FE000FE0
C6000C60
C6000C60
38000380
38000380
FE000FE0
C6000C60
C6000C60
38000380
38000380
FE318FE0
C6318C60
C6318C60
39CE7380
39CE7380
3FFFFF80
06318C00
06318C00
ENDCHAR
STARTCHAR 01D7
ENCODING 471
SWIDTH 800 0
DWIDTH 40 0
BBX 32 63 4 0
BITMAP
00000C60
00000C60
00000C60
00007380
00007380
0001FF80
00018C00
00018C00
000E7000
000E7000
003FF000
00318000
00318000
00000000
00000000
01CE7380
01CE7380
01CE7380
00300C00
00300C00
01FE7F80
01CE7380
01CE7380
00000000
00000000
C6000063
C6000063
C6000063
3800001C
3800001C
FE00007F
C6000063
C6000063
3800001C
3800001C
FE00007F
C6000063
C6000063
3800001C
3800001C
FE00007F
C6000063
C6000063
3800001C
3800001C
FE00007F
C6000063
C6000063
3800001C
3800001C
FE00007F
C6000063
C6000063
39C0039C
39C0039C
3FF18FFC
06318C60
06318C60
01CE7380
01CE7380
01FFFF80
00318C00
00318C00
ENDCHAR
STARTCHAR 01D8
ENCODING 472
SWIDTH 700 0
DWIDTH 35 0
BBX 27 63 4 0
BITMAP
00007380
00007380
00007380
00018C00
00018C00
000FFC00
000E7000
000E7000
00318000
00318000
01FF8000
01CE0000
01CE0000
00000000
00000000
06318C00
06318C00
06318C00
01C07000
01C07000
07F1FC00
06318C00
06318C00
00000000
00000000
C6000C60
C6000C60
C6000C60
38000380
38000380
FE000FE0
C6000C60
C6000C60
38000380
38000380
FE000FE0
C6000C60
C6000C60
38000380
38000380
FE000FE0
C6000C60
C6000C60
38000380
38000380
FE000FE0
C6000C60
C6000C60
38000380
38000380
FE000FE0
C6000C60
C6000C60
38000380
38000380
FE318FE0
C6318C60
C6318C60
39CE7380
39CE7380
3FFFFF80
06318C00
06318C00
ENDCHAR
STARTCHAR 01D9
ENCODING 473
SWIDTH 800 0
DWIDTH 40 0
BBX 32 63 4 0
BITMAP
01CE7380
01CE7380
01CE7380
00300C00
00300C00
01FE7F80
01CE7380
01CE7380
00318C00
00318C00
003FFC00
000E7000
000E7000
00000000
00000000
01CE7380
01CE7380
01CE7380
00300C00
00300C00
01FE7F80
01CE7380
01CE7380
00000000
00000000
C6000063
C6000063
C6000063
3800001C
3800001C
FE00007F
C6000063
C6000063
3800001C
3800001C
FE00007F
C6000063
C6000063
3800001C
3800001C
FE00007F
C6000063
C6000063
3800001C
3800001C
FE00007F
C6000063
C6000063
3800001C
3800001C
FE00007F
C6000063
C6000063
39C0039C
39C0039C
3FF18FFC
06318C60
06318C60
01CE7380
01CE7380
01FFFF80
00318C00
00318C00
ENDCHAR
STARTCHAR 01DA
ENCODING 474
SWIDTH 700 0
DWIDTH 35 0
BBX 27 63 4 0
BITMAP
06318C00
06318C00
06318C00
01C07000
01C07000
07F1FC00
06318C00
06318C00
01CE7000
01CE7000
01FFF000
00318000
00318000
00000000
00000000
06318C00
06318C00
06318C00
01C07000
01C07000
07F1FC00
06318C00
06318C00
00000000
00000000
C6000C60
C6000C60
C6000C60
38000380
38000380
FE000FE0
C6000C60
C6000C60
38000380
38000380
FE000FE0
C6000C60
C6000C60
38000380
38000380
FE000FE0
C6000C60
C6000C60
38000380
38000380
FE000FE0
C6000C60
C6000C60
38000380
38000380
FE000FE0
C6000C60
C6000C60
38000380
38000380
FE318FE0
C6318C60
C6318C60
39CE7380
39CE7380
3FFFFF80
06318C00
06318C00
ENDCHAR
STARTCHAR 01DB
ENCODING 475
SWIDTH 800 0
DWIDTH 40 0
BBX 32 63 4 0
BITMAP
39C00000
39C00000
39C00000
06300000
06300000
07FE0000
01CE0000
01CE0000
00318000
00318000
003FF000
000E7000
000E7000
00000000
00000000
01CE7380
01CE7380
01CE7380
00300C00
00300C00
01FE7F80
01CE7380
01CE7380
00000000
00000000
C6000063
C6000063
C6000063
3800001C
3800001C
FE00007F
C6000063
C6000063
3800001C
3800001C
FE00007F
C6000063
C6000063
3800001C
3800001C
FE00007F
C6000063
C6000063
3800001C
3800001C
FE00007F
C6000063
C6000063
3800001C
3800001C
FE00007F
C6000063
C6000063
39C0039C
39C0039C
3FF18FFC
06318C60
06318C60
01CE7380
01CE7380
01FFFF80
00318C00
00318C00
ENDCHAR
STARTCHAR 01DC
ENCODING 476
SWIDTH 700 0
DWIDTH 35 0
BBX 27 63 4 0
BITMAP
C6000000
C6000000
C6000000
39C00000
39C00000
3FF00000
06300000
06300000
01CE0000
01CE0000
01FF8000
00318000
00318000
00000000
00000000
06318C00
06318C00
06318C00
01C07000
01C07000
07F1FC00
06318C00
06318C00
00000000
00000000
C6000C60
C6000C60
C6000C60
38000380
38000380
FE000FE0
C6000C60
C6000C60
38000380
38000380
FE000FE0
C6000C60
C6000C60
38000380
38000380
FE000FE0
C6000C60
C6000C60
38000380
38000380
FE000FE0
C6000C60
C6000C60
38000380
38000380
FE000FE0
C6000C60
C6000C60
38000380
38000380
FE318FE0
C6318C60
C6318C60
39CE7380
39CE7380
3FFFFF80
06318C00
06318C00
ENDCHAR
STARTCHAR 0218
ENCODING 536
SWIDTH 700 0
DWIDTH 35 0
BBX 27 53 4 -15
BITMAP
06318C00
06318C00
06318C00
39CE7380
39CE7380
FFFFFFE0
C6318C60
C6318C60
38000380
38000380
FE000FE0
C6000C60
C6000C60
38000000
38000000
FE318C00
C6318C00
C6318C00
39CE7380
39CE7380
3FFFFFE0
06318C60
06318C60
00000380
00000380
C6000FE0
C6000C60
C6000C60
38000380
38000380
FE318FE0
C6318C60
C6318C60
39CE7380
39CE7380
3FFFFF80
06318C00
06318C00
00000000
00000000
00318000
00318000
00318000
000E0000
000E0000
003F8000
00318000
00318000
000E0000
000E0000
003E0000
00300000
00300000
ENDCHAR
STARTCHAR 0219
ENCODING 537
SWIDTH 700 0
DWIDTH 35 0
BBX 27 53 4 -15
BITMAP
06318C00
06318C00
06318C00
39CE7380
39CE7380
FFFFFFE0
C6318C60
C6318C60
38000380
38000380
FE000FE0
C6000C60
C6000C60
38000000
38000000
FE318C00
C6318C00
C6318C00
39CE7380
39CE7380
3FFFFFE0
06318C60
06318C60
00000380
00000380
C6000FE0
C6000C60
C6000C60
38000380
38000380
FE318FE0
C6318C60
C6318C60
39CE7380
39CE7380
3FFFFF80
06318C00
06318C00
00000000
00000000
00318000
00318000
00318000
000E0000
000E0000
003F8000
00318000
00318000
000E0000
000E0000
003E0000
00300000
00300000
ENDCHAR
STARTCHAR 021A
ENCODING 538
SWIDTH 700 0
DWIDTH 35 0
BBX 27 53 4 -15
BITMAP
C6318C60
C6318C60
C6318C60
39CE7380
39CE7380
FFFFFFE0
C6318C60
C6318C60
000E0000
000E0000
003F8000
00318000
00318000
000E0000
000E0000
003F8000
00318000
00318000
000E0000
000E0000
003F8000
00318000
00318000
000E0000
000E0000
003F8000
00318000
00318000
000E0000
000E0000
003F8000
00318000
00318000
000E0000
000E0000
003F8000
00318000
00318000
00000000
00000000
00318000
00318000
00318000
000E0000
000E0000
003F8000
00318000
00318000
000E0000
000E0000
003E0000
00300000
00300000
ENDCHAR
STARTCHAR 021B
ENCODING 539
SWIDTH 700 0
DWIDTH 35 0
BBX 27 53 4 -15
BITMAP
C6318C60
C6318C60
C6318C60
39CE7380
39CE7380
FFFFFFE0
C6318C60
C6318C60
000E0000
000E0000
003F8000
00318000
00318000
000E0000
000E0000
003F8000
00318000
00318000
000E0000
000E0000
003F8000
00318000
00318000
000E0000
000E0000
003F8000
00318000
00318000
000E0000
000E0000
003F8000
00318000
00318000
000E0000
000E0000
003F8000
00318000
00318000
00000000
00000000
00318000
00318000
00318000
000E0000
000E0000
003F8000
00318000
00318000
000E0000
000E0000
003E0000
00300000
00300000
ENDCHAR
STARTCHAR 02BC
ENCODING 700
SWIDTH 200 0
DWIDTH 10 0
BBX 8 13 1 25
BITMAP
E7
E7
E7
18
18
FF
E7
E7
18
18
F8
E0
E0
ENDCHAR
STARTCHAR 02C6
ENCODING 710
SWIDTH 400 0
DWIDTH 20 0
BBX 18 13 1 40
BITMAP
073800
073800
073800
18C600
18C600
FFFFC0
E739C0
E739C0
180600
180600
FF3FC0
E739C0
E739C0
ENDCHAR
STARTCHAR 02C7
ENCODING 711
SWIDTH 400 0
DWIDTH 20 0
BBX 18 13 1 40
BITMAP
E739C0
E739C0
E739C0
180600
180600
FF3FC0
E739C0
E739C0
18C600
18C600
1FFE00
073800
073800
ENDCHAR
STARTCHAR 02D8
ENCODING 728
SWIDTH 500 0
DWIDTH 25 0
BBX 23 13 1 40
BITMAP
E701CE
E701CE
E701CE
180030
180030
FF39FE
E739CE
E739CE
18C630
18C630
1FFFF0
0739C0
0739C0
ENDCHAR
STARTCHAR 02D9
ENCODING 729
SWIDTH 200 0
DWIDTH 10 0
BBX 8 8 1 40
BITMAP
E7
E7
E7
18
18
FF
E7
E7
ENDCHAR
STARTCHAR 02DA
ENCODING 730
SWIDTH 500 0
DWIDTH 25 0
BBX 23 23 1 40
BITMAP
0739C0
0739C0
0739C0
18C630
18C630
FFFFFE
E739CE
E739CE
180030
180030
FF01FE
E701CE
E701CE
180030
180030
FF39FE
E739CE
E739CE
18C630
18C630
1FFFF0
0739C0
0739C0
ENDCHAR
STARTCHAR 02DB
ENCODING 731
SWIDTH 240 0
DWIDTH 12 0
BBX 12 10 4 -10
BITMAP
3800
3800
FE30
C630
C630
39C0
39C0
3FF0
0630
0630
ENDCHAR
STARTCHAR 02DC
ENCODING 732
SWIDTH 600 0
DWIDTH 30 0
BBX 28 13 1 40
BITMAP
07380E70
07380E70
07380E70
18C60180
18C60180
FFFFCFF0
E739CE70
E739CE70
18063180
18063180
FF07FF80
E701CE00
E701CE00
ENDCHAR
STARTCHAR 02DD
ENCODING 733
SWIDTH 640 0
DWIDTH 32 0
BBX 33 13 1 40
BITMAP
0039C07380
0039C07380
0039C07380
00C6018C00
00C6018C00
07FE0FFC00
07380E7000
07380E7000
18C0318000
18C0318000
FFC1FF8000
E701CE0000
E701CE0000
ENDCHAR
STARTCHAR 0300
ENCODING 768
SWIDTH 0 0
DWIDTH 0 0
BBX 17 13 -21 40
BITMAP
C60000
C60000
C60000
39C000
39C000
3FF000
063000
063000
01CE00
01CE00
01FF80
003180
003180
ENDCHAR
STARTCHAR 0301
ENCODING 769
SWIDTH 0 0
DWIDTH 0 0
BBX 17 13 -16 40
BITMAP
003180
003180
003180
01CE00
01CE00
07FE00
063000
063000
39C000
39C000
FFC000
C60000
C60000
ENDCHAR
STARTCHAR 0302
ENCODING 770
SWIDTH 0 0
DWIDTH 0 0
BBX 18 13 -19 40
BITMAP
073800
073800
073800
18C600
18C600
FFFFC0
E739C0
E739C0
180600
180600
FF3FC0
E739C0
E739C0
ENDCHAR
STARTCHAR 0303
ENCODING 771
SWIDTH 0 0
DWIDTH 0 0
BBX 28 13 -29 40
BITMAP
07380E70
07380E70
07380E70
18C60180
18C60180
FFFFCFF0
E739CE70
E739CE70
18063180
18063180
FF07FF80
E701CE00
E701CE00
ENDCHAR
STARTCHAR 0304
ENCODING 772
SWIDTH 0 0
DWIDTH 0 0
BBX 18 8 -19 40
BITMAP
E739C0
E739C0
E739C0
18C600
18C600
FFFFC0
E739C0
E739C0
ENDCHAR
STARTCHAR 0306
ENCODING 774
SWIDTH 0 0
DWIDTH 0 0
BBX 23 13 -24 40
BITMAP
E701CE
E701CE
E701CE
180030
180030
FF39FE
E739CE
E739CE
18C630
18C630
1FFFF0
0739C0
0739C0
ENDCHAR
STARTCHAR 0307
ENCODING 775
SWIDTH 0 0
DWIDTH 0 0
BBX 8 8 -9 40
BITMAP
E7
E7
E7
18
18
FF
E7
E7
ENDCHAR
STARTCHAR 0308
ENCODING 776
SWIDTH 0 0
DWIDTH 0 0
BBX 18 8 -19 40
BITMAP
E739C0
E739C0
E739C0
180600
180600
FF3FC0
E739C0
E739C0
ENDCHAR
STARTCHAR 0309
ENCODING 777
SWIDTH 0 0
DWIDTH 0 0
BBX 18 18 -19 40
BITMAP
E73800
E73800
E73800
18C600
18C600
FFFFC0
E739C0
E739C0
000600
000600
073FC0
0739C0
0739C0
00C600
00C600
07FE00
073800
073800
ENDCHAR
STARTCHAR 030A
ENCODING 778
SWIDTH 0 0
DWIDTH 0 0
BBX 23 23 -24 40
BITMAP
0739C0
0739C0
0739C0
18C630
18C630
FFFFFE
E739CE
E739CE
180030
180030
FF01FE
E701CE
E701CE
180030
180030
FF39FE
E739CE
E739CE
18C630
18C630
1FFFF0
0739C0
0739C0
ENDCHAR
STARTCHAR 030B
ENCODING 779
SWIDTH 0 0
DWIDTH 0 0
BBX 32 13 -31 40
BITMAP
00318063
00318063
00318063
01CE039C
01CE039C
07FE0FFC
06300C60
06300C60
39C07380
39C07380
FFC1FF80
C6018C00
C6018C00
ENDCHAR
STARTCHAR 030C
ENCODING 780
SWIDTH 0 0
DWIDTH 0 0
BBX 18 13 -19 40
BITMAP
E739C0
E739C0
E739C0
180600
180600
FF3FC0
E739C0
E739C0
18C600
18C600
1FFE00
073800
073800
ENDCHAR
STARTCHAR 031B
ENCODING 795
SWIDTH 0 0
DWIDTH 0 0
BBX 18 13 -19 30
BITMAP
0039C0
0039C0
0039C0
000600
000600
E73FC0
E739C0
E739C0
18C600
18C600
FFFE00
E73800
E73800
ENDCHAR
STARTCHAR 0323
ENCODING 803
SWIDTH 0 0
DWIDTH 0 0
BBX 8 8 -9 -10
BITMAP
E7
E7
E7
18
18
FF
E7
E7
ENDCHAR
STARTCHAR 0326
ENCODING 806
SWIDTH 0 0
DWIDTH 0 0
BBX 8 13 -9 -15
BITMAP
E7
E7
E7
18
18
FF
E7
E7
18
18
F8
E0
E0
ENDCHAR
STARTCHAR 0327
ENCODING 807
SWIDTH 0 0
DWIDTH 0 0
BBX 13 10 -14 -10
BITMAP
00C0
00C0
E7F8
E738
E738
18C0
18C0
FFC0
E700
E700
ENDCHAR
STARTCHAR 0328
ENCODING 808
SWIDTH 0 0
DWIDTH 0 0
BBX 13 10 -9 -10
BITMAP
1800
1800
FF38
E738
E738
18C0
18C0
1FF8
0738
0738
ENDCHAR
STARTCHAR 0335
ENCODING 821
SWIDTH 0 0
DWIDTH 0 0
BBX 17 8 -21 15
BITMAP
C63180
C63180
C63180
39CE00
39CE00
FFFF80
C63180
C63180
ENDCHAR
STARTCHAR 0336
ENCODING 822
SWIDTH 0 0
DWIDTH 0 0
BBX 43 8 -44 25
BITMAP
E739CE739CE0
E739CE739CE0
E739CE739CE0
18C6318C6300
18C6318C6300
FFFFFFFFFFE0
E739CE739CE0
E739CE739CE0
ENDCHAR
STARTCHAR 0337
ENCODING 823
SWIDTH 0 0
DWIDTH 0 0
BBX 17 8 -21 15
BITMAP
C63180
C63180
C63180
39CE00
39CE00
FFFF80
C63180
C63180
ENDCHAR
STARTCHAR 0338
ENCODING 824
SWIDTH 0 0
DWIDTH 0 0
BBX 18 38 -19 0
BITMAP
0039C0
0039C0
0039C0
000600
000600
003FC0
0039C0
0039C0
00C600
00C600
00FE00
003800
003800
00C600
00C600
07FE00
073800
073800
00C000
00C000
07F800
073800
073800
18C000
18C000
1FC000
070000
070000
18C000
18C000
FFC000
E70000
E70000
180000
180000
FF0000
E70000
E70000
ENDCHAR
STARTCHAR 0401
ENCODING 1025
SWIDTH 700 0
DWIDTH 35 0
BBX 27 48 4 0
BITMAP
06318C00
06318C00
06318C00
01C07000
01C07000
07F1FC00
06318C00
06318C00
00000000
00000000
00318C60
00318C60
00318C60
01CE7380
01CE7380
07FFFFE0
06318C60
06318C60
39C00000
39C00000
FFC00000
C6000000
C6000000
38000000
38000000
FE318C00
C6318C00
C6318C00
39CE7000
39CE7000
FFFFFC00
C6318C00
C6318C00
38000000
38000000
FE000000
C6000000
C6000000
39C00000
39C00000
3FF18C60
06318C60
06318C60
01CE7380
01CE7380
01FFFFE0
00318C60
00318C60
ENDCHAR
STARTCHAR 0410
ENCODING 1040
SWIDTH 700 0
DWIDTH 35 0
BBX 27 38 4 0
BITMAP
00318000
00318000
00318000
01CE7000
01CE7000
07FFFC00
06318C00
06318C00
39C07380
39C07380
FFC07FE0
C6000C60
C6000C60
38000380
38000380
FE000FE0
C6000C60
C6000C60
38000380
38000380
FE318FE0
C6318C60
C6318C60
39CE7380
39CE7380
FFFFFFE0
C6318C60
C6318C60
38000380
38000380
FE000FE0
C6000C60
C6000C60
38000380
38000380
FE000FE0
C6000C60
C6000C60
ENDCHAR
STARTCHAR 0411
ENCODING 1041
SWIDTH 700 0
DWIDTH 35 0
BBX 27 38 4 0
BITMAP
C6318C60
C6318C60
C6318C60
39CE7380
39CE7380
FFFFFFE0
C6318C60
C6318C60
38000000
38000000
FE000000
C6000000
C6000000
38000000
38000000
FE318C00
C6318C00
C6318C00
39CE7380
39CE7380
FFFFFFE0
C6318C60
C6318C60
38000380
38000380
FE000FE0
C6000C60
C6000C60
38000380
38000380
FE318FE0
C6318C60
C6318C60
39CE7380
39CE7380
3FFFFF80
06318C00
06318C00
ENDCHAR
STARTCHAR 0412
ENCODING 1042
SWIDTH 700 0
DWIDTH 35 0
BBX 27 38 4 0
BITMAP
C6318C00
C6318C00
C6318C00
39CE7380
39CE7380
FFFFFFE0
C6318C60
C6318C60
38000380
38000380
FE000FE0
C6000C60
C6000C60
38007380
38007380
FE31FF80
C6318C00
C6318C00
39CE7380
39CE7380
FFFFFFE0
C6318C60
C6318C60
38000380
38000380
FE000FE0
C6000C60
C6000C60
38000380
38000380
FE318FE0
C6318C60
C6318C60
39CE7380
39CE7380
FFFFFF80
C6318C00
C6318C00
ENDCHAR
STARTCHAR 0413
ENCODING 1043
SWIDTH 700 0
DWIDTH 35 0
BBX 27 38 4 0
BITMAP
06318C60
06318C60
06318C60
39CE7380
39CE7380
FFFFFFE0
C6318C60
C6318C60
38000000
38000000
FE000000
C6000000
C6000000
38000000
38000000
FE000000
C6000000
C6000000
38000000
38000000
FE000000
C6000000
C6000000
38000000
38000000
FE000000
C6000000
C6000000
38000000
38000000
FE000000
C6000000
C6000000
38000000
38000000
FE000000
C6000000
C6000000
ENDCHAR
STARTCHAR 0414
ENCODING 1044
SWIDTH 800 0
DWIDTH 40 0
BBX 38 43 1 -5
BITMAP
0039CE7380
0039CE7380
0039CE7380
00C6318C00
00C6318C00
07FFFFFF80
0739CE7380
0739CE7380
00C0000C00
00C0000C00
07F8007F80
0738007380
0738007380
00C0000C00
00C0000C00
07F8007F80
0738007380
0738007380
00C0000C00
00C0000C00
07F8007F80
0738007380
0738007380
00C0000C00
00C0000C00
07F8007F80
0738007380
0738007380
00C0000C00
00C0000C00
07F9CE7F80
0739CE7380
0739CE7380
18C6318C60
18C6318C60
FFFFFFFFFC
E739CE739C
E739CE739C
1800000060
1800000060
FF000003FC
E70000039C
E70000039C
ENDCHAR
STARTCHAR 0415
ENCODING 1045
SWIDTH 700 0
DWIDTH 35 0
BBX 27 38 4 0
BITMAP
00318C60
00318C60
00318C60
01CE7380
01CE7380
07FFFFE0
06318C60
06318C60
39C00000
39C00000
FFC00000
C6000000
C6000000
38000000
38000000
FE318C00
C6318C00
C6318C00
39CE7000
39CE7000
FFFFFC00
C6318C00
C6318C00
38000000
38000000
FE000000
C6000000
C6000000
39C00000
39C00000
3FF18C60
06318C60
06318C60
01CE7380
01CE7380
01FFFFE0
00318C60
00318C60
ENDCHAR
STARTCHAR 0416
ENCODING 1046
SWIDTH 1100 0
DWIDTH 55 0
BBX 47 38 4 0
BITMAP
C6000C6000C6
C6000C6000C6
C6000C6000C6
380003800038
380003800038
FE000FE000FE
C6000C6000C6
C6000C6000C6
39C003800738
39C003800738
3FF00FE01FF8
06300C6018C0
06300C6018C0
01CE0380E700
01CE0380E700
01FF8FE3FF00
00318C631800
00318C631800
000E739CE000
000E739CE000
003FFFFFF800
00318C631800
00318C631800
01CE0380E700
01CE0380E700
07FE0FE0FFC0
06300C6018C0
06300C6018C0
39C003800738
39C003800738
FFC00FE007FE
C6000C6000C6
C6000C6000C6
380003800038
380003800038
FE000FE000FE
C6000C6000C6
C6000C6000C6
ENDCHAR
STARTCHAR 0417
ENCODING 1047
SWIDTH 800 0
DWIDTH 40 0
BBX 32 38 4 0
BITMAP
00318C00
00318C00
00318C00
01CE7380
01CE7380
07FFFFE0
06318C60
06318C60
39C0039C
39C0039C
FFC003FF
C6000063
C6000063
0000039C
0000039C
00318FFC
00318C60
00318C60
000E7380
000E7380
003FFFE0
00318C60
00318C60
0000039C
0000039C
C60003FF
C6000063
C6000063
39C0039C
39C0039C
3FF18FFC
06318C60
06318C60
01CE7380
01CE7380
01FFFF80
00318C00
00318C00
ENDCHAR
STARTCHAR 0418
ENCODING 1048
SWIDTH 800 0
DWIDTH 40 0
BBX 32 38 4 0
BITMAP
C6000063
C6000063
C6000063
3800001C
3800001C
FE00007F
C6000063
C6000063
3800001C
3800001C
FE00007F
C6000063
C6000063
3800039C
3800039C
FE000FFF
C6000C63
C6000C63
3800739C
3800739C
FE01FFFF
C6018C63
C6018C63
380E701C
380E701C
FE3FF07F
C6318063
C6318063
39CE001C
39CE001C
FFFE007F
C6300063
C6300063
39C0001C
39C0001C
FFC0007F
C6000063
C6000063
ENDCHAR
STARTCHAR 0419
ENCODING 1049
SWIDTH 800 0
DWIDTH 40 0
BBX 32 53 4 0
BITMAP
06300C60
06300C60
06300C60
01C00380
01C00380
07F18FE0
06318C60
06318C60
01CE7380
01CE7380
01FFFF80
00318C00
00318C00
00000000
00000000
C6000063
C6000063
C6000063
3800001C
3800001C
FE00007F
C6000063
C6000063
3800001C
3800001C
FE00007F
C6000063
C6000063
3800039C
3800039C
FE000FFF
C6000C63
C6000C63
3800739C
3800739C
FE01FFFF
C6018C63
C6018C63
380E701C
380E701C
FE3FF07F
C6318063
C6318063
39CE001C
39CE001C
FFFE007F
C6300063
C6300063
39C0001C
39C0001C
FFC0007F
C6000063
C6000063
ENDCHAR
STARTCHAR 041A
ENCODING 1050
SWIDTH 700 0
DWIDTH 35 0
BBX 27 38 4 0
BITMAP
C6000C60
C6000C60
C6000C60
38000380
38000380
FE000FE0
C6000C60
C6000C60
38007380
38007380
FE01FF80
C6018C00
C6018C00
380E7000
380E7000
FE3FF000
C6318000
C6318000
39CE0000
39CE0000
FFFF8000
C6318000
C6318000
380E7000
380E7000
FE0FFC00
C6018C00
C6018C00
38007380
38007380
FE007FE0
C6000C60
C6000C60
38000380
38000380
FE000FE0
C6000C60
C6000C60
ENDCHAR
STARTCHAR 041B
ENCODING 1051
SWIDTH 800 0
DWIDTH 40 0
BBX 32 38 4 0
BITMAP
00318C60
00318C60
00318C60
01CE739C
01CE739C
07FFFFFF
06318C63
06318C63
01C0001C
01C0001C
07F0007F
06300063
06300063
01C0001C
01C0001C
07F0007F
06300063
06300063
01C0001C
01C0001C
07F0007F
06300063
06300063
01C0001C
01C0001C
07F0007F
06300063
06300063
01C0001C
01C0001C
C7F0007F
C6300063
C6300063
39C0001C
39C0001C
FFC0007F
C6000063
C6000063
ENDCHAR
STARTCHAR 041C
ENCODING 1052
SWIDTH 1000 0
DWIDTH 50 0
BBX 42 38 4 0
BITMAP
C600000018C0
C600000018C0
C600000018C0
39C00000E700
39C00000E700
FFF00003FFC0
C630000318C0
C630000318C0
39CE001CE700
39CE001CE700
FFFF807FFFC0
C631806318C0
C631806318C0
380E739C0700
380E739C0700
FE0FFFFC1FC0
C6018C6018C0
C6018C6018C0
380073800700
380073800700
FE007F801FC0
C6000C0018C0
C6000C0018C0
380000000700
380000000700
FE0000001FC0
C600000018C0
C600000018C0
380000000700
380000000700
FE0000001FC0
C600000018C0
C600000018C0
380000000700
380000000700
FE0000001FC0
C600000018C0
C600000018C0
ENDCHAR
STARTCHAR 041D
ENCODING 1053
SWIDTH 800 0
DWIDTH 40 0
BBX 32 38 4 0
BITMAP
C6000063
C6000063
C6000063
3800001C
3800001C
FE00007F
C6000063
C6000063
3800001C
3800001C
FE00007F
C6000063
C6000063
3800001C
3800001C
FE318C7F
C6318C63
C6318C63
39CE739C
39CE739C
FFFFFFFF
C6318C63
C6318C63
3800001C
3800001C
FE00007F
C6000063
C6000063
3800001C
3800001C
FE00007F
C6000063
C6000063
3800001C
3800001C
FE00007F
C6000063
C6000063
ENDCHAR
STARTCHAR 041E
ENCODING 1054
SWIDTH 800 0
DWIDTH 40 0
BBX 32 38 4 0
BITMAP
00318C00
00318C00
00318C00
01CE7380
01CE7380
07FFFFE0
06318C60
06318C60
39C0039C
39C0039C
FFC003FF
C6000063
C6000063
3800001C
3800001C
FE00007F
C6000063
C6000063
3800001C
3800001C
FE00007F
C6000063
C6000063
3800001C
3800001C
FE00007F
C6000063
C6000063
39C0039C
39C0039C
3FF18FFC
06318C60
06318C60
01CE7380
01CE7380
01FFFF80
00318C00
00318C00
ENDCHAR
STARTCHAR 041F
ENCODING 1055
SWIDTH 800 0
DWIDTH 40 0
BBX 32 38 4 0
BITMAP
06318C60
06318C60
06318C60
39CE739C
39CE739C
FFFFFFFF
C6318C63
C6318C63
3800001C
3800001C
FE00007F
C6000063
C6000063
3800001C
3800001C
FE00007F
C6000063
C6000063
3800001C
3800001C
FE00007F
C6000063
C6000063
3800001C
3800001C
FE00007F
C6000063
C6000063
3800001C
3800001C
FE00007F
C6000063
C6000063
3800001C
3800001C
FE00007F
C6000063
C6000063
ENDCHAR
STARTCHAR 0420
ENCODING 1056
SWIDTH 700 0
DWIDTH 35 0
BBX 27 38 4 0
BITMAP
C6318000
C6318000
C6318000
39CE7000
39CE7000
FFFFFC00
C6318C00
C6318C00
38007380
38007380
FE007FE0
C6000C60
C6000C60
38000380
38000380
FE000FE0
C6000C60
C6000C60
38000380
38000380
FE000FE0
C6000C60
C6000C60
38007380
38007380
FE31FF80
C6318C00
C6318C00
39CE7000
39CE7000
FFFFF000
C6318000
C6318000
38000000
38000000
FE000000
C6000000
C6000000
ENDCHAR
STARTCHAR 0421
ENCODING 1057
SWIDTH 800 0
DWIDTH 40 0
BBX 32 38 4 0
BITMAP
00318C00
00318C00
00318C00
01CE7380
01CE7380
07FFFFE0
06318C60
06318C60
39C0039C
39C0039C
FFC003FF
C6000063
C6000063
3800001C
3800001C
FE00007F
C6000063
C6000063
38000000
38000000
FE000000
C6000000
C6000000
38000000
38000000
FE000063
C6000063
C6000063
39C0039C
39C0039C
3FF18FFC
06318C60
06318C60
01CE7380
01CE7380
01FFFF80
00318C00
00318C00
ENDCHAR
STARTCHAR 0422
ENCODING 1058
SWIDTH 700 0
DWIDTH 35 0
BBX 27 38 4 0
BITMAP
C6318C60
C6318C60
C6318C60
39CE7380
39CE7380
FFFFFFE0
C6318C60
C6318C60
000E0000
000E0000
003F8000
00318000
00318000
000E0000
000E0000
003F8000
00318000
00318000
000E0000
000E0000
003F8000
00318000
00318000
000E0000
000E0000
003F8000
00318000
00318000
000E0000
000E0000
003F8000
00318000
00318000
000E0000
000E0000
003F8000
00318000
00318000
ENDCHAR
STARTCHAR 0423
ENCODING 1059
SWIDTH 700 0
DWIDTH 35 0
BBX 27 38 4 0
BITMAP
C6000C60
C6000C60
C6000C60
38000380
38000380
FE000FE0
C6000C60
C6000C60
38000380
38000380
FE000FE0
C6000C60
C6000C60
39C00380
39C00380
3FF18FE0
06318C60
06318C60
01CE7380
01CE7380
01FFFFE0
00318C60
00318C60
00000380
00000380
00000FE0
00000C60
00000C60
00000380
00000380
C6318FE0
C6318C60
C6318C60
39CE7380
39CE7380
FFFFFF80
C6318C00
C6318C00
ENDCHAR
STARTCHAR 0424
ENCODING 1060
SWIDTH 900 0
DWIDTH 45 0
BBX 37 48 4 -5
BITMAP
00018C0000
00018C0000
00018C0000
0000700000
0000700000
0031FC6000
00318C6000
00318C6000
01CE739C00
01CE739C00
07FFFFFF00
06318C6300
06318C6300
39C0701CE0
39C0701CE0
FFC1FC1FF8
C6018C0318
C6018C0318
38007000E0
38007000E0
FE01FC03F8
C6018C0318
C6018C0318
38007000E0
38007000E0
FE01FC03F8
C6018C0318
C6018C0318
38007000E0
38007000E0
FE01FC03F8
C6018C0318
C6018C0318
39C0701CE0
39C0701CE0
3FF1FC7FE0
06318C6300
06318C6300
01CE739C00
01CE739C00
01FFFFFC00
00318C6000
00318C6000
0000700000
0000700000
0001FC0000
00018C0000
00018C0000
ENDCHAR
STARTCHAR 0425
ENCODING 1061
SWIDTH 800 0
DWIDTH 40 0
BBX 32 38 4 0
BITMAP
C6000063
C6000063
C6000063
3800001C
3800001C
FE00007F
C6000063
C6000063
3800001C
3800001C
FE00007F
C6000063
C6000063
39C0039C
39C0039C
3FF18FFC
06318C60
06318C60
01CE7380
01CE7380
07FFFFE0
06318C60
06318C60
39C0039C
39C0039C
FFC003FF
C6000063
C6000063
3800001C
3800001C
FE00007F
C6000063
C6000063
3800001C
3800001C
FE00007F
C6000063
C6000063
ENDCHAR
STARTCHAR 0426
ENCODING 1062
SWIDTH 840 0
DWIDTH 42 0
BBX 37 43 4 -5
BITMAP
C600006300
C600006300
C600006300
3800001C00
3800001C00
FE00007F00
C600006300
C600006300
3800001C00
3800001C00
FE00007F00
C600006300
C600006300
3800001C00
3800001C00
FE00007F00
C600006300
C600006300
3800001C00
3800001C00
FE00007F00
C600006300
C600006300
3800001C00
3800001C00
FE00007F00
C600006300
C600006300
3800001C00
3800001C00
FE318C7F00
C6318C6300
C6318C6300
39CE739CE0
39CE739CE0
3FFFFFFFF8
06318C6318
06318C6318
00000000E0
00000000E0
00000003F8
0000000318
0000000318
ENDCHAR
STARTCHAR 0427
ENCODING 1063
SWIDTH 700 0
DWIDTH 35 0
BBX 27 38 4 0
BITMAP
C6000C60
C6000C60
C6000C60
38000380
38000380
FE000FE0
C6000C60
C6000C60
38000380
38000380
FE000FE0
C6000C60
C6000C60
39C00380
39C00380
3FF18FE0
06318C60
06318C60
01CE7380
01CE7380
01FFFFE0
00318C60
00318C60
00000380
00000380
00000FE0
00000C60
00000C60
00000380
00000380
00000FE0
00000C60
00000C60
00000380
00000380
00000FE0
00000C60
00000C60
ENDCHAR
STARTCHAR 0428
ENCODING 1064
SWIDTH 1100 0
DWIDTH 55 0
BBX 47 38 4 0
BITMAP
C6000C6000C6
C6000C6000C6
C6000C6000C6
380003800038
380003800038
FE000FE000FE
C6000C6000C6
C6000C6000C6
380003800038
380003800038
FE000FE000FE
C6000C6000C6
C6000C6000C6
380003800038
380003800038
FE000FE000FE
C6000C6000C6
C6000C6000C6
380003800038
380003800038
FE000FE000FE
C6000C6000C6
C6000C6000C6
380003800038
380003800038
FE000FE000FE
C6000C6000C6
C6000C6000C6
380003800038
380003800038
FE318FE318FE
C6318C6318C6
C6318C6318C6
39CE739CE738
39CE739CE738
3FFFFFFFFFF8
06318C6318C0
06318C6318C0
ENDCHAR
STARTCHAR 0429
ENCODING 1065
SWIDTH 1140 0
DWIDTH 57 0
BBX 52 43 4 -5
BITMAP
C6000C6000C600
C6000C6000C600
C6000C6000C600
38000380003800
38000380003800
FE000FE000FE00
C6000C6000C600
C6000C6000C600
38000380003800
38000380003800
FE000FE000FE00
C6000C6000C600
C6000C6000C600
38000380003800
38000380003800
FE000FE000FE00
C6000C6000C600
C6000C6000C600
38000380003800
38000380003800
FE000FE000FE00
C6000C6000C600
C6000C6000C600
38000380003800
38000380003800
FE000FE000FE00
C6000C6000C600
C6000C6000C600
38000380003800
38000380003800
FE318FE318FE00
C6318C6318C600
C6318C6318C600
39CE739CE739C0
39CE739CE739C0
3FFFFFFFFFFFF0
06318C6318C630
06318C6318C630
000000000001C0
000000000001C0
000000000007F0
00000000000630
00000000000630
ENDCHAR
STARTCHAR 042A
ENCODING 1066
SWIDTH 800 0
DWIDTH 40 0
BBX 32 38 4 0
BITMAP
C6300000
C6300000
C6300000
39C00000
39C00000
FFF00000
C6300000
C6300000
01C00000
01C00000
07F00000
06300000
06300000
01C00000
01C00000
07F18C60
06318C60
06318C60
01CE739C
01CE739C
07FFFFFF
06318C63
06318C63
01C0001C
01C0001C
07F0007F
06300063
06300063
01C0001C
01C0001C
07F18C7F
06318C63
06318C63
01CE739C
01CE739C
01FFFFFC
00318C60
00318C60
ENDCHAR
STARTCHAR 042B
ENCODING 1067
SWIDTH 940 0
DWIDTH 47 0
BBX 40 38 4 0
BITMAP
C6000000E7
C6000000E7
C6000000E7
3800000018
3800000018
FE000000FF
C6000000E7
C6000000E7
3800000018
3800000018
FE000000FF
C6000000E7
C6000000E7
3800000018
3800000018
FE318C00FF
C6318C00E7
C6318C00E7
39CE738018
39CE738018
FFFFFFE0FF
C6318C60E7
C6318C60E7
3800038018
3800038018
FE000FE0FF
C6000C60E7
C6000C60E7
3800038018
3800038018
FE318FE0FF
C6318C60E7
C6318C60E7
39CE738018
39CE738018
3FFFFF80FF
06318C00E7
06318C00E7
ENDCHAR
STARTCHAR 042C
ENCODING 1068
SWIDTH 700 0
DWIDTH 35 0
BBX 27 38 4 0
BITMAP
C6000000
C6000000
C6000000
38000000
38000000
FE000000
C6000000
C6000000
38000000
38000000
FE000000
C6000000
C6000000
38000000
38000000
FE318C00
C6318C00
C6318C00
39CE7380
39CE7380
FFFFFFE0
C6318C60
C6318C60
38000380
38000380
FE000FE0
C6000C60
C6000C60
38000380
38000380
FE318FE0
C6318C60
C6318C60
39CE7380
39CE7380
3FFFFF80
06318C00
06318C00
ENDCHAR
STARTCHAR 042D
ENCODING 1069
SWIDTH 800 0
DWIDTH 40 0
BBX 32 38 4 0
BITMAP
00318C00
00318C00
00318C00
01CE7380
01CE7380
07FFFFE0
06318C60
06318C60
39C0039C
39C0039C
FFC003FF
C6000063
C6000063
0000001C
0000001C
00318C7F
00318C63
00318C63
000E739C
000E739C
003FFFFF
00318C63
00318C63
0000001C
0000001C
C600007F
C6000063
C6000063
39C0039C
39C0039C
3FF18FFC
06318C60
06318C60
01CE7380
01CE7380
01FFFF80
00318C00
00318C00
ENDCHAR
STARTCHAR 042E
ENCODING 1070
SWIDTH 1100 0
DWIDTH 55 0
BBX 47 38 4 0
BITMAP
C60000631800
C60000631800
C60000631800
3800039CE700
3800039CE700
FE000FFFFFC0
C6000C6318C0
C6000C6318C0
380073800738
380073800738
FE01FF8007FE
C6018C0000C6
C6018C0000C6
380070000038
380070000038
FE31FC0000FE
C6318C0000C6
C6318C0000C6
39CE70000038
39CE70000038
FFFFFC0000FE
C6318C0000C6
C6318C0000C6
380070000038
380070000038
FE01FC0000FE
C6018C0000C6
C6018C0000C6
380073800738
380073800738
FE007FE31FF8
C6000C6318C0
C6000C6318C0
3800039CE700
3800039CE700
FE0003FFFF00
C60000631800
C60000631800
ENDCHAR
STARTCHAR 042F
ENCODING 1071
SWIDTH 700 0
DWIDTH 35 0
BBX 27 38 4 0
BITMAP
00318C60
00318C60
00318C60
01CE7380
01CE7380
07FFFFE0
06318C60
06318C60
39C00380
39C00380
FFC00FE0
C6000C60
C6000C60
38000380
38000380
FE000FE0
C6000C60
C6000C60
38000380
38000380
FE000FE0
C6000C60
C6000C60
39C00380
39C00380
3FF18FE0
06318C60
06318C60
01CE7380
01CE7380
07FFFFE0
06318C60
06318C60
39C00380
39C00380
FFC00FE0
C6000C60
C6000C60
ENDCHAR
STARTCHAR 0430
ENCODING 1072
SWIDTH 700 0
DWIDTH 35 0
BBX 27 38 4 0
BITMAP
06318C00
06318C00
06318C00
39CE7380
39CE7380
FFFFFFE0
C6318C60
C6318C60
38000380
38000380
FE000FE0
C6000C60
C6000C60
38000380
38000380
FE000FE0
C6000C60
C6000C60
38000380
38000380
FE318FE0
C6318C60
C6318C60
39CE7380
39CE7380
FFFFFFE0
C6318C60
C6318C60
38000380
38000380
FE000FE0
C6000C60
C6000C60
38000380
38000380
FE000FE0
C6000C60
C6000C60
ENDCHAR
STARTCHAR 0431
ENCODING 1073
SWIDTH 700 0
DWIDTH 35 0
BBX 27 38 4 0
BITMAP
C6318C60
C6318C60
C6318C60
39CE7380
39CE7380
FFFFFFE0
C6318C60
C6318C60
38000000
38000000
FE000000
C6000000
C6000000
38000000
38000000
FE318C00
C6318C00
C6318C00
39CE7380
39CE7380
FFFFFFE0
C6318C60
C6318C60
38000380
38000380
FE000FE0
C6000C60
C6000C60
38000380
38000380
FE318FE0
C6318C60
C6318C60
39CE7380
39CE7380
3FFFFF80
06318C00
06318C00
ENDCHAR
STARTCHAR 0432
ENCODING 1074
SWIDTH 700 0
DWIDTH 35 0
BBX 27 38 4 0
BITMAP
C6318C00
C6318C00
C6318C00
39CE7380
39CE7380
FFFFFFE0
C6318C60
C6318C60
38000380
38000380
FE000FE0
C6000C60
C6000C60
38007380
38007380
FE31FF80
C6318C00
C6318C00
39CE7000
39CE7000
FFFFFC00
C6318C00
C6318C00
38007380
38007380
FE007FE0
C6000C60
C6000C60
38000380
38000380
FE318FE0
C6318C60
C6318C60
39CE7380
39CE7380
FFFFFF80
C6318C00
C6318C00
ENDCHAR
STARTCHAR 0433
ENCODING 1075
SWIDTH 600 0
DWIDTH 30 0
BBX 22 38 4 0
BITMAP
06318C
06318C
06318C
39CE70
39CE70
FFFFFC
C6318C
C6318C
380000
380000
FE0000
C60000
C60000
380000
380000
FE0000
C60000
C60000
380000
380000
FE0000
C60000
C60000
380000
380000
FE0000
C60000
C60000
380000
380000
FE0000
C60000
C60000
380000
380000
FE0000
C60000
C60000
ENDCHAR
STARTCHAR 0434
ENCODING 1076
SWIDTH 800 0
DWIDTH 40 0
BBX 38 43 1 -5
BITMAP
0039CE7380
0039CE7380
0039CE7380
00C6318C00
00C6318C00
07FFFFFF80
0739CE7380
0739CE7380
00C0000C00
00C0000C00
07F8007F80
0738007380
0738007380
00C0000C00
00C0000C00
07F8007F80
0738007380
0738007380
00C0000C00
00C0000C00
07F8007F80
0738007380
0738007380
00C0000C00
00C0000C00
07F8007F80
0738007380
0738007380
00C0000C00
00C0000C00
07F9CE7F80
0739CE7380
0739CE7380
18C6318C60
18C6318C60
FFFFFFFFFC
E739CE739C
E739CE739C
1800000060
1800000060
FF000003FC
E70000039C
E70000039C
ENDCHAR
STARTCHAR 0435
ENCODING 1077
SWIDTH 700 0
DWIDTH 35 0
BBX 27 38 4 0
BITMAP
06318C60
06318C60
06318C60
39CE7380
39CE7380
FFFFFFE0
C6318C60
C6318C60
38000000
38000000
FE000000
C6000000
C6000000
38000000
38000000
FE318C00
C6318C00
C6318C00
39CE7000
39CE7000
FFFFFC00
C6318C00
C6318C00
38000000
38000000
FE000000
C6000000
C6000000
38000000
38000000
FE318C60
C6318C60
C6318C60
39CE7380
39CE7380
3FFFFFE0
06318C60
06318C60
ENDCHAR
STARTCHAR 0436
ENCODING 1078
SWIDTH 1100 0
DWIDTH 55 0
BBX 47 38 4 0
BITMAP
C6000C6000C6
C6000C6000C6
C6000C6000C6
380003800038
380003800038
FE000FE000FE
C6000C6000C6
C6000C6000C6
380003800038
380003800038
FE000FE000FE
C6000C6000C6
C6000C6000C6
39C003800738
39C003800738
3FF18FE31FF8
06318C6318C0
06318C6318C0
01CE739CE700
01CE739CE700
07FFFFFFFFC0
06318C6318C0
06318C6318C0
39C003800738
39C003800738
FFC00FE007FE
C6000C6000C6
C6000C6000C6
380003800038
380003800038
FE000FE000FE
C6000C6000C6
C6000C6000C6
380003800038
380003800038
FE000FE000FE
C6000C6000C6
C6000C6000C6
ENDCHAR
STARTCHAR 0437
ENCODING 1079
SWIDTH 700 0
DWIDTH 35 0
BBX 27 38 4 0
BITMAP
06318C00
06318C00
06318C00
39CE7380
39CE7380
FFFFFFE0
C6318C60
C6318C60
38000380
38000380
FE000FE0
C6000C60
C6000C60
00007380
00007380
0031FF80
00318C00
00318C00
000E7000
000E7000
003FFC00
00318C00
00318C00
00007380
00007380
C6007FE0
C6000C60
C6000C60
38000380
38000380
FE318FE0
C6318C60
C6318C60
39CE7380
39CE7380
3FFFFF80
06318C00
06318C00
ENDCHAR
STARTCHAR 0438
ENCODING 1080
SWIDTH 700 0
DWIDTH 35 0
BBX 27 38 4 0
BITMAP
C6000C60
C6000C60
C6000C60
38000380
38000380
FE000FE0
C6000C60
C6000C60
38000380
38000380
FE000FE0
C6000C60
C6000C60
38000380
38000380
FE000FE0
C6000C60
C6000C60
38007380
38007380
FE01FFE0
C6018C60
C6018C60
380E7380
380E7380
FE3FFFE0
C6318C60
C6318C60
39CE0380
39CE0380
FFFE0FE0
C6300C60
C6300C60
39C00380
39C00380
FFC00FE0
C6000C60
C6000C60
ENDCHAR
STARTCHAR 0439
ENCODING 1081
SWIDTH 700 0
DWIDTH 35 0
BBX 27 53 4 0
BITMAP
39C07380
39C07380
39C07380
06000C00
06000C00
3FCE7F80
39CE7380
39CE7380
06318C00
06318C00
07FFFC00
01CE7000
01CE7000
00000000
00000000
C6000C60
C6000C60
C6000C60
38000380
38000380
FE000FE0
C6000C60
C6000C60
38000380
38000380
FE000FE0
C6000C60
C6000C60
38000380
38000380
FE000FE0
C6000C60
C6000C60
38007380
38007380
FE01FFE0
C6018C60
C6018C60
380E7380
380E7380
FE3FFFE0
C6318C60
C6318C60
39CE0380
39CE0380
FFFE0FE0
C6300C60
C6300C60
39C00380
39C00380
FFC00FE0
C6000C60
C6000C60
ENDCHAR
STARTCHAR 043A
ENCODING 1082
SWIDTH 700 0
DWIDTH 35 0
BBX 27 38 4 0
BITMAP
C6000C60
C6000C60
C6000C60
38000380
38000380
FE000FE0
C6000C60
C6000C60
38000380
38000380
FE000FE0
C6000C60
C6000C60
38007380
38007380
FE31FF80
C6318C00
C6318C00
39CE7000
39CE7000
FFFFFC00
C6318C00
C6318C00
38007380
38007380
FE007FE0
C6000C60
C6000C60
38000380
38000380
FE000FE0
C6000C60
C6000C60
38000380
38000380
FE000FE0
C6000C60
C6000C60
ENDCHAR
STARTCHAR 043B
ENCODING 1083
SWIDTH 800 0
DWIDTH 40 0
BBX 32 38 4 0
BITMAP
00318C60
00318C60
00318C60
01CE739C
01CE739C
07FFFFFF
06318C63
06318C63
01C0001C
01C0001C
07F0007F
06300063
06300063
01C0001C
01C0001C
07F0007F
06300063
06300063
01C0001C
01C0001C
07F0007F
06300063
06300063
01C0001C
01C0001C
07F0007F
06300063
06300063
01C0001C
01C0001C
C7F0007F
C6300063
C6300063
39C0001C
39C0001C
FFC0007F
C6000063
C6000063
ENDCHAR
STARTCHAR 043C
ENCODING 1084
SWIDTH 900 0
DWIDTH 45 0
BBX 37 38 4 0
BITMAP
C600000318
C600000318
C600000318
39C0001CE0
39C0001CE0
FFF0007FF8
C630006318
C630006318
39CE039CE0
39CE039CE0
FFFF8FFFF8
C6318C6318
C6318C6318
380E7380E0
380E7380E0
FE0FFF83F8
C6018C0318
C6018C0318
38007000E0
38007000E0
FE007003F8
C600000318
C600000318
38000000E0
38000000E0
FE000003F8
C600000318
C600000318
38000000E0
38000000E0
FE000003F8
C600000318
C600000318
38000000E0
38000000E0
FE000003F8
C600000318
C600000318
ENDCHAR
STARTCHAR 043D
ENCODING 1085
SWIDTH 700 0
DWIDTH 35 0
BBX 27 38 4 0
BITMAP
C6000C60
C6000C60
C6000C60
38000380
38000380
FE000FE0
C6000C60
C6000C60
38000380
38000380
FE000FE0
C6000C60
C6000C60
38000380
38000380
FE318FE0
C6318C60
C6318C60
39CE7380
39CE7380
FFFFFFE0
C6318C60
C6318C60
38000380
38000380
FE000FE0
C6000C60
C6000C60
38000380
38000380
FE000FE0
C6000C60
C6000C60
38000380
38000380
FE000FE0
C6000C60
C6000C60
ENDCHAR
STARTCHAR 043E
ENCODING 1086
SWIDTH 700 0
DWIDTH 35 0
BBX 27 38 4 0
BITMAP
06318C00
06318C00
06318C00
39CE7380
39CE7380
FFFFFFE0
C6318C60
C6318C60
38000380
38000380
FE000FE0
C6000C60
C6000C60
38000380
38000380
FE000FE0
C6000C60
C6000C60
38000380
38000380
FE000FE0
C6000C60
C6000C60
38000380
38000380
FE000FE0
C6000C60
C6000C60
38000380
38000380
FE318FE0
C6318C60
C6318C60
39CE7380
39CE7380
3FFFFF80
06318C00
06318C00
ENDCHAR
STARTCHAR 043F
ENCODING 1087
SWIDTH 700 0
DWIDTH 35 0
BBX 27 38 4 0
BITMAP
06318C00
06318C00
06318C00
39CE7380
39CE7380
FFFFFFE0
C6318C60
C6318C60
38000380
38000380
FE000FE0
C6000C60
C6000C60
38000380
38000380
FE000FE0
C6000C60
C6000C60
38000380
38000380
FE000FE0
C6000C60
C6000C60
38000380
38000380
FE000FE0
C6000C60
C6000C60
38000380
38000380
FE000FE0
C6000C60
C6000C60
38000380
38000380
FE000FE0
C6000C60
C6000C60
ENDCHAR
STARTCHAR 0440
ENCODING 1088
SWIDTH 700 0
DWIDTH 35 0
BBX 27 38 4 0
BITMAP
C6318C00
C6318C00
C6318C00
39CE7380
39CE7380
FFFFFFE0
C6318C60
C6318C60
38000380
38000380
FE000FE0
C6000C60
C6000C60
38000380
38000380
FE000FE0
C6000C60
C6000C60
38000380
38000380
FE318FE0
C6318C60
C6318C60
39CE7380
39CE7380
FFFFFF80
C6318C00
C6318C00
38000000
38000000
FE000000
C6000000
C6000000
38000000
38000000
FE000000
C6000000
C6000000
ENDCHAR
STARTCHAR 0441
ENCODING 1089
SWIDTH 700 0
DWIDTH 35 0
BBX 27 38 4 0
BITMAP
06318C00
06318C00
06318C00
39CE7380
39CE7380
FFFFFFE0
C6318C60
C6318C60
38000380
38000380
FE000FE0
C6000C60
C6000C60
38000380
38000380
FE000FE0
C6000C60
C6000C60
38000000
38000000
FE000000
C6000000
C6000000
38000000
38000000
FE000C60
C6000C60
C6000C60
38000380
38000380
FE318FE0
C6318C60
C6318C60
39CE7380
39CE7380
3FFFFF80
06318C00
06318C00
ENDCHAR
STARTCHAR 0442
ENCODING 1090
SWIDTH 700 0
DWIDTH 35 0
BBX 27 38 4 0
BITMAP
C6318C60
C6318C60
C6318C60
39CE7380
39CE7380
FFFFFFE0
C6318C60
C6318C60
000E0000
000E0000
003F8000
00318000
00318000
000E0000
000E0000
003F8000
00318000
00318000
000E0000
000E0000
003F8000
00318000
00318000
000E0000
000E0000
003F8000
00318000
00318000
000E0000
000E0000
003F8000
00318000
00318000
000E0000
000E0000
003F8000
00318000
00318000
ENDCHAR
STARTCHAR 0443
ENCODING 1091
SWIDTH 700 0
DWIDTH 35 0
BBX 27 38 4 0
BITMAP
C6000C60
C6000C60
C6000C60
38000380
38000380
FE000FE0
C6000C60
C6000C60
38000380
38000380
FE000FE0
C6000C60
C6000C60
38000380
38000380
FE318FE0
C6318C60
C6318C60
39CE7380
39CE7380
3FFFFFE0
06318C60
06318C60
00000380
00000380
00000FE0
00000C60
00000C60
00000380
00000380
C6318FE0
C6318C60
C6318C60
39CE7380
39CE7380
FFFFFF80
C6318C00
C6318C00
ENDCHAR
STARTCHAR 0444
ENCODING 1092
SWIDTH 900 0
DWIDTH 45 0
BBX 37 48 4 -5
BITMAP
00018C0000
00018C0000
00018C0000
0000700000
0000700000
0631FC6300
06318C6300
06318C6300
39CE739CE0
39CE739CE0
FFFFFFFFF8
C6318C6318
C6318C6318
38007000E0
38007000E0
FE01FC03F8
C6018C0318
C6018C0318
38007000E0
38007000E0
FE01FC03F8
C6018C0318
C6018C0318
38007000E0
38007000E0
FE01FC03F8
C6018C0318
C6018C0318
38007000E0
38007000E0
FE01FC03F8
C6018C0318
C6018C0318
38007000E0
38007000E0
FE31FC63F8
C6318C6318
C6318C6318
39CE739CE0
39CE739CE0
3FFFFFFFE0
06318C6300
06318C6300
0000700000
0000700000
0001FC0000
00018C0000
00018C0000
ENDCHAR
STARTCHAR 0445
ENCODING 1093
SWIDTH 700 0
DWIDTH 35 0
BBX 27 38 4 0
BITMAP
C6000C60
C6000C60
C6000C60
38000380
38000380
FE000FE0
C6000C60
C6000C60
38000380
38000380
FE000FE0
C6000C60
C6000C60
39C07380
39C07380
3FF1FF80
06318C00
06318C00
01CE7000
01CE7000
07FFFC00
06318C00
06318C00
39C07380
39C07380
FFC07FE0
C6000C60
C6000C60
38000380
38000380
FE000FE0
C6000C60
C6000C60
38000380
38000380
FE000FE0
C6000C60
C6000C60
ENDCHAR
STARTCHAR 0446
ENCODING 1094
SWIDTH 740 0
DWIDTH 37 0
BBX 32 43 4 -5
BITMAP
C6000C60
C6000C60
C6000C60
38000380
38000380
FE000FE0
C6000C60
C6000C60
38000380
38000380
FE000FE0
C6000C60
C6000C60
38000380
38000380
FE000FE0
C6000C60
C6000C60
38000380
38000380
FE000FE0
C6000C60
C6000C60
38000380
38000380
FE000FE0
C6000C60
C6000C60
38000380
38000380
FE318FE0
C6318C60
C6318C60
39CE739C
39CE739C
3FFFFFFF
06318C63
06318C63
0000001C
0000001C
0000007F
00000063
00000063
ENDCHAR
STARTCHAR 0447
ENCODING 1095
SWIDTH 700 0
DWIDTH 35 0
BBX 27 38 4 0
BITMAP
C6000C60
C6000C60
C6000C60
38000380
38000380
FE000FE0
C6000C60
C6000C60
38000380
38000380
FE000FE0
C6000C60
C6000C60
38000380
38000380
FE318FE0
C6318C60
C6318C60
39CE7380
39CE7380
3FFFFFE0
06318C60
06318C60
00000380
00000380
00000FE0
00000C60
00000C60
00000380
00000380
00000FE0
00000C60
00000C60
00000380
00000380
00000FE0
00000C60
00000C60
ENDCHAR
STARTCHAR 0448
ENCODING 1096
SWIDTH 900 0
DWIDTH 45 0
BBX 37 38 4 0
BITMAP
C6018C0318
C6018C0318
C6018C0318
38007000E0
38007000E0
FE01FC03F8
C6018C0318
C6018C0318
38007000E0
38007000E0
FE01FC03F8
C6018C0318
C6018C0318
38007000E0
38007000E0
FE01FC03F8
C6018C0318
C6018C0318
38007000E0
38007000E0
FE01FC03F8
C6018C0318
C6018C0318
38007000E0
38007000E0
FE01FC03F8
C6018C0318
C6018C0318
38007000E0
38007000E0
FE31FC63F8
C6318C6318
C6318C6318
39CE739CE0
39CE739CE0
3FFFFFFFE0
06318C6300
06318C6300
ENDCHAR
STARTCHAR 0449
ENCODING 1097
SWIDTH 940 0
DWIDTH 47 0
BBX 42 43 4 -5
BITMAP
C6018C031800
C6018C031800
C6018C031800
38007000E000
38007000E000
FE01FC03F800
C6018C031800
C6018C031800
38007000E000
38007000E000
FE01FC03F800
C6018C031800
C6018C031800
38007000E000
38007000E000
FE01FC03F800
C6018C031800
C6018C031800
38007000E000
38007000E000
FE01FC03F800
C6018C031800
C6018C031800
38007000E000
38007000E000
FE01FC03F800
C6018C031800
C6018C031800
38007000E000
38007000E000
FE31FC63F800
C6318C631800
C6318C631800
39CE739CE700
39CE739CE700
3FFFFFFFFFC0
06318C6318C0
06318C6318C0
000000000700
000000000700
000000001FC0
0000000018C0
0000000018C0
ENDCHAR
STARTCHAR 044A
ENCODING 1098
SWIDTH 800 0
DWIDTH 40 0
BBX 32 38 4 0
BITMAP
C6300000
C6300000
C6300000
39C00000
39C00000
FFF00000
C6300000
C6300000
01C00000
01C00000
07F00000
06300000
06300000
01C00000
01C00000
07F18C60
06318C60
06318C60
01CE739C
01CE739C
07FFFFFF
06318C63
06318C63
01C0001C
01C0001C
07F0007F
06300063
06300063
01C0001C
01C0001C
07F18C7F
06318C63
06318C63
01CE739C
01CE739C
01FFFFFC
00318C60
00318C60
ENDCHAR
STARTCHAR 044B
ENCODING 1099
SWIDTH 940 0
DWIDTH 47 0
BBX 40 38 4 0
BITMAP
C6000000E7
C6000000E7
C6000000E7
3800000018
3800000018
FE000000FF
C6000000E7
C6000000E7
3800000018
3800000018
FE000000FF
C6000000E7
C6000000E7
3800000018
3800000018
FE318C00FF
C6318C00E7
C6318C00E7
39CE738018
39CE738018
FFFFFFE0FF
C6318C60E7
C6318C60E7
3800038018
3800038018
FE000FE0FF
C6000C60E7
C6000C60E7
3800038018
3800038018
FE318FE0FF
C6318C60E7
C6318C60E7
39CE738018
39CE738018
3FFFFF80FF
06318C00E7
06318C00E7
ENDCHAR
STARTCHAR 044C
ENCODING 1100
SWIDTH 700 0
DWIDTH 35 0
BBX 27 38 4 0
BITMAP
C6000000
C6000000
C6000000
38000000
38000000
FE000000
C6000000
C6000000
38000000
38000000
FE000000
C6000000
C6000000
38000000
38000000
FE318C00
C6318C00
C6318C00
39CE7380
39CE7380
FFFFFFE0
C6318C60
C6318C60
38000380
38000380
FE000FE0
C6000C60
C6000C60
38000380
38000380
FE318FE0
C6318C60
C6318C60
39CE7380
39CE7380
3FFFFF80
06318C00
06318C00
ENDCHAR
STARTCHAR 044D
ENCODING 1101
SWIDTH 800 0
DWIDTH 40 0
BBX 32 38 4 0
BITMAP
06318C60
06318C60
06318C60
39CE739C
39CE739C
FFFFFFFF
C6318C63
C6318C63
3800001C
3800001C
FE00007F
C6000063
C6000063
0000001C
0000001C
00318C7F
00318C63
00318C63
000E739C
000E739C
003FFFFF
00318C63
00318C63
0000001C
0000001C
C600007F
C6000063
C6000063
3800001C
3800001C
FE318C7F
C6318C63
C6318C63
39CE739C
39CE739C
3FFFFFFC
06318C60
06318C60
ENDCHAR
STARTCHAR 044E
ENCODING 1102
SWIDTH 1000 0
DWIDTH 50 0
BBX 42 38 4 0
BITMAP
C6000C631800
C6000C631800
C6000C631800
3800739CE700
3800739CE700
FE01FFFFFFC0
C6018C6318C0
C6018C6318C0
380070000700
380070000700
FE01FC001FC0
C6018C0018C0
C6018C0018C0
380070000700
380070000700
FE31FC001FC0
C6318C0018C0
C6318C0018C0
39CE70000700
39CE70000700
FFFFFC001FC0
C6318C0018C0
C6318C0018C0
380070000700
380070000700
FE01FC001FC0
C6018C0018C0
C6018C0018C0
380070000700
380070000700
FE01FC631FC0
C6018C6318C0
C6018C6318C0
3800739CE700
3800739CE700
FE007FFFFF00
C6000C631800
C6000C631800
ENDCHAR
STARTCHAR 044F
ENCODING 1103
SWIDTH 700 0
DWIDTH 35 0
BBX 27 38 4 0
BITMAP
06318C60
06318C60
06318C60
39CE7380
39CE7380
FFFFFFE0
C6318C60
C6318C60
38000380
38000380
FE000FE0
C6000C60
C6000C60
38000380
38000380
FE000FE0
C6000C60
C6000C60
38000380
38000380
FE318FE0
C6318C60
C6318C60
39CE7380
39CE7380
3FFFFFE0
06318C60
06318C60
39C00380
39C00380
FFC00FE0
C6000C60
C6000C60
38000380
38000380
FE000FE0
C6000C60
C6000C60
ENDCHAR
STARTCHAR 0451
ENCODING 1105
SWIDTH 700 0
DWIDTH 35 0
BBX 27 48 4 0
BITMAP
06318C00
06318C00
06318C00
01C07000
01C07000
07F1FC00
06318C00
06318C00
00000000
00000000
06318C60
06318C60
06318C60
39CE7380
39CE7380
FFFFFFE0
C6318C60
C6318C60
38000000
38000000
FE000000
C6000000
C6000000
38000000
38000000
FE318C00
C6318C00
C6318C00
39CE7000
39CE7000
FFFFFC00
C6318C00
C6318C00
38000000
38000000
FE000000
C6000000
C6000000
38000000
38000000
FE318C60
C6318C60
C6318C60
39CE7380
39CE7380
3FFFFFE0
06318C60
06318C60
ENDCHAR
STARTCHAR 1E80
ENCODING 7808
SWIDTH 1100 0
DWIDTH 55 0
BBX 47 53 4 0
BITMAP
003180000000
003180000000
003180000000
000E70000000
000E70000000
000FFC000000
00018C000000
00018C000000
000073800000
000073800000
00007FE00000
00000C600000
00000C600000
000000000000
000000000000
C6000C6000C6
C6000C6000C6
C6000C6000C6
380003800038
380003800038
FE000FE000FE
C6000C6000C6
C6000C6000C6
380003800038
380003800038
FE000FE000FE
C6000C6000C6
C6000C6000C6
380003800038
380003800038
FE000FE000FE
C6000C6000C6
C6000C6000C6
380003800038
380003800038
FE000FE000FE
C6000C6000C6
C6000C6000C6
380003800038
380003800038
FE000FE000FE
C6000C6000C6
C6000C6000C6
39C0739C0738
39C0739C0738
3FF1FFFF1FF8
06318C6318C0
06318C6318C0
01CE701CE700
01CE701CE700
01FFF01FFF00
003180031800
003180031800
ENDCHAR
STARTCHAR 1E81
ENCODING 7809
SWIDTH 1100 0
DWIDTH 55 0
BBX 47 53 4 0
BITMAP
003180000000
003180000000
003180000000
000E70000000
000E70000000
000FFC000000
00018C000000
00018C000000
000073800000
000073800000
00007FE00000
00000C600000
00000C600000
000000000000
000000000000
C6000C6000C6
C6000C6000C6
C6000C6000C6
380003800038
380003800038
FE000FE000FE
C6000C6000C6
C6000C6000C6
380003800038
380003800038
FE000FE000FE
C6000C6000C6
C6000C6000C6
380003800038
380003800038
FE000FE000FE
C6000C6000C6
C6000C6000C6
380003800038
380003800038
FE000FE000FE
C6000C6000C6
C6000C6000C6
380003800038
380003800038
FE000FE000FE
C6000C6000C6
C6000C6000C6
3800739C0038
3800739C0038
FE31FFFF18FE
C6318C6318C6
C6318C6318C6
39CE701CE738
39CE701CE738
3FFFF01FFFF8
0631800318C0
0631800318C0
ENDCHAR
STARTCHAR 1E82
ENCODING 7810
SWIDTH 1100 0
DWIDTH 55 0
BBX 47 53 4 0
BITMAP
0000001CE000
0000001CE000
0000001CE000
000000630000
000000630000
000003FF0000
0000039C0000
0000039C0000
00000C600000
00000C600000
00007FE00000
000073800000
000073800000
000000000000
000000000000
C6000C6000C6
C6000C6000C6
C6000C6000C6
380003800038
380003800038
FE000FE000FE
C6000C6000C6
C6000C6000C6
380003800038
380003800038
FE000FE000FE
C6000C6000C6
C6000C6000C6
380003800038
380003800038
FE000FE000FE
C6000C6000C6
C6000C6000C6
380003800038
380003800038
FE000FE000FE
C6000C6000C6
C6000C6000C6
380003800038
380003800038
FE000FE000FE
C6000C6000C6
C6000C6000C6
39C0739C0738
39C0739C0738
3FF1FFFF1FF8
06318C6318C0
06318C6318C0
01CE701CE700
01CE701CE700
01FFF01FFF00
003180031800
003180031800
ENDCHAR
STARTCHAR 1E83
ENCODING 7811
SWIDTH 1100 0
DWIDTH 55 0
BBX 47 53 4 0
BITMAP
0000001CE000
0000001CE000
0000001CE000
000000630000
000000630000
000003FF0000
0000039C0000
0000039C0000
00000C600000
00000C600000
00007FE00000
000073800000
000073800000
000000000000
000000000000
C6000C6000C6
C6000C6000C6
C6000C6000C6
380003800038
380003800038
FE000FE000FE
C6000C6000C6
C6000C6000C6
380003800038
380003800038
FE000FE000FE
C6000C6000C6
C6000C6000C6
380003800038
380003800038
FE000FE000FE
C6000C6000C6
C6000C6000C6
380003800038
380003800038
FE000FE000FE
C6000C6000C6
C6000C6000C6
380003800038
380003800038
FE000FE000FE
C6000C6000C6
C6000C6000C6
3800739C0038
3800739C0038
FE31FFFF18FE
C6318C6318C6
C6318C6318C6
39CE701CE738
39CE701CE738
3FFFF01FFFF8
0631800318C0
0631800318C0
ENDCHAR
STARTCHAR 1E84
ENCODING 7812
SWIDTH 1100 0
DWIDTH 55 0
BBX 47 48 4 0
BITMAP
00018C630000
00018C630000
00018C630000
0000701C0000
0000701C0000
0001FC7F0000
00018C630000
00018C630000
000000000000
000000000000
C6000C6000C6
C6000C6000C6
C6000C6000C6
380003800038
380003800038
FE000FE000FE
C6000C6000C6
C6000C6000C6
380003800038
380003800038
FE000FE000FE
C6000C6000C6
C6000C6000C6
380003800038
380003800038
FE000FE000FE
C6000C6000C6
C6000C6000C6
380003800038
380003800038
FE000FE000FE
C6000C6000C6
C6000C6000C6
380003800038
380003800038
FE000FE000FE
C6000C6000C6
C6000C6000C6
39C0739C0738
39C0739C0738
3FF1FFFF1FF8
06318C6318C0
06318C6318C0
01CE701CE700
01CE701CE700
01FFF01FFF00
003180031800
003180031800
ENDCHAR
STARTCHAR 1E85
ENCODING 7813
SWIDTH 1100 0
DWIDTH 55 0
BBX 47 48 4 0
BITMAP
00018C630000
00018C630000
00018C630000
0000701C0000
0000701C0000
0001FC7F0000
00018C630000
00018C630000
000000000000
000000000000
C6000C6000C6
C6000C6000C6
C6000C6000C6
380003800038
380003800038
FE000FE000FE
C6000C6000C6
C6000C6000C6
380003800038
380003800038
FE000FE000FE
C6000C6000C6
C6000C6000C6
380003800038
380003800038
FE000FE000FE
C6000C6000C6
C6000C6000C6
380003800038
380003800038
FE000FE000FE
C6000C6000C6
C6000C6000C6
380003800038
380003800038
FE000FE000FE
C6000C6000C6
C6000C6000C6
3800739C0038
3800739C0038
FE31FFFF18FE
C6318C6318C6
C6318C6318C6
39CE701CE738
39CE701CE738
3FFFF01FFFF8
0631800318C0
0631800318C0
ENDCHAR
STARTCHAR 1E9E
ENCODING 7838
SWIDTH 700 0
DWIDTH 35 0
BBX 27 38 4 0
BITMAP
06318C00
06318C00
06318C00
39CE7380
39CE7380
FFFFFFE0
C6318C60
C6318C60
38000380
38000380
FE000FE0
C6000C60
C6000C60
38007380
38007380
FE31FF80
C6318C00
C6318C00
380E7380
380E7380
FE3FFFE0
C6318C60
C6318C60
38000380
38000380
FE000FE0
C6000C60
C6000C60
38000380
38000380
FE318FE0
C6318C60
C6318C60
380E7380
380E7380
FE3FFF80
C6318C00
C6318C00
ENDCHAR
STARTCHAR 1EA0
ENCODING 7840
SWIDTH 700 0
DWIDTH 35 0
BBX 27 48 4 -10
BITMAP
00318000
00318000
00318000
01CE7000
01CE7000
07FFFC00
06318C00
06318C00
39C07380
39C07380
FFC07FE0
C6000C60
C6000C60
38000380
38000380
FE000FE0
C6000C60
C6000C60
38000380
38000380
FE318FE0
C6318C60
C6318C60
39CE7380
39CE7380
FFFFFFE0
C6318C60
C6318C60
38000380
38000380
FE000FE0
C6000C60
C6000C60
38000380
38000380
FE000FE0
C6000C60
C6000C60
00000000
00000000
00318000
00318000
00318000
000E0000
000E0000
003F8000
00318000
00318000
ENDCHAR
STARTCHAR 1EA1
ENCODING 7841
SWIDTH 700 0
DWIDTH 35 0
BBX 27 48 4 -10
BITMAP
06318C00
06318C00
06318C00
39CE7380
39CE7380
FFFFFFE0
C6318C60
C6318C60
38000380
38000380
FE000FE0
C6000C60
C6000C60
38000380
38000380
FE000FE0
C6000C60
C6000C60
38000380
38000380
FE318FE0
C6318C60
C6318C60
39CE7380
39CE7380
FFFFFFE0
C6318C60
C6318C60
38000380
38000380
FE000FE0
C6000C60
C6000C60
38000380
38000380
FE000FE0
C6000C60
C6000C60
00000000
00000000
00318000
00318000
00318000
000E0000
000E0000
003F8000
00318000
00318000
ENDCHAR
STARTCHAR 1EA2
ENCODING 7842
SWIDTH 700 0
DWIDTH 35 0
BBX 27 58 4 0
BITMAP
06318000
06318000
06318000
01CE7000
01CE7000
07FFFC00
06318C00
06318C00
00007000
00007000
0031FC00
00318C00
00318C00
000E7000
000E7000
003FF000
00318000
00318000
00000000
00000000
00318000
00318000
00318000
01CE7000
01CE7000
07FFFC00
06318C00
06318C00
39C07380
39C07380
FFC07FE0
C6000C60
C6000C60
38000380
38000380
FE000FE0
C6000C60
C6000C60
38000380
38000380
FE318FE0
C6318C60
C6318C60
39CE7380
39CE7380
FFFFFFE0
C6318C60
C6318C60
38000380
38000380
FE000FE0
C6000C60
C6000C60
38000380
38000380
FE000FE0
C6000C60
C6000C60
ENDCHAR
STARTCHAR 1EA3
ENCODING 7843
SWIDTH 700 0
DWIDTH 35 0
BBX 27 58 4 0
BITMAP
06318000
06318000
06318000
01CE7000
01CE7000
07FFFC00
06318C00
06318C00
00007000
00007000
0031FC00
00318C00
00318C00
000E7000
000E7000
003FF000
00318000
00318000
00000000
00000000
06318C00
06318C00
06318C00
39CE7380
39CE7380
FFFFFFE0
C6318C60
C6318C60
38000380
38000380
FE000FE0
C6000C60
C6000C60
38000380
38000380
FE000FE0
C6000C60
C6000C60
38000380
38000380
FE318FE0
C6318C60
C6318C60
39CE7380
39CE7380
FFFFFFE0
C6318C60
C6318C60
38000380
38000380
FE000FE0
C6000C60
C6000C60
38000380
38000380
FE000FE0
C6000C60
C6000C60
ENDCHAR
STARTCHAR 1EA4
ENCODING 7844
SWIDTH 700 0
DWIDTH 35 0
BBX 27 68 4 0
BITMAP
00007380
00007380
00007380
00018C00
00018C00
000FFC00
000E7000
000E7000
00318000
00318000
01FF8000
01CE0000
01CE0000
00000000
00000000
00318000
00318000
00318000
01CE7000
01CE7000
07FFFC00
06318C00
06318C00
01C07000
01C07000
07F1FC00
06318C00
06318C00
00000000
00000000
00318000
00318000
00318000
01CE7000
01CE7000
07FFFC00
06318C00
06318C00
39C07380
39C07380
FFC07FE0
C6000C60
C6000C60
38000380
38000380
FE000FE0
C6000C60
C6000C60
38000380
38000380
FE318FE0
C6318C60
C6318C60
39CE7380
39CE7380
FFFFFFE0
C6318C60
C6318C60
38000380
38000380
FE000FE0
C6000C60
C6000C60
38000380
38000380
FE000FE0
C6000C60
C6000C60
ENDCHAR
STARTCHAR 1EA5
ENCODING 7845
SWIDTH 700 0
DWIDTH 35 0
BBX 27 68 4 0
BITMAP
00007380
00007380
00007380
00018C00
00018C00
000FFC00
000E7000
000E7000
00318000
00318000
01FF8000
01CE0000
01CE0000
00000000
00000000
00318000
00318000
00318000
01CE7000
01CE7000
07FFFC00
06318C00
06318C00
01C07000
01C07000
07F1FC00
06318C00
06318C00
00000000
00000000
06318C00
06318C00
06318C00
39CE7380
39CE7380
FFFFFFE0
C6318C60
C6318C60
38000380
38000380
FE000FE0
C6000C60
C6000C60
38000380
38000380
FE000FE0
C6000C60
C6000C60
38000380
38000380
FE318FE0
C6318C60
C6318C60
39CE7380
39CE7380
FFFFFFE0
C6318C60
C6318C60
38000380
38000380
FE000FE0
C6000C60
C6000C60
38000380
38000380
FE000FE0
C6000C60
C6000C60
ENDCHAR
STARTCHAR 1EA6
ENCODING 7846
SWIDTH 700 0
DWIDTH 35 0
BBX 27 68 4 0
BITMAP
C6000000
C6000000
C6000000
39C00000
39C00000
3FF00000
06300000
06300000
01CE0000
01CE0000
01FF8000
00318000
00318000
00000000
00000000
00318000
00318000
00318000
01CE7000
01CE7000
07FFFC00
06318C00
06318C00
01C07000
01C07000
07F1FC00
06318C00
06318C00
00000000
00000000
00318000
00318000
00318000
01CE7000
01CE7000
07FFFC00
06318C00
06318C00
39C07380
39C07380
FFC07FE0
C6000C60
C6000C60
38000380
38000380
FE000FE0
C6000C60
C6000C60
38000380
38000380
FE318FE0
C6318C60
C6318C60
39CE7380
39CE7380
FFFFFFE0
C6318C60
C6318C60
38000380
38000380
FE000FE0
C6000C60
C6000C60
38000380
38000380
FE000FE0
C6000C60
C6000C60
ENDCHAR
STARTCHAR 1EA7
ENCODING 7847
SWIDTH 700 0
DWIDTH 35 0
BBX 27 68 4 0
BITMAP
C6000000
C6000000
C6000000
39C00000
39C00000
3FF00000
06300000
06300000
01CE0000
01CE0000
01FF8000
00318000
00318000
00000000
00000000
00318000
00318000
00318000
01CE7000
01CE7000
07FFFC00
06318C00
06318C00
01C07000
01C07000
07F1FC00
06318C00
06318C00
00000000
00000000
06318C00
06318C00
06318C00
39CE7380
39CE7380
FFFFFFE0
C6318C60
C6318C60
38000380
38000380
FE000FE0
C6000C60
C6000C60
38000380
38000380
FE000FE0
C6000C60
C6000C60
38000380
38000380
FE318FE0
C6318C60
C6318C60
39CE7380
39CE7380
FFFFFFE0
C6318C60
C6318C60
38000380
38000380
FE000FE0
C6000C60
C6000C60
38000380
38000380
FE000FE0
C6000C60
C6000C60
ENDCHAR
STARTCHAR 1EA8
ENCODING 7848
SWIDTH 700 0
DWIDTH 35 0
BBX 27 73 4 0
BITMAP
06318000
06318000
06318000
01CE7000
01CE7000
07FFFC00
06318C00
06318C00
00007000
00007000
0031FC00
00318C00
00318C00
000E7000
000E7000
003FF000
00318000
00318000
00000000
00000000
00318000
00318000
00318000
01CE7000
01CE7000
07FFFC00
06318C00
06318C00
01C07000
01C07000
07F1FC00
06318C00
06318C00
00000000
00000000
00318000
00318000
00318000
01CE7000
01CE7000
07FFFC00
06318C00
06318C00
39C07380
39C07380
FFC07FE0
C6000C60
C6000C60
38000380
38000380
FE000FE0
C6000C60
C6000C60
38000380
38000380
FE318FE0
C6318C60
C6318C60
39CE7380
39CE7380
FFFFFFE0
C6318C60
C6318C60
38000380
38000380
FE000FE0
C6000C60
C6000C60
38000380
38000380
FE000FE0
C6000C60
C6000C60
ENDCHAR
STARTCHAR 1EA9
ENCODING 7849
SWIDTH 700 0
DWIDTH 35 0
BBX 27 73 4 0
BITMAP
06318000
06318000
06318000
01CE7000
01CE7000
07FFFC00
06318C00
06318C00
00007000
00007000
0031FC00
00318C00
00318C00
000E7000
000E7000
003FF000
00318000
00318000
00000000
00000000
00318000
00318000
00318000
01CE7000
01CE7000
07FFFC00
06318C00
06318C00
01C07000
01C07000
07F1FC00
06318C00
06318C00
00000000
00000000
06318C00
06318C00
06318C00
39CE7380
39CE7380
FFFFFFE0
C6318C60
C6318C60
38000380
38000380
FE000FE0
C6000C60
C6000C60
38000380
38000380
FE000FE0
C6000C60
C6000C60
38000380
38000380
FE318FE0
C6318C60
C6318C60
39CE7380
39CE7380
FFFFFFE0
C6318C60
C6318C60
38000380
38000380
FE000FE0
C6000C60
C6000C60
38000380
38000380
FE000FE0
C6000C60
C6000C60
ENDCHAR
STARTCHAR 1EAA
ENCODING 7850
SWIDTH 700 0
DWIDTH 35 0
BBX 27 68 4 0
BITMAP
06300C60
06300C60
06300C60
39CE0380
39CE0380
FFFF8FE0
C6318C60
C6318C60
380E7380
380E7380
FE0FFF80
C6018C00
C6018C00
00000000
00000000
00318000
00318000
00318000
01CE7000
01CE7000
07FFFC00
06318C00
06318C00
01C07000
01C07000
07F1FC00
06318C00
06318C00
00000000
00000000
00318000
00318000
00318000
01CE7000
01CE7000
07FFFC00
06318C00
06318C00
39C07380
39C07380
FFC07FE0
C6000C60
C6000C60
38000380
38000380
FE000FE0
C6000C60
C6000C60
38000380
38000380
FE318FE0
C6318C60
C6318C60
39CE7380
39CE7380
FFFFFFE0
C6318C60
C6318C60
38000380
38000380
FE000FE0
C6000C60
C6000C60
38000380
38000380
FE000FE0
C6000C60
C6000C60
ENDCHAR
STARTCHAR 1EAB
ENCODING 7851
SWIDTH 700 0
DWIDTH 35 0
BBX 27 68 4 0
BITMAP
06300C60
06300C60
06300C60
39CE0380
39CE0380
FFFF8FE0
C6318C60
C6318C60
380E7380
380E7380
FE0FFF80
C6018C00
C6018C00
00000000
00000000
00318000
00318000
00318000
01CE7000
01CE7000
07FFFC00
06318C00
06318C00
01C07000
01C07000
07F1FC00
06318C00
06318C00
00000000
00000000
06318C00
06318C00
06318C00
39CE7380
39CE7380
FFFFFFE0
C6318C60
C6318C60
38000380
38000380
FE000FE0
C6000C60
C6000C60
38000380
38000380
FE000FE0
C6000C60
C6000C60
38000380
38000380
FE318FE0
C6318C60
C6318C60
39CE7380
39CE7380
FFFFFFE0
C6318C60
C6318C60
38000380
38000380
FE000FE0
C6000C60
C6000C60
38000380
38000380
FE000FE0
C6000C60
C6000C60
ENDCHAR
STARTCHAR 1EAC
ENCODING 7852
SWIDTH 700 0
DWIDTH 35 0
BBX 27 63 4 -10
BITMAP
00318000
00318000
00318000
01CE7000
01CE7000
07FFFC00
06318C00
06318C00
01C07000
01C07000
07F1FC00
06318C00
06318C00
00000000
00000000
00318000
00318000
00318000
01CE7000
01CE7000
07FFFC00
06318C00
06318C00
39C07380
39C07380
FFC07FE0
C6000C60
C6000C60
38000380
38000380
FE000FE0
C6000C60
C6000C60
38000380
38000380
FE318FE0
C6318C60
C6318C60
39CE7380
39CE7380
FFFFFFE0
C6318C60
C6318C60
38000380
38000380
FE000FE0
C6000C60
C6000C60
38000380
38000380
FE000FE0
C6000C60
C6000C60
00000000
00000000
00318000
00318000
00318000
000E0000
000E0000
003F8000
00318000
00318000
ENDCHAR
STARTCHAR 1EAD
ENCODING 7853
SWIDTH 700 0
DWIDTH 35 0
BBX 27 63 4 -10
BITMAP
00318000
00318000
00318000
01CE7000
01CE7000
07FFFC00
06318C00
06318C00
01C07000
01C07000
07F1FC00
06318C00
06318C00
00000000
00000000
06318C00
06318C00
06318C00
39CE7380
39CE7380
FFFFFFE0
C6318C60
C6318C60
38000380
38000380
FE000FE0
C6000C60
C6000C60
38000380
38000380
FE000FE0
C6000C60
C6000C60
38000380
38000380
FE318FE0
C6318C60
C6318C60
39CE7380
39CE7380
FFFFFFE0
C6318C60
C6318C60
38000380
38000380
FE000FE0
C6000C60
C6000C60
38000380
38000380
FE000FE0
C6000C60
C6000C60
00000000
00000000
00318000
00318000
00318000
000E0000
000E0000
003F8000
00318000
00318000
ENDCHAR
STARTCHAR 1EAE
ENCODING 7854
SWIDTH 700 0
DWIDTH 35 0
BBX 27 68 4 0
BITMAP
00007380
00007380
00007380
00018C00
00018C00
000FFC00
000E7000
000E7000
00318000
00318000
01FF8000
01CE0000
01CE0000
00000000
00000000
39C07380
39C07380
39C07380
06000C00
06000C00
3FCE7F80
39CE7380
39CE7380
06318C00
06318C00
07FFFC00
01CE7000
01CE7000
00000000
00000000
00318000
00318000
00318000
01CE7000
01CE7000
07FFFC00
06318C00
06318C00
39C07380
39C07380
FFC07FE0
C6000C60
C6000C60
38000380
38000380
FE000FE0
C6000C60
C6000C60
38000380
38000380
FE318FE0
C6318C60
C6318C60
39CE7380
39CE7380
FFFFFFE0
C6318C60
C6318C60
38000380
38000380
FE000FE0
C6000C60
C6000C60
38000380
38000380
FE000FE0
C6000C60
C6000C60
ENDCHAR
STARTCHAR 1EAF
ENCODING 7855
SWIDTH 700 0
DWIDTH 35 0
BBX 27 68 4 0
BITMAP
00007380
00007380
00007380
00018C00
00018C00
000FFC00
000E7000
000E7000
00318000
00318000
01FF8000
01CE0000
01CE0000
00000000
00000000
39C07380
39C07380
39C07380
06000C00
06000C00
3FCE7F80
39CE7380
39CE7380
06318C00
06318C00
07FFFC00
01CE7000
01CE7000
00000000
00000000
06318C00
06318C00
06318C00
39CE7380
39CE7380
FFFFFFE0
C6318C60
C6318C60
38000380
38000380
FE000FE0
C6000C60
C6000C60
38000380
38000380
FE000FE0
C6000C60
C6000C60
38000380
38000380
FE318FE0
C6318C60
C6318C60
39CE7380
39CE7380
FFFFFFE0
C6318C60
C6318C60
38000380
38000380
FE000FE0
C6000C60
C6000C60
38000380
38000380
FE000FE0
C6000C60
C6000C60
ENDCHAR
STARTCHAR 1EB0
ENCODING 7856
SWIDTH 700 0
DWIDTH 35 0
BBX 28 68 3 0
BITMAP
E7000000
E7000000
E7000000
18C00000
18C00000
1FF80000
07380000
07380000
00C60000
00C60000
00FFC000
0039C000
0039C000
00000000
00000000
1CE039C0
1CE039C0
1CE039C0
03000600
03000600
1FE73FC0
1CE739C0
1CE739C0
0318C600
0318C600
03FFFE00
00E73800
00E73800
00000000
00000000
0018C000
0018C000
0018C000
00E73800
00E73800
03FFFE00
0318C600
0318C600
1CE039C0
1CE039C0
7FE03FF0
63000630
63000630
1C0001C0
1C0001C0
7F0007F0
63000630
63000630
1C0001C0
1C0001C0
7F18C7F0
6318C630
6318C630
1CE739C0
1CE739C0
7FFFFFF0
6318C630
6318C630
1C0001C0
1C0001C0
7F0007F0
63000630
63000630
1C0001C0
1C0001C0
7F0007F0
63000630
63000630
ENDCHAR
STARTCHAR 1EB1
ENCODING 7857
SWIDTH 700 0
DWIDTH 35 0
BBX 28 68 3 0
BITMAP
E7000000
E7000000
E7000000
18C00000
18C00000
1FF80000
07380000
07380000
00C60000
00C60000
00FFC000
0039C000
0039C000
00000000
00000000
1CE039C0
1CE039C0
1CE039C0
03000600
03000600
1FE73FC0
1CE739C0
1CE739C0
0318C600
0318C600
03FFFE00
00E73800
00E73800
00000000
00000000
0318C600
0318C600
0318C600
1CE739C0
1CE739C0
7FFFFFF0
6318C630
6318C630
1C0001C0
1C0001C0
7F0007F0
63000630
63000630
1C0001C0
1C0001C0
7F0007F0
63000630
63000630
1C0001C0
1C0001C0
7F18C7F0
6318C630
6318C630
1CE739C0
1CE739C0
7FFFFFF0
6318C630
6318C630
1C0001C0
1C0001C0
7F0007F0
63000630
63000630
1C0001C0
1C0001C0
7F0007F0
63000630
63000630
ENDCHAR
STARTCHAR 1EB2
ENCODING 7858
SWIDTH 700 0
DWIDTH 35 0
BBX 27 73 4 0
BITMAP
06318000
06318000
06318000
01CE7000
01CE7000
07FFFC00
06318C00
06318C00
00007000
00007000
0031FC00
00318C00
00318C00
000E7000
000E7000
003FF000
00318000
00318000
00000000
00000000
39C07380
39C07380
39C07380
06000C00
06000C00
3FCE7F80
39CE7380
39CE7380
06318C00
06318C00
07FFFC00
01CE7000
01CE7000
00000000
00000000
00318000
00318000
00318000
01CE7000
01CE7000
07FFFC00
06318C00
06318C00
39C07380
39C07380
FFC07FE0
C6000C60
C6000C60
38000380
38000380
FE000FE0
C6000C60
C6000C60
38000380
38000380
FE318FE0
C6318C60
C6318C60
39CE7380
39CE7380
FFFFFFE0
C6318C60
C6318C60
38000380
38000380
FE000FE0
C6000C60
C6000C60
38000380
38000380
FE000FE0
C6000C60
C6000C60
ENDCHAR
ENDFONT
